M48
; DRILL file {KiCad 8.0.4} date 2024-11-21T09:43:53-0800
; FORMAT={-:-/ absolute / inch / decimal}
; #@! TF.CreationDate,2024-11-21T09:43:53-08:00
; #@! TF.GenerationSoftware,Kicad,Pcbnew,8.0.4
; #@! TF.FileFunction,Plated,1,2,PTH
FMAT,2
INCH
; #@! TA.AperFunction,Plated,PTH,ComponentDrill
T1C0.0276
; #@! TA.AperFunction,Plated,PTH,ComponentDrill
T2C0.0295
; #@! TA.AperFunction,Plated,PTH,ComponentDrill
T3C0.0315
; #@! TA.AperFunction,Plated,PTH,ComponentDrill
T4C0.0394
; #@! TA.AperFunction,Plated,PTH,ComponentDrill
T5C0.0433
; #@! TA.AperFunction,Plated,PTH,ComponentDrill
T6C0.0512
%
G90
G05
T1
X2.4378Y-4.4488
X2.6378Y-4.4488
X4.052Y-2.7953
X4.252Y-2.7953
X4.5047Y-4.4685
X4.7047Y-4.4685
X5.1181Y-3.4646
X5.1181Y-3.6646
X5.3543Y-3.4449
X5.3543Y-3.6449
X5.5118Y-3.4433
X5.5118Y-3.6433
X5.6858Y-2.7165
X5.8858Y-2.7165
X6.0008Y-3.4843
X6.2008Y-3.4843
T2
X5.5469Y-3.8603
X5.5969Y-3.8603
X5.6469Y-3.8603
X5.9736Y-2.2835
X6.0236Y-2.2835
X6.0736Y-2.2835
T3
X3.2959Y-3.3092
X3.3959Y-3.3092
T4
X2.6949Y-4.3328
X2.7949Y-4.3328
X2.8Y-4.5079
X2.8949Y-4.3328
X2.9949Y-4.3328
X3.0118Y-4.5058
X3.0949Y-3.5328
X3.0949Y-4.3328
X3.1949Y-3.5328
X3.1949Y-4.3328
X3.2089Y-2.7777
X3.2089Y-3.0532
X3.2949Y-3.5328
X3.2949Y-4.3328
X3.386Y-2.7777
X3.386Y-3.0532
X3.3949Y-3.5328
X3.3949Y-4.3328
X3.4949Y-3.5328
X3.4949Y-4.3328
X3.5949Y-3.5328
X3.5949Y-4.3328
X3.6949Y-3.5328
X3.6949Y-4.3328
X3.7949Y-3.5328
X3.7949Y-4.3328
X3.8949Y-3.5328
X3.8949Y-4.3328
X3.9949Y-3.5328
X3.9949Y-4.3328
X4.0949Y-3.5328
X4.0949Y-4.3328
X4.1949Y-3.5328
X4.1949Y-4.3328
X5.0689Y-3.8287
X6.1781Y-3.3071
X6.1811Y-3.0315
T5
X4.4685Y-2.7548
X4.4685Y-3.1548
T6
X2.2246Y-3.0895
X2.2246Y-3.2895
X2.8724Y-2.2265
X3.0724Y-2.2265
X3.3435Y-2.2265
X3.5435Y-2.2265
X3.7209Y-2.6005
X3.7209Y-2.7973
X3.7209Y-2.9942
X3.8228Y-2.2264
X4.0228Y-2.2264
X4.3669Y-2.2244
X4.5669Y-2.2244
X4.8394Y-2.2265
X5.0335Y-4.4706
X5.0394Y-2.2265
X5.2335Y-4.4706
X5.3154Y-2.6202
X5.3154Y-2.817
X5.3154Y-3.0139
X5.4693Y-2.2047
X5.6693Y-2.2047
X5.8661Y-3.0118
X5.8661Y-3.2118
X6.4933Y-2.5597
X6.4933Y-2.7597
X6.4965Y-3.0125
X6.4965Y-3.2125
X6.4965Y-3.467
X6.4965Y-3.667
T4
G00X2.1654Y-2.6142
M15
G01X2.1654Y-2.7008
M16
G05
G00X2.3425Y-2.8465
M15
G01X2.2559Y-2.8465
M16
G05
G00X2.4134Y-2.6063
M15
G01X2.4134Y-2.7087
M16
G05
M30
