%TF.GenerationSoftware,KiCad,Pcbnew,8.0.4*%
%TF.CreationDate,2024-11-21T09:43:36-08:00*%
%TF.ProjectId,ChargeGuard_Pro_Plus_ECE411,43686172-6765-4477-9561-72645f50726f,1.0.3*%
%TF.SameCoordinates,Original*%
%TF.FileFunction,Legend,Top*%
%TF.FilePolarity,Positive*%
%FSLAX46Y46*%
G04 Gerber Fmt 4.6, Leading zero omitted, Abs format (unit mm)*
G04 Created by KiCad (PCBNEW 8.0.4) date 2024-11-21 09:43:36*
%MOMM*%
%LPD*%
G01*
G04 APERTURE LIST*
G04 Aperture macros list*
%AMRoundRect*
0 Rectangle with rounded corners*
0 $1 Rounding radius*
0 $2 $3 $4 $5 $6 $7 $8 $9 X,Y pos of 4 corners*
0 Add a 4 corners polygon primitive as box body*
4,1,4,$2,$3,$4,$5,$6,$7,$8,$9,$2,$3,0*
0 Add four circle primitives for the rounded corners*
1,1,$1+$1,$2,$3*
1,1,$1+$1,$4,$5*
1,1,$1+$1,$6,$7*
1,1,$1+$1,$8,$9*
0 Add four rect primitives between the rounded corners*
20,1,$1+$1,$2,$3,$4,$5,0*
20,1,$1+$1,$4,$5,$6,$7,0*
20,1,$1+$1,$6,$7,$8,$9,0*
20,1,$1+$1,$8,$9,$2,$3,0*%
G04 Aperture macros list end*
%ADD10C,0.150000*%
%ADD11C,0.120000*%
%ADD12C,2.000000*%
%ADD13R,2.500000X2.500000*%
%ADD14C,2.500000*%
%ADD15RoundRect,0.250000X0.625000X-0.312500X0.625000X0.312500X-0.625000X0.312500X-0.625000X-0.312500X0*%
%ADD16C,1.400000*%
%ADD17O,1.400000X1.400000*%
%ADD18R,1.050000X1.500000*%
%ADD19O,1.050000X1.500000*%
%ADD20RoundRect,0.250000X-0.312500X-0.625000X0.312500X-0.625000X0.312500X0.625000X-0.312500X0.625000X0*%
%ADD21RoundRect,0.250000X0.312500X0.625000X-0.312500X0.625000X-0.312500X-0.625000X0.312500X-0.625000X0*%
%ADD22RoundRect,0.250000X-0.625000X0.312500X-0.625000X-0.312500X0.625000X-0.312500X0.625000X0.312500X0*%
%ADD23R,2.200000X2.200000*%
%ADD24O,2.200000X2.200000*%
%ADD25RoundRect,0.250000X0.550000X-1.050000X0.550000X1.050000X-0.550000X1.050000X-0.550000X-1.050000X0*%
%ADD26O,1.600000X2.600000*%
%ADD27R,2.000000X4.600000*%
%ADD28O,2.000000X4.200000*%
%ADD29O,4.200000X2.000000*%
G04 APERTURE END LIST*
D10*
X137261903Y-110492368D02*
X137166665Y-110539987D01*
X137166665Y-110539987D02*
X136976189Y-110539987D01*
X136976189Y-110539987D02*
X136880951Y-110492368D01*
X136880951Y-110492368D02*
X136833332Y-110397129D01*
X136833332Y-110397129D02*
X136833332Y-110016177D01*
X136833332Y-110016177D02*
X136880951Y-109920939D01*
X136880951Y-109920939D02*
X136976189Y-109873320D01*
X136976189Y-109873320D02*
X137166665Y-109873320D01*
X137166665Y-109873320D02*
X137261903Y-109920939D01*
X137261903Y-109920939D02*
X137309522Y-110016177D01*
X137309522Y-110016177D02*
X137309522Y-110111415D01*
X137309522Y-110111415D02*
X136833332Y-110206653D01*
X138166665Y-110492368D02*
X138071427Y-110539987D01*
X138071427Y-110539987D02*
X137880951Y-110539987D01*
X137880951Y-110539987D02*
X137785713Y-110492368D01*
X137785713Y-110492368D02*
X137738094Y-110444748D01*
X137738094Y-110444748D02*
X137690475Y-110349510D01*
X137690475Y-110349510D02*
X137690475Y-110063796D01*
X137690475Y-110063796D02*
X137738094Y-109968558D01*
X137738094Y-109968558D02*
X137785713Y-109920939D01*
X137785713Y-109920939D02*
X137880951Y-109873320D01*
X137880951Y-109873320D02*
X138071427Y-109873320D01*
X138071427Y-109873320D02*
X138166665Y-109920939D01*
X138976189Y-110492368D02*
X138880951Y-110539987D01*
X138880951Y-110539987D02*
X138690475Y-110539987D01*
X138690475Y-110539987D02*
X138595237Y-110492368D01*
X138595237Y-110492368D02*
X138547618Y-110397129D01*
X138547618Y-110397129D02*
X138547618Y-110016177D01*
X138547618Y-110016177D02*
X138595237Y-109920939D01*
X138595237Y-109920939D02*
X138690475Y-109873320D01*
X138690475Y-109873320D02*
X138880951Y-109873320D01*
X138880951Y-109873320D02*
X138976189Y-109920939D01*
X138976189Y-109920939D02*
X139023808Y-110016177D01*
X139023808Y-110016177D02*
X139023808Y-110111415D01*
X139023808Y-110111415D02*
X138547618Y-110206653D01*
X139880951Y-109873320D02*
X139880951Y-110539987D01*
X139642856Y-109492368D02*
X139404761Y-110206653D01*
X139404761Y-110206653D02*
X140023808Y-110206653D01*
X140928570Y-110539987D02*
X140357142Y-110539987D01*
X140642856Y-110539987D02*
X140642856Y-109539987D01*
X140642856Y-109539987D02*
X140547618Y-109682844D01*
X140547618Y-109682844D02*
X140452380Y-109778082D01*
X140452380Y-109778082D02*
X140357142Y-109825701D01*
X141880951Y-110539987D02*
X141309523Y-110539987D01*
X141595237Y-110539987D02*
X141595237Y-109539987D01*
X141595237Y-109539987D02*
X141499999Y-109682844D01*
X141499999Y-109682844D02*
X141404761Y-109778082D01*
X141404761Y-109778082D02*
X141309523Y-109825701D01*
X142309523Y-110159034D02*
X143071428Y-110159034D01*
X143404761Y-109873320D02*
X143785713Y-109873320D01*
X143547618Y-109539987D02*
X143547618Y-110397129D01*
X143547618Y-110397129D02*
X143595237Y-110492368D01*
X143595237Y-110492368D02*
X143690475Y-110539987D01*
X143690475Y-110539987D02*
X143785713Y-110539987D01*
X144309523Y-109539987D02*
X144404761Y-109539987D01*
X144404761Y-109539987D02*
X144499999Y-109587606D01*
X144499999Y-109587606D02*
X144547618Y-109635225D01*
X144547618Y-109635225D02*
X144595237Y-109730463D01*
X144595237Y-109730463D02*
X144642856Y-109920939D01*
X144642856Y-109920939D02*
X144642856Y-110159034D01*
X144642856Y-110159034D02*
X144595237Y-110349510D01*
X144595237Y-110349510D02*
X144547618Y-110444748D01*
X144547618Y-110444748D02*
X144499999Y-110492368D01*
X144499999Y-110492368D02*
X144404761Y-110539987D01*
X144404761Y-110539987D02*
X144309523Y-110539987D01*
X144309523Y-110539987D02*
X144214285Y-110492368D01*
X144214285Y-110492368D02*
X144166666Y-110444748D01*
X144166666Y-110444748D02*
X144119047Y-110349510D01*
X144119047Y-110349510D02*
X144071428Y-110159034D01*
X144071428Y-110159034D02*
X144071428Y-109920939D01*
X144071428Y-109920939D02*
X144119047Y-109730463D01*
X144119047Y-109730463D02*
X144166666Y-109635225D01*
X144166666Y-109635225D02*
X144214285Y-109587606D01*
X144214285Y-109587606D02*
X144309523Y-109539987D01*
X145023809Y-109635225D02*
X145071428Y-109587606D01*
X145071428Y-109587606D02*
X145166666Y-109539987D01*
X145166666Y-109539987D02*
X145404761Y-109539987D01*
X145404761Y-109539987D02*
X145499999Y-109587606D01*
X145499999Y-109587606D02*
X145547618Y-109635225D01*
X145547618Y-109635225D02*
X145595237Y-109730463D01*
X145595237Y-109730463D02*
X145595237Y-109825701D01*
X145595237Y-109825701D02*
X145547618Y-109968558D01*
X145547618Y-109968558D02*
X144976190Y-110539987D01*
X144976190Y-110539987D02*
X145595237Y-110539987D01*
X146023809Y-110159034D02*
X146785714Y-110159034D01*
X147690475Y-110492368D02*
X147595237Y-110539987D01*
X147595237Y-110539987D02*
X147404761Y-110539987D01*
X147404761Y-110539987D02*
X147309523Y-110492368D01*
X147309523Y-110492368D02*
X147261904Y-110444748D01*
X147261904Y-110444748D02*
X147214285Y-110349510D01*
X147214285Y-110349510D02*
X147214285Y-110063796D01*
X147214285Y-110063796D02*
X147261904Y-109968558D01*
X147261904Y-109968558D02*
X147309523Y-109920939D01*
X147309523Y-109920939D02*
X147404761Y-109873320D01*
X147404761Y-109873320D02*
X147595237Y-109873320D01*
X147595237Y-109873320D02*
X147690475Y-109920939D01*
X148119047Y-110539987D02*
X148119047Y-109539987D01*
X148547618Y-110539987D02*
X148547618Y-110016177D01*
X148547618Y-110016177D02*
X148499999Y-109920939D01*
X148499999Y-109920939D02*
X148404761Y-109873320D01*
X148404761Y-109873320D02*
X148261904Y-109873320D01*
X148261904Y-109873320D02*
X148166666Y-109920939D01*
X148166666Y-109920939D02*
X148119047Y-109968558D01*
X149452380Y-110539987D02*
X149452380Y-110016177D01*
X149452380Y-110016177D02*
X149404761Y-109920939D01*
X149404761Y-109920939D02*
X149309523Y-109873320D01*
X149309523Y-109873320D02*
X149119047Y-109873320D01*
X149119047Y-109873320D02*
X149023809Y-109920939D01*
X149452380Y-110492368D02*
X149357142Y-110539987D01*
X149357142Y-110539987D02*
X149119047Y-110539987D01*
X149119047Y-110539987D02*
X149023809Y-110492368D01*
X149023809Y-110492368D02*
X148976190Y-110397129D01*
X148976190Y-110397129D02*
X148976190Y-110301891D01*
X148976190Y-110301891D02*
X149023809Y-110206653D01*
X149023809Y-110206653D02*
X149119047Y-110159034D01*
X149119047Y-110159034D02*
X149357142Y-110159034D01*
X149357142Y-110159034D02*
X149452380Y-110111415D01*
X149928571Y-110539987D02*
X149928571Y-109873320D01*
X149928571Y-110063796D02*
X149976190Y-109968558D01*
X149976190Y-109968558D02*
X150023809Y-109920939D01*
X150023809Y-109920939D02*
X150119047Y-109873320D01*
X150119047Y-109873320D02*
X150214285Y-109873320D01*
X150976190Y-109873320D02*
X150976190Y-110682844D01*
X150976190Y-110682844D02*
X150928571Y-110778082D01*
X150928571Y-110778082D02*
X150880952Y-110825701D01*
X150880952Y-110825701D02*
X150785714Y-110873320D01*
X150785714Y-110873320D02*
X150642857Y-110873320D01*
X150642857Y-110873320D02*
X150547619Y-110825701D01*
X150976190Y-110492368D02*
X150880952Y-110539987D01*
X150880952Y-110539987D02*
X150690476Y-110539987D01*
X150690476Y-110539987D02*
X150595238Y-110492368D01*
X150595238Y-110492368D02*
X150547619Y-110444748D01*
X150547619Y-110444748D02*
X150500000Y-110349510D01*
X150500000Y-110349510D02*
X150500000Y-110063796D01*
X150500000Y-110063796D02*
X150547619Y-109968558D01*
X150547619Y-109968558D02*
X150595238Y-109920939D01*
X150595238Y-109920939D02*
X150690476Y-109873320D01*
X150690476Y-109873320D02*
X150880952Y-109873320D01*
X150880952Y-109873320D02*
X150976190Y-109920939D01*
X151833333Y-110492368D02*
X151738095Y-110539987D01*
X151738095Y-110539987D02*
X151547619Y-110539987D01*
X151547619Y-110539987D02*
X151452381Y-110492368D01*
X151452381Y-110492368D02*
X151404762Y-110397129D01*
X151404762Y-110397129D02*
X151404762Y-110016177D01*
X151404762Y-110016177D02*
X151452381Y-109920939D01*
X151452381Y-109920939D02*
X151547619Y-109873320D01*
X151547619Y-109873320D02*
X151738095Y-109873320D01*
X151738095Y-109873320D02*
X151833333Y-109920939D01*
X151833333Y-109920939D02*
X151880952Y-110016177D01*
X151880952Y-110016177D02*
X151880952Y-110111415D01*
X151880952Y-110111415D02*
X151404762Y-110206653D01*
X152738095Y-109873320D02*
X152738095Y-110682844D01*
X152738095Y-110682844D02*
X152690476Y-110778082D01*
X152690476Y-110778082D02*
X152642857Y-110825701D01*
X152642857Y-110825701D02*
X152547619Y-110873320D01*
X152547619Y-110873320D02*
X152404762Y-110873320D01*
X152404762Y-110873320D02*
X152309524Y-110825701D01*
X152738095Y-110492368D02*
X152642857Y-110539987D01*
X152642857Y-110539987D02*
X152452381Y-110539987D01*
X152452381Y-110539987D02*
X152357143Y-110492368D01*
X152357143Y-110492368D02*
X152309524Y-110444748D01*
X152309524Y-110444748D02*
X152261905Y-110349510D01*
X152261905Y-110349510D02*
X152261905Y-110063796D01*
X152261905Y-110063796D02*
X152309524Y-109968558D01*
X152309524Y-109968558D02*
X152357143Y-109920939D01*
X152357143Y-109920939D02*
X152452381Y-109873320D01*
X152452381Y-109873320D02*
X152642857Y-109873320D01*
X152642857Y-109873320D02*
X152738095Y-109920939D01*
X153642857Y-109873320D02*
X153642857Y-110539987D01*
X153214286Y-109873320D02*
X153214286Y-110397129D01*
X153214286Y-110397129D02*
X153261905Y-110492368D01*
X153261905Y-110492368D02*
X153357143Y-110539987D01*
X153357143Y-110539987D02*
X153500000Y-110539987D01*
X153500000Y-110539987D02*
X153595238Y-110492368D01*
X153595238Y-110492368D02*
X153642857Y-110444748D01*
X154547619Y-110539987D02*
X154547619Y-110016177D01*
X154547619Y-110016177D02*
X154500000Y-109920939D01*
X154500000Y-109920939D02*
X154404762Y-109873320D01*
X154404762Y-109873320D02*
X154214286Y-109873320D01*
X154214286Y-109873320D02*
X154119048Y-109920939D01*
X154547619Y-110492368D02*
X154452381Y-110539987D01*
X154452381Y-110539987D02*
X154214286Y-110539987D01*
X154214286Y-110539987D02*
X154119048Y-110492368D01*
X154119048Y-110492368D02*
X154071429Y-110397129D01*
X154071429Y-110397129D02*
X154071429Y-110301891D01*
X154071429Y-110301891D02*
X154119048Y-110206653D01*
X154119048Y-110206653D02*
X154214286Y-110159034D01*
X154214286Y-110159034D02*
X154452381Y-110159034D01*
X154452381Y-110159034D02*
X154547619Y-110111415D01*
X155023810Y-110539987D02*
X155023810Y-109873320D01*
X155023810Y-110063796D02*
X155071429Y-109968558D01*
X155071429Y-109968558D02*
X155119048Y-109920939D01*
X155119048Y-109920939D02*
X155214286Y-109873320D01*
X155214286Y-109873320D02*
X155309524Y-109873320D01*
X156071429Y-110539987D02*
X156071429Y-109539987D01*
X156071429Y-110492368D02*
X155976191Y-110539987D01*
X155976191Y-110539987D02*
X155785715Y-110539987D01*
X155785715Y-110539987D02*
X155690477Y-110492368D01*
X155690477Y-110492368D02*
X155642858Y-110444748D01*
X155642858Y-110444748D02*
X155595239Y-110349510D01*
X155595239Y-110349510D02*
X155595239Y-110063796D01*
X155595239Y-110063796D02*
X155642858Y-109968558D01*
X155642858Y-109968558D02*
X155690477Y-109920939D01*
X155690477Y-109920939D02*
X155785715Y-109873320D01*
X155785715Y-109873320D02*
X155976191Y-109873320D01*
X155976191Y-109873320D02*
X156071429Y-109920939D01*
X156547620Y-110159034D02*
X157309525Y-110159034D01*
X157785715Y-109873320D02*
X157785715Y-110873320D01*
X157785715Y-109920939D02*
X157880953Y-109873320D01*
X157880953Y-109873320D02*
X158071429Y-109873320D01*
X158071429Y-109873320D02*
X158166667Y-109920939D01*
X158166667Y-109920939D02*
X158214286Y-109968558D01*
X158214286Y-109968558D02*
X158261905Y-110063796D01*
X158261905Y-110063796D02*
X158261905Y-110349510D01*
X158261905Y-110349510D02*
X158214286Y-110444748D01*
X158214286Y-110444748D02*
X158166667Y-110492368D01*
X158166667Y-110492368D02*
X158071429Y-110539987D01*
X158071429Y-110539987D02*
X157880953Y-110539987D01*
X157880953Y-110539987D02*
X157785715Y-110492368D01*
X158690477Y-110539987D02*
X158690477Y-109873320D01*
X158690477Y-110063796D02*
X158738096Y-109968558D01*
X158738096Y-109968558D02*
X158785715Y-109920939D01*
X158785715Y-109920939D02*
X158880953Y-109873320D01*
X158880953Y-109873320D02*
X158976191Y-109873320D01*
X159452382Y-110539987D02*
X159357144Y-110492368D01*
X159357144Y-110492368D02*
X159309525Y-110444748D01*
X159309525Y-110444748D02*
X159261906Y-110349510D01*
X159261906Y-110349510D02*
X159261906Y-110063796D01*
X159261906Y-110063796D02*
X159309525Y-109968558D01*
X159309525Y-109968558D02*
X159357144Y-109920939D01*
X159357144Y-109920939D02*
X159452382Y-109873320D01*
X159452382Y-109873320D02*
X159595239Y-109873320D01*
X159595239Y-109873320D02*
X159690477Y-109920939D01*
X159690477Y-109920939D02*
X159738096Y-109968558D01*
X159738096Y-109968558D02*
X159785715Y-110063796D01*
X159785715Y-110063796D02*
X159785715Y-110349510D01*
X159785715Y-110349510D02*
X159738096Y-110444748D01*
X159738096Y-110444748D02*
X159690477Y-110492368D01*
X159690477Y-110492368D02*
X159595239Y-110539987D01*
X159595239Y-110539987D02*
X159452382Y-110539987D01*
X160214287Y-110159034D02*
X160976192Y-110159034D01*
X161452382Y-109873320D02*
X161452382Y-110873320D01*
X161452382Y-109920939D02*
X161547620Y-109873320D01*
X161547620Y-109873320D02*
X161738096Y-109873320D01*
X161738096Y-109873320D02*
X161833334Y-109920939D01*
X161833334Y-109920939D02*
X161880953Y-109968558D01*
X161880953Y-109968558D02*
X161928572Y-110063796D01*
X161928572Y-110063796D02*
X161928572Y-110349510D01*
X161928572Y-110349510D02*
X161880953Y-110444748D01*
X161880953Y-110444748D02*
X161833334Y-110492368D01*
X161833334Y-110492368D02*
X161738096Y-110539987D01*
X161738096Y-110539987D02*
X161547620Y-110539987D01*
X161547620Y-110539987D02*
X161452382Y-110492368D01*
X162500001Y-110539987D02*
X162404763Y-110492368D01*
X162404763Y-110492368D02*
X162357144Y-110397129D01*
X162357144Y-110397129D02*
X162357144Y-109539987D01*
X163309525Y-109873320D02*
X163309525Y-110539987D01*
X162880954Y-109873320D02*
X162880954Y-110397129D01*
X162880954Y-110397129D02*
X162928573Y-110492368D01*
X162928573Y-110492368D02*
X163023811Y-110539987D01*
X163023811Y-110539987D02*
X163166668Y-110539987D01*
X163166668Y-110539987D02*
X163261906Y-110492368D01*
X163261906Y-110492368D02*
X163309525Y-110444748D01*
X163738097Y-110492368D02*
X163833335Y-110539987D01*
X163833335Y-110539987D02*
X164023811Y-110539987D01*
X164023811Y-110539987D02*
X164119049Y-110492368D01*
X164119049Y-110492368D02*
X164166668Y-110397129D01*
X164166668Y-110397129D02*
X164166668Y-110349510D01*
X164166668Y-110349510D02*
X164119049Y-110254272D01*
X164119049Y-110254272D02*
X164023811Y-110206653D01*
X164023811Y-110206653D02*
X163880954Y-110206653D01*
X163880954Y-110206653D02*
X163785716Y-110159034D01*
X163785716Y-110159034D02*
X163738097Y-110063796D01*
X163738097Y-110063796D02*
X163738097Y-110016177D01*
X163738097Y-110016177D02*
X163785716Y-109920939D01*
X163785716Y-109920939D02*
X163880954Y-109873320D01*
X163880954Y-109873320D02*
X164023811Y-109873320D01*
X164023811Y-109873320D02*
X164119049Y-109920939D01*
X146761904Y-112530883D02*
X146714285Y-112483264D01*
X146714285Y-112483264D02*
X146619047Y-112340407D01*
X146619047Y-112340407D02*
X146571428Y-112245169D01*
X146571428Y-112245169D02*
X146523809Y-112102312D01*
X146523809Y-112102312D02*
X146476190Y-111864216D01*
X146476190Y-111864216D02*
X146476190Y-111673740D01*
X146476190Y-111673740D02*
X146523809Y-111435645D01*
X146523809Y-111435645D02*
X146571428Y-111292788D01*
X146571428Y-111292788D02*
X146619047Y-111197550D01*
X146619047Y-111197550D02*
X146714285Y-111054692D01*
X146714285Y-111054692D02*
X146761904Y-111007073D01*
X147714285Y-112149931D02*
X147380952Y-111673740D01*
X147142857Y-112149931D02*
X147142857Y-111149931D01*
X147142857Y-111149931D02*
X147523809Y-111149931D01*
X147523809Y-111149931D02*
X147619047Y-111197550D01*
X147619047Y-111197550D02*
X147666666Y-111245169D01*
X147666666Y-111245169D02*
X147714285Y-111340407D01*
X147714285Y-111340407D02*
X147714285Y-111483264D01*
X147714285Y-111483264D02*
X147666666Y-111578502D01*
X147666666Y-111578502D02*
X147619047Y-111626121D01*
X147619047Y-111626121D02*
X147523809Y-111673740D01*
X147523809Y-111673740D02*
X147142857Y-111673740D01*
X148523809Y-112102312D02*
X148428571Y-112149931D01*
X148428571Y-112149931D02*
X148238095Y-112149931D01*
X148238095Y-112149931D02*
X148142857Y-112102312D01*
X148142857Y-112102312D02*
X148095238Y-112007073D01*
X148095238Y-112007073D02*
X148095238Y-111626121D01*
X148095238Y-111626121D02*
X148142857Y-111530883D01*
X148142857Y-111530883D02*
X148238095Y-111483264D01*
X148238095Y-111483264D02*
X148428571Y-111483264D01*
X148428571Y-111483264D02*
X148523809Y-111530883D01*
X148523809Y-111530883D02*
X148571428Y-111626121D01*
X148571428Y-111626121D02*
X148571428Y-111721359D01*
X148571428Y-111721359D02*
X148095238Y-111816597D01*
X148904762Y-111483264D02*
X149142857Y-112149931D01*
X149142857Y-112149931D02*
X149380952Y-111483264D01*
X151047619Y-112149931D02*
X150476191Y-112149931D01*
X150761905Y-112149931D02*
X150761905Y-111149931D01*
X150761905Y-111149931D02*
X150666667Y-111292788D01*
X150666667Y-111292788D02*
X150571429Y-111388026D01*
X150571429Y-111388026D02*
X150476191Y-111435645D01*
X151476191Y-112054692D02*
X151523810Y-112102312D01*
X151523810Y-112102312D02*
X151476191Y-112149931D01*
X151476191Y-112149931D02*
X151428572Y-112102312D01*
X151428572Y-112102312D02*
X151476191Y-112054692D01*
X151476191Y-112054692D02*
X151476191Y-112149931D01*
X152142857Y-111149931D02*
X152238095Y-111149931D01*
X152238095Y-111149931D02*
X152333333Y-111197550D01*
X152333333Y-111197550D02*
X152380952Y-111245169D01*
X152380952Y-111245169D02*
X152428571Y-111340407D01*
X152428571Y-111340407D02*
X152476190Y-111530883D01*
X152476190Y-111530883D02*
X152476190Y-111768978D01*
X152476190Y-111768978D02*
X152428571Y-111959454D01*
X152428571Y-111959454D02*
X152380952Y-112054692D01*
X152380952Y-112054692D02*
X152333333Y-112102312D01*
X152333333Y-112102312D02*
X152238095Y-112149931D01*
X152238095Y-112149931D02*
X152142857Y-112149931D01*
X152142857Y-112149931D02*
X152047619Y-112102312D01*
X152047619Y-112102312D02*
X152000000Y-112054692D01*
X152000000Y-112054692D02*
X151952381Y-111959454D01*
X151952381Y-111959454D02*
X151904762Y-111768978D01*
X151904762Y-111768978D02*
X151904762Y-111530883D01*
X151904762Y-111530883D02*
X151952381Y-111340407D01*
X151952381Y-111340407D02*
X152000000Y-111245169D01*
X152000000Y-111245169D02*
X152047619Y-111197550D01*
X152047619Y-111197550D02*
X152142857Y-111149931D01*
X152904762Y-112054692D02*
X152952381Y-112102312D01*
X152952381Y-112102312D02*
X152904762Y-112149931D01*
X152904762Y-112149931D02*
X152857143Y-112102312D01*
X152857143Y-112102312D02*
X152904762Y-112054692D01*
X152904762Y-112054692D02*
X152904762Y-112149931D01*
X153523809Y-111578502D02*
X153428571Y-111530883D01*
X153428571Y-111530883D02*
X153380952Y-111483264D01*
X153380952Y-111483264D02*
X153333333Y-111388026D01*
X153333333Y-111388026D02*
X153333333Y-111340407D01*
X153333333Y-111340407D02*
X153380952Y-111245169D01*
X153380952Y-111245169D02*
X153428571Y-111197550D01*
X153428571Y-111197550D02*
X153523809Y-111149931D01*
X153523809Y-111149931D02*
X153714285Y-111149931D01*
X153714285Y-111149931D02*
X153809523Y-111197550D01*
X153809523Y-111197550D02*
X153857142Y-111245169D01*
X153857142Y-111245169D02*
X153904761Y-111340407D01*
X153904761Y-111340407D02*
X153904761Y-111388026D01*
X153904761Y-111388026D02*
X153857142Y-111483264D01*
X153857142Y-111483264D02*
X153809523Y-111530883D01*
X153809523Y-111530883D02*
X153714285Y-111578502D01*
X153714285Y-111578502D02*
X153523809Y-111578502D01*
X153523809Y-111578502D02*
X153428571Y-111626121D01*
X153428571Y-111626121D02*
X153380952Y-111673740D01*
X153380952Y-111673740D02*
X153333333Y-111768978D01*
X153333333Y-111768978D02*
X153333333Y-111959454D01*
X153333333Y-111959454D02*
X153380952Y-112054692D01*
X153380952Y-112054692D02*
X153428571Y-112102312D01*
X153428571Y-112102312D02*
X153523809Y-112149931D01*
X153523809Y-112149931D02*
X153714285Y-112149931D01*
X153714285Y-112149931D02*
X153809523Y-112102312D01*
X153809523Y-112102312D02*
X153857142Y-112054692D01*
X153857142Y-112054692D02*
X153904761Y-111959454D01*
X153904761Y-111959454D02*
X153904761Y-111768978D01*
X153904761Y-111768978D02*
X153857142Y-111673740D01*
X153857142Y-111673740D02*
X153809523Y-111626121D01*
X153809523Y-111626121D02*
X153714285Y-111578502D01*
X154238095Y-112530883D02*
X154285714Y-112483264D01*
X154285714Y-112483264D02*
X154380952Y-112340407D01*
X154380952Y-112340407D02*
X154428571Y-112245169D01*
X154428571Y-112245169D02*
X154476190Y-112102312D01*
X154476190Y-112102312D02*
X154523809Y-111864216D01*
X154523809Y-111864216D02*
X154523809Y-111673740D01*
X154523809Y-111673740D02*
X154476190Y-111435645D01*
X154476190Y-111435645D02*
X154428571Y-111292788D01*
X154428571Y-111292788D02*
X154380952Y-111197550D01*
X154380952Y-111197550D02*
X154285714Y-111054692D01*
X154285714Y-111054692D02*
X154238095Y-111007073D01*
X140357142Y-113759875D02*
X140357142Y-112759875D01*
X140357142Y-112759875D02*
X140738094Y-112759875D01*
X140738094Y-112759875D02*
X140833332Y-112807494D01*
X140833332Y-112807494D02*
X140880951Y-112855113D01*
X140880951Y-112855113D02*
X140928570Y-112950351D01*
X140928570Y-112950351D02*
X140928570Y-113093208D01*
X140928570Y-113093208D02*
X140880951Y-113188446D01*
X140880951Y-113188446D02*
X140833332Y-113236065D01*
X140833332Y-113236065D02*
X140738094Y-113283684D01*
X140738094Y-113283684D02*
X140357142Y-113283684D01*
X141309523Y-113712256D02*
X141452380Y-113759875D01*
X141452380Y-113759875D02*
X141690475Y-113759875D01*
X141690475Y-113759875D02*
X141785713Y-113712256D01*
X141785713Y-113712256D02*
X141833332Y-113664636D01*
X141833332Y-113664636D02*
X141880951Y-113569398D01*
X141880951Y-113569398D02*
X141880951Y-113474160D01*
X141880951Y-113474160D02*
X141833332Y-113378922D01*
X141833332Y-113378922D02*
X141785713Y-113331303D01*
X141785713Y-113331303D02*
X141690475Y-113283684D01*
X141690475Y-113283684D02*
X141499999Y-113236065D01*
X141499999Y-113236065D02*
X141404761Y-113188446D01*
X141404761Y-113188446D02*
X141357142Y-113140827D01*
X141357142Y-113140827D02*
X141309523Y-113045589D01*
X141309523Y-113045589D02*
X141309523Y-112950351D01*
X141309523Y-112950351D02*
X141357142Y-112855113D01*
X141357142Y-112855113D02*
X141404761Y-112807494D01*
X141404761Y-112807494D02*
X141499999Y-112759875D01*
X141499999Y-112759875D02*
X141738094Y-112759875D01*
X141738094Y-112759875D02*
X141880951Y-112807494D01*
X142309523Y-112759875D02*
X142309523Y-113569398D01*
X142309523Y-113569398D02*
X142357142Y-113664636D01*
X142357142Y-113664636D02*
X142404761Y-113712256D01*
X142404761Y-113712256D02*
X142499999Y-113759875D01*
X142499999Y-113759875D02*
X142690475Y-113759875D01*
X142690475Y-113759875D02*
X142785713Y-113712256D01*
X142785713Y-113712256D02*
X142833332Y-113664636D01*
X142833332Y-113664636D02*
X142880951Y-113569398D01*
X142880951Y-113569398D02*
X142880951Y-112759875D01*
X144119047Y-113378922D02*
X144880952Y-113378922D01*
X146119047Y-113236065D02*
X146452380Y-113236065D01*
X146595237Y-113759875D02*
X146119047Y-113759875D01*
X146119047Y-113759875D02*
X146119047Y-112759875D01*
X146119047Y-112759875D02*
X146595237Y-112759875D01*
X147595237Y-113664636D02*
X147547618Y-113712256D01*
X147547618Y-113712256D02*
X147404761Y-113759875D01*
X147404761Y-113759875D02*
X147309523Y-113759875D01*
X147309523Y-113759875D02*
X147166666Y-113712256D01*
X147166666Y-113712256D02*
X147071428Y-113617017D01*
X147071428Y-113617017D02*
X147023809Y-113521779D01*
X147023809Y-113521779D02*
X146976190Y-113331303D01*
X146976190Y-113331303D02*
X146976190Y-113188446D01*
X146976190Y-113188446D02*
X147023809Y-112997970D01*
X147023809Y-112997970D02*
X147071428Y-112902732D01*
X147071428Y-112902732D02*
X147166666Y-112807494D01*
X147166666Y-112807494D02*
X147309523Y-112759875D01*
X147309523Y-112759875D02*
X147404761Y-112759875D01*
X147404761Y-112759875D02*
X147547618Y-112807494D01*
X147547618Y-112807494D02*
X147595237Y-112855113D01*
X148023809Y-113236065D02*
X148357142Y-113236065D01*
X148499999Y-113759875D02*
X148023809Y-113759875D01*
X148023809Y-113759875D02*
X148023809Y-112759875D01*
X148023809Y-112759875D02*
X148499999Y-112759875D01*
X149357142Y-113093208D02*
X149357142Y-113759875D01*
X149119047Y-112712256D02*
X148880952Y-113426541D01*
X148880952Y-113426541D02*
X149499999Y-113426541D01*
X150404761Y-113759875D02*
X149833333Y-113759875D01*
X150119047Y-113759875D02*
X150119047Y-112759875D01*
X150119047Y-112759875D02*
X150023809Y-112902732D01*
X150023809Y-112902732D02*
X149928571Y-112997970D01*
X149928571Y-112997970D02*
X149833333Y-113045589D01*
X151357142Y-113759875D02*
X150785714Y-113759875D01*
X151071428Y-113759875D02*
X151071428Y-112759875D01*
X151071428Y-112759875D02*
X150976190Y-112902732D01*
X150976190Y-112902732D02*
X150880952Y-112997970D01*
X150880952Y-112997970D02*
X150785714Y-113045589D01*
X152547619Y-113378922D02*
X153309524Y-113378922D01*
X154404762Y-112759875D02*
X154976190Y-112759875D01*
X154690476Y-113759875D02*
X154690476Y-112759875D01*
X155690476Y-113712256D02*
X155595238Y-113759875D01*
X155595238Y-113759875D02*
X155404762Y-113759875D01*
X155404762Y-113759875D02*
X155309524Y-113712256D01*
X155309524Y-113712256D02*
X155261905Y-113617017D01*
X155261905Y-113617017D02*
X155261905Y-113236065D01*
X155261905Y-113236065D02*
X155309524Y-113140827D01*
X155309524Y-113140827D02*
X155404762Y-113093208D01*
X155404762Y-113093208D02*
X155595238Y-113093208D01*
X155595238Y-113093208D02*
X155690476Y-113140827D01*
X155690476Y-113140827D02*
X155738095Y-113236065D01*
X155738095Y-113236065D02*
X155738095Y-113331303D01*
X155738095Y-113331303D02*
X155261905Y-113426541D01*
X156595238Y-113759875D02*
X156595238Y-113236065D01*
X156595238Y-113236065D02*
X156547619Y-113140827D01*
X156547619Y-113140827D02*
X156452381Y-113093208D01*
X156452381Y-113093208D02*
X156261905Y-113093208D01*
X156261905Y-113093208D02*
X156166667Y-113140827D01*
X156595238Y-113712256D02*
X156500000Y-113759875D01*
X156500000Y-113759875D02*
X156261905Y-113759875D01*
X156261905Y-113759875D02*
X156166667Y-113712256D01*
X156166667Y-113712256D02*
X156119048Y-113617017D01*
X156119048Y-113617017D02*
X156119048Y-113521779D01*
X156119048Y-113521779D02*
X156166667Y-113426541D01*
X156166667Y-113426541D02*
X156261905Y-113378922D01*
X156261905Y-113378922D02*
X156500000Y-113378922D01*
X156500000Y-113378922D02*
X156595238Y-113331303D01*
X157071429Y-113759875D02*
X157071429Y-113093208D01*
X157071429Y-113188446D02*
X157119048Y-113140827D01*
X157119048Y-113140827D02*
X157214286Y-113093208D01*
X157214286Y-113093208D02*
X157357143Y-113093208D01*
X157357143Y-113093208D02*
X157452381Y-113140827D01*
X157452381Y-113140827D02*
X157500000Y-113236065D01*
X157500000Y-113236065D02*
X157500000Y-113759875D01*
X157500000Y-113236065D02*
X157547619Y-113140827D01*
X157547619Y-113140827D02*
X157642857Y-113093208D01*
X157642857Y-113093208D02*
X157785714Y-113093208D01*
X157785714Y-113093208D02*
X157880953Y-113140827D01*
X157880953Y-113140827D02*
X157928572Y-113236065D01*
X157928572Y-113236065D02*
X157928572Y-113759875D01*
X159119048Y-113093208D02*
X159833333Y-113093208D01*
X159404762Y-112664636D02*
X159119048Y-113950351D01*
X159738095Y-113521779D02*
X159023810Y-113521779D01*
X159452381Y-113950351D02*
X159738095Y-112664636D01*
X160119048Y-112855113D02*
X160166667Y-112807494D01*
X160166667Y-112807494D02*
X160261905Y-112759875D01*
X160261905Y-112759875D02*
X160500000Y-112759875D01*
X160500000Y-112759875D02*
X160595238Y-112807494D01*
X160595238Y-112807494D02*
X160642857Y-112855113D01*
X160642857Y-112855113D02*
X160690476Y-112950351D01*
X160690476Y-112950351D02*
X160690476Y-113045589D01*
X160690476Y-113045589D02*
X160642857Y-113188446D01*
X160642857Y-113188446D02*
X160071429Y-113759875D01*
X160071429Y-113759875D02*
X160690476Y-113759875D01*
X147380951Y-114846009D02*
X147047618Y-114846009D01*
X147047618Y-115369819D02*
X147047618Y-114369819D01*
X147047618Y-114369819D02*
X147523808Y-114369819D01*
X148333332Y-115369819D02*
X148333332Y-114846009D01*
X148333332Y-114846009D02*
X148285713Y-114750771D01*
X148285713Y-114750771D02*
X148190475Y-114703152D01*
X148190475Y-114703152D02*
X147999999Y-114703152D01*
X147999999Y-114703152D02*
X147904761Y-114750771D01*
X148333332Y-115322200D02*
X148238094Y-115369819D01*
X148238094Y-115369819D02*
X147999999Y-115369819D01*
X147999999Y-115369819D02*
X147904761Y-115322200D01*
X147904761Y-115322200D02*
X147857142Y-115226961D01*
X147857142Y-115226961D02*
X147857142Y-115131723D01*
X147857142Y-115131723D02*
X147904761Y-115036485D01*
X147904761Y-115036485D02*
X147999999Y-114988866D01*
X147999999Y-114988866D02*
X148238094Y-114988866D01*
X148238094Y-114988866D02*
X148333332Y-114941247D01*
X148952380Y-115369819D02*
X148857142Y-115322200D01*
X148857142Y-115322200D02*
X148809523Y-115226961D01*
X148809523Y-115226961D02*
X148809523Y-114369819D01*
X149476190Y-115369819D02*
X149380952Y-115322200D01*
X149380952Y-115322200D02*
X149333333Y-115226961D01*
X149333333Y-115226961D02*
X149333333Y-114369819D01*
X150571429Y-114465057D02*
X150619048Y-114417438D01*
X150619048Y-114417438D02*
X150714286Y-114369819D01*
X150714286Y-114369819D02*
X150952381Y-114369819D01*
X150952381Y-114369819D02*
X151047619Y-114417438D01*
X151047619Y-114417438D02*
X151095238Y-114465057D01*
X151095238Y-114465057D02*
X151142857Y-114560295D01*
X151142857Y-114560295D02*
X151142857Y-114655533D01*
X151142857Y-114655533D02*
X151095238Y-114798390D01*
X151095238Y-114798390D02*
X150523810Y-115369819D01*
X150523810Y-115369819D02*
X151142857Y-115369819D01*
X151761905Y-114369819D02*
X151857143Y-114369819D01*
X151857143Y-114369819D02*
X151952381Y-114417438D01*
X151952381Y-114417438D02*
X152000000Y-114465057D01*
X152000000Y-114465057D02*
X152047619Y-114560295D01*
X152047619Y-114560295D02*
X152095238Y-114750771D01*
X152095238Y-114750771D02*
X152095238Y-114988866D01*
X152095238Y-114988866D02*
X152047619Y-115179342D01*
X152047619Y-115179342D02*
X152000000Y-115274580D01*
X152000000Y-115274580D02*
X151952381Y-115322200D01*
X151952381Y-115322200D02*
X151857143Y-115369819D01*
X151857143Y-115369819D02*
X151761905Y-115369819D01*
X151761905Y-115369819D02*
X151666667Y-115322200D01*
X151666667Y-115322200D02*
X151619048Y-115274580D01*
X151619048Y-115274580D02*
X151571429Y-115179342D01*
X151571429Y-115179342D02*
X151523810Y-114988866D01*
X151523810Y-114988866D02*
X151523810Y-114750771D01*
X151523810Y-114750771D02*
X151571429Y-114560295D01*
X151571429Y-114560295D02*
X151619048Y-114465057D01*
X151619048Y-114465057D02*
X151666667Y-114417438D01*
X151666667Y-114417438D02*
X151761905Y-114369819D01*
X152476191Y-114465057D02*
X152523810Y-114417438D01*
X152523810Y-114417438D02*
X152619048Y-114369819D01*
X152619048Y-114369819D02*
X152857143Y-114369819D01*
X152857143Y-114369819D02*
X152952381Y-114417438D01*
X152952381Y-114417438D02*
X153000000Y-114465057D01*
X153000000Y-114465057D02*
X153047619Y-114560295D01*
X153047619Y-114560295D02*
X153047619Y-114655533D01*
X153047619Y-114655533D02*
X153000000Y-114798390D01*
X153000000Y-114798390D02*
X152428572Y-115369819D01*
X152428572Y-115369819D02*
X153047619Y-115369819D01*
X153904762Y-114703152D02*
X153904762Y-115369819D01*
X153666667Y-114322200D02*
X153428572Y-115036485D01*
X153428572Y-115036485D02*
X154047619Y-115036485D01*
X127488095Y-98954819D02*
X128059523Y-98954819D01*
X127773809Y-99954819D02*
X127773809Y-98954819D01*
X128392857Y-99954819D02*
X128392857Y-98954819D01*
X128392857Y-98954819D02*
X128773809Y-98954819D01*
X128773809Y-98954819D02*
X128869047Y-99002438D01*
X128869047Y-99002438D02*
X128916666Y-99050057D01*
X128916666Y-99050057D02*
X128964285Y-99145295D01*
X128964285Y-99145295D02*
X128964285Y-99288152D01*
X128964285Y-99288152D02*
X128916666Y-99383390D01*
X128916666Y-99383390D02*
X128869047Y-99431009D01*
X128869047Y-99431009D02*
X128773809Y-99478628D01*
X128773809Y-99478628D02*
X128392857Y-99478628D01*
X129440476Y-99954819D02*
X129630952Y-99954819D01*
X129630952Y-99954819D02*
X129726190Y-99907200D01*
X129726190Y-99907200D02*
X129773809Y-99859580D01*
X129773809Y-99859580D02*
X129869047Y-99716723D01*
X129869047Y-99716723D02*
X129916666Y-99526247D01*
X129916666Y-99526247D02*
X129916666Y-99145295D01*
X129916666Y-99145295D02*
X129869047Y-99050057D01*
X129869047Y-99050057D02*
X129821428Y-99002438D01*
X129821428Y-99002438D02*
X129726190Y-98954819D01*
X129726190Y-98954819D02*
X129535714Y-98954819D01*
X129535714Y-98954819D02*
X129440476Y-99002438D01*
X129440476Y-99002438D02*
X129392857Y-99050057D01*
X129392857Y-99050057D02*
X129345238Y-99145295D01*
X129345238Y-99145295D02*
X129345238Y-99383390D01*
X129345238Y-99383390D02*
X129392857Y-99478628D01*
X129392857Y-99478628D02*
X129440476Y-99526247D01*
X129440476Y-99526247D02*
X129535714Y-99573866D01*
X129535714Y-99573866D02*
X129726190Y-99573866D01*
X129726190Y-99573866D02*
X129821428Y-99526247D01*
X129821428Y-99526247D02*
X129869047Y-99478628D01*
X129869047Y-99478628D02*
X129916666Y-99383390D01*
X140530476Y-52454819D02*
X140530476Y-53169104D01*
X140530476Y-53169104D02*
X140482857Y-53311961D01*
X140482857Y-53311961D02*
X140387619Y-53407200D01*
X140387619Y-53407200D02*
X140244762Y-53454819D01*
X140244762Y-53454819D02*
X140149524Y-53454819D01*
X141530476Y-53454819D02*
X140959048Y-53454819D01*
X141244762Y-53454819D02*
X141244762Y-52454819D01*
X141244762Y-52454819D02*
X141149524Y-52597676D01*
X141149524Y-52597676D02*
X141054286Y-52692914D01*
X141054286Y-52692914D02*
X140959048Y-52740533D01*
X142149524Y-52454819D02*
X142244762Y-52454819D01*
X142244762Y-52454819D02*
X142340000Y-52502438D01*
X142340000Y-52502438D02*
X142387619Y-52550057D01*
X142387619Y-52550057D02*
X142435238Y-52645295D01*
X142435238Y-52645295D02*
X142482857Y-52835771D01*
X142482857Y-52835771D02*
X142482857Y-53073866D01*
X142482857Y-53073866D02*
X142435238Y-53264342D01*
X142435238Y-53264342D02*
X142387619Y-53359580D01*
X142387619Y-53359580D02*
X142340000Y-53407200D01*
X142340000Y-53407200D02*
X142244762Y-53454819D01*
X142244762Y-53454819D02*
X142149524Y-53454819D01*
X142149524Y-53454819D02*
X142054286Y-53407200D01*
X142054286Y-53407200D02*
X142006667Y-53359580D01*
X142006667Y-53359580D02*
X141959048Y-53264342D01*
X141959048Y-53264342D02*
X141911429Y-53073866D01*
X141911429Y-53073866D02*
X141911429Y-52835771D01*
X141911429Y-52835771D02*
X141959048Y-52645295D01*
X141959048Y-52645295D02*
X142006667Y-52550057D01*
X142006667Y-52550057D02*
X142054286Y-52502438D01*
X142054286Y-52502438D02*
X142149524Y-52454819D01*
X161464819Y-80357023D02*
X162179104Y-80357023D01*
X162179104Y-80357023D02*
X162321961Y-80404642D01*
X162321961Y-80404642D02*
X162417200Y-80499880D01*
X162417200Y-80499880D02*
X162464819Y-80642737D01*
X162464819Y-80642737D02*
X162464819Y-80737975D01*
X162464819Y-79357023D02*
X162464819Y-79928451D01*
X162464819Y-79642737D02*
X161464819Y-79642737D01*
X161464819Y-79642737D02*
X161607676Y-79737975D01*
X161607676Y-79737975D02*
X161702914Y-79833213D01*
X161702914Y-79833213D02*
X161750533Y-79928451D01*
X161560057Y-78976070D02*
X161512438Y-78928451D01*
X161512438Y-78928451D02*
X161464819Y-78833213D01*
X161464819Y-78833213D02*
X161464819Y-78595118D01*
X161464819Y-78595118D02*
X161512438Y-78499880D01*
X161512438Y-78499880D02*
X161560057Y-78452261D01*
X161560057Y-78452261D02*
X161655295Y-78404642D01*
X161655295Y-78404642D02*
X161750533Y-78404642D01*
X161750533Y-78404642D02*
X161893390Y-78452261D01*
X161893390Y-78452261D02*
X162464819Y-79023689D01*
X162464819Y-79023689D02*
X162464819Y-78404642D01*
X131064819Y-95756666D02*
X130588628Y-96089999D01*
X131064819Y-96328094D02*
X130064819Y-96328094D01*
X130064819Y-96328094D02*
X130064819Y-95947142D01*
X130064819Y-95947142D02*
X130112438Y-95851904D01*
X130112438Y-95851904D02*
X130160057Y-95804285D01*
X130160057Y-95804285D02*
X130255295Y-95756666D01*
X130255295Y-95756666D02*
X130398152Y-95756666D01*
X130398152Y-95756666D02*
X130493390Y-95804285D01*
X130493390Y-95804285D02*
X130541009Y-95851904D01*
X130541009Y-95851904D02*
X130588628Y-95947142D01*
X130588628Y-95947142D02*
X130588628Y-96328094D01*
X131064819Y-94804285D02*
X131064819Y-95375713D01*
X131064819Y-95089999D02*
X130064819Y-95089999D01*
X130064819Y-95089999D02*
X130207676Y-95185237D01*
X130207676Y-95185237D02*
X130302914Y-95280475D01*
X130302914Y-95280475D02*
X130350533Y-95375713D01*
X146793333Y-67534819D02*
X146460000Y-67058628D01*
X146221905Y-67534819D02*
X146221905Y-66534819D01*
X146221905Y-66534819D02*
X146602857Y-66534819D01*
X146602857Y-66534819D02*
X146698095Y-66582438D01*
X146698095Y-66582438D02*
X146745714Y-66630057D01*
X146745714Y-66630057D02*
X146793333Y-66725295D01*
X146793333Y-66725295D02*
X146793333Y-66868152D01*
X146793333Y-66868152D02*
X146745714Y-66963390D01*
X146745714Y-66963390D02*
X146698095Y-67011009D01*
X146698095Y-67011009D02*
X146602857Y-67058628D01*
X146602857Y-67058628D02*
X146221905Y-67058628D01*
X147269524Y-67534819D02*
X147460000Y-67534819D01*
X147460000Y-67534819D02*
X147555238Y-67487200D01*
X147555238Y-67487200D02*
X147602857Y-67439580D01*
X147602857Y-67439580D02*
X147698095Y-67296723D01*
X147698095Y-67296723D02*
X147745714Y-67106247D01*
X147745714Y-67106247D02*
X147745714Y-66725295D01*
X147745714Y-66725295D02*
X147698095Y-66630057D01*
X147698095Y-66630057D02*
X147650476Y-66582438D01*
X147650476Y-66582438D02*
X147555238Y-66534819D01*
X147555238Y-66534819D02*
X147364762Y-66534819D01*
X147364762Y-66534819D02*
X147269524Y-66582438D01*
X147269524Y-66582438D02*
X147221905Y-66630057D01*
X147221905Y-66630057D02*
X147174286Y-66725295D01*
X147174286Y-66725295D02*
X147174286Y-66963390D01*
X147174286Y-66963390D02*
X147221905Y-67058628D01*
X147221905Y-67058628D02*
X147269524Y-67106247D01*
X147269524Y-67106247D02*
X147364762Y-67153866D01*
X147364762Y-67153866D02*
X147555238Y-67153866D01*
X147555238Y-67153866D02*
X147650476Y-67106247D01*
X147650476Y-67106247D02*
X147698095Y-67058628D01*
X147698095Y-67058628D02*
X147745714Y-66963390D01*
X69858095Y-116204819D02*
X70429523Y-116204819D01*
X70143809Y-117204819D02*
X70143809Y-116204819D01*
X70762857Y-117204819D02*
X70762857Y-116204819D01*
X70762857Y-116204819D02*
X71143809Y-116204819D01*
X71143809Y-116204819D02*
X71239047Y-116252438D01*
X71239047Y-116252438D02*
X71286666Y-116300057D01*
X71286666Y-116300057D02*
X71334285Y-116395295D01*
X71334285Y-116395295D02*
X71334285Y-116538152D01*
X71334285Y-116538152D02*
X71286666Y-116633390D01*
X71286666Y-116633390D02*
X71239047Y-116681009D01*
X71239047Y-116681009D02*
X71143809Y-116728628D01*
X71143809Y-116728628D02*
X70762857Y-116728628D01*
X72191428Y-116204819D02*
X72000952Y-116204819D01*
X72000952Y-116204819D02*
X71905714Y-116252438D01*
X71905714Y-116252438D02*
X71858095Y-116300057D01*
X71858095Y-116300057D02*
X71762857Y-116442914D01*
X71762857Y-116442914D02*
X71715238Y-116633390D01*
X71715238Y-116633390D02*
X71715238Y-117014342D01*
X71715238Y-117014342D02*
X71762857Y-117109580D01*
X71762857Y-117109580D02*
X71810476Y-117157200D01*
X71810476Y-117157200D02*
X71905714Y-117204819D01*
X71905714Y-117204819D02*
X72096190Y-117204819D01*
X72096190Y-117204819D02*
X72191428Y-117157200D01*
X72191428Y-117157200D02*
X72239047Y-117109580D01*
X72239047Y-117109580D02*
X72286666Y-117014342D01*
X72286666Y-117014342D02*
X72286666Y-116776247D01*
X72286666Y-116776247D02*
X72239047Y-116681009D01*
X72239047Y-116681009D02*
X72191428Y-116633390D01*
X72191428Y-116633390D02*
X72096190Y-116585771D01*
X72096190Y-116585771D02*
X71905714Y-116585771D01*
X71905714Y-116585771D02*
X71810476Y-116633390D01*
X71810476Y-116633390D02*
X71762857Y-116681009D01*
X71762857Y-116681009D02*
X71715238Y-116776247D01*
X149050057Y-54735238D02*
X149002438Y-54830476D01*
X149002438Y-54830476D02*
X148907200Y-54925714D01*
X148907200Y-54925714D02*
X148764342Y-55068571D01*
X148764342Y-55068571D02*
X148716723Y-55163809D01*
X148716723Y-55163809D02*
X148716723Y-55259047D01*
X148954819Y-55211428D02*
X148907200Y-55306666D01*
X148907200Y-55306666D02*
X148811961Y-55401904D01*
X148811961Y-55401904D02*
X148621485Y-55449523D01*
X148621485Y-55449523D02*
X148288152Y-55449523D01*
X148288152Y-55449523D02*
X148097676Y-55401904D01*
X148097676Y-55401904D02*
X148002438Y-55306666D01*
X148002438Y-55306666D02*
X147954819Y-55211428D01*
X147954819Y-55211428D02*
X147954819Y-55020952D01*
X147954819Y-55020952D02*
X148002438Y-54925714D01*
X148002438Y-54925714D02*
X148097676Y-54830476D01*
X148097676Y-54830476D02*
X148288152Y-54782857D01*
X148288152Y-54782857D02*
X148621485Y-54782857D01*
X148621485Y-54782857D02*
X148811961Y-54830476D01*
X148811961Y-54830476D02*
X148907200Y-54925714D01*
X148907200Y-54925714D02*
X148954819Y-55020952D01*
X148954819Y-55020952D02*
X148954819Y-55211428D01*
X148954819Y-53830476D02*
X148954819Y-54401904D01*
X148954819Y-54116190D02*
X147954819Y-54116190D01*
X147954819Y-54116190D02*
X148097676Y-54211428D01*
X148097676Y-54211428D02*
X148192914Y-54306666D01*
X148192914Y-54306666D02*
X148240533Y-54401904D01*
X75238095Y-116152319D02*
X75809523Y-116152319D01*
X75523809Y-117152319D02*
X75523809Y-116152319D01*
X76142857Y-117152319D02*
X76142857Y-116152319D01*
X76142857Y-116152319D02*
X76523809Y-116152319D01*
X76523809Y-116152319D02*
X76619047Y-116199938D01*
X76619047Y-116199938D02*
X76666666Y-116247557D01*
X76666666Y-116247557D02*
X76714285Y-116342795D01*
X76714285Y-116342795D02*
X76714285Y-116485652D01*
X76714285Y-116485652D02*
X76666666Y-116580890D01*
X76666666Y-116580890D02*
X76619047Y-116628509D01*
X76619047Y-116628509D02*
X76523809Y-116676128D01*
X76523809Y-116676128D02*
X76142857Y-116676128D01*
X77619047Y-116152319D02*
X77142857Y-116152319D01*
X77142857Y-116152319D02*
X77095238Y-116628509D01*
X77095238Y-116628509D02*
X77142857Y-116580890D01*
X77142857Y-116580890D02*
X77238095Y-116533271D01*
X77238095Y-116533271D02*
X77476190Y-116533271D01*
X77476190Y-116533271D02*
X77571428Y-116580890D01*
X77571428Y-116580890D02*
X77619047Y-116628509D01*
X77619047Y-116628509D02*
X77666666Y-116723747D01*
X77666666Y-116723747D02*
X77666666Y-116961842D01*
X77666666Y-116961842D02*
X77619047Y-117057080D01*
X77619047Y-117057080D02*
X77571428Y-117104700D01*
X77571428Y-117104700D02*
X77476190Y-117152319D01*
X77476190Y-117152319D02*
X77238095Y-117152319D01*
X77238095Y-117152319D02*
X77142857Y-117104700D01*
X77142857Y-117104700D02*
X77095238Y-117057080D01*
X124083333Y-92634819D02*
X123750000Y-92158628D01*
X123511905Y-92634819D02*
X123511905Y-91634819D01*
X123511905Y-91634819D02*
X123892857Y-91634819D01*
X123892857Y-91634819D02*
X123988095Y-91682438D01*
X123988095Y-91682438D02*
X124035714Y-91730057D01*
X124035714Y-91730057D02*
X124083333Y-91825295D01*
X124083333Y-91825295D02*
X124083333Y-91968152D01*
X124083333Y-91968152D02*
X124035714Y-92063390D01*
X124035714Y-92063390D02*
X123988095Y-92111009D01*
X123988095Y-92111009D02*
X123892857Y-92158628D01*
X123892857Y-92158628D02*
X123511905Y-92158628D01*
X124988095Y-91634819D02*
X124511905Y-91634819D01*
X124511905Y-91634819D02*
X124464286Y-92111009D01*
X124464286Y-92111009D02*
X124511905Y-92063390D01*
X124511905Y-92063390D02*
X124607143Y-92015771D01*
X124607143Y-92015771D02*
X124845238Y-92015771D01*
X124845238Y-92015771D02*
X124940476Y-92063390D01*
X124940476Y-92063390D02*
X124988095Y-92111009D01*
X124988095Y-92111009D02*
X125035714Y-92206247D01*
X125035714Y-92206247D02*
X125035714Y-92444342D01*
X125035714Y-92444342D02*
X124988095Y-92539580D01*
X124988095Y-92539580D02*
X124940476Y-92587200D01*
X124940476Y-92587200D02*
X124845238Y-92634819D01*
X124845238Y-92634819D02*
X124607143Y-92634819D01*
X124607143Y-92634819D02*
X124511905Y-92587200D01*
X124511905Y-92587200D02*
X124464286Y-92539580D01*
X138534819Y-90166666D02*
X138058628Y-90499999D01*
X138534819Y-90738094D02*
X137534819Y-90738094D01*
X137534819Y-90738094D02*
X137534819Y-90357142D01*
X137534819Y-90357142D02*
X137582438Y-90261904D01*
X137582438Y-90261904D02*
X137630057Y-90214285D01*
X137630057Y-90214285D02*
X137725295Y-90166666D01*
X137725295Y-90166666D02*
X137868152Y-90166666D01*
X137868152Y-90166666D02*
X137963390Y-90214285D01*
X137963390Y-90214285D02*
X138011009Y-90261904D01*
X138011009Y-90261904D02*
X138058628Y-90357142D01*
X138058628Y-90357142D02*
X138058628Y-90738094D01*
X137963390Y-89595237D02*
X137915771Y-89690475D01*
X137915771Y-89690475D02*
X137868152Y-89738094D01*
X137868152Y-89738094D02*
X137772914Y-89785713D01*
X137772914Y-89785713D02*
X137725295Y-89785713D01*
X137725295Y-89785713D02*
X137630057Y-89738094D01*
X137630057Y-89738094D02*
X137582438Y-89690475D01*
X137582438Y-89690475D02*
X137534819Y-89595237D01*
X137534819Y-89595237D02*
X137534819Y-89404761D01*
X137534819Y-89404761D02*
X137582438Y-89309523D01*
X137582438Y-89309523D02*
X137630057Y-89261904D01*
X137630057Y-89261904D02*
X137725295Y-89214285D01*
X137725295Y-89214285D02*
X137772914Y-89214285D01*
X137772914Y-89214285D02*
X137868152Y-89261904D01*
X137868152Y-89261904D02*
X137915771Y-89309523D01*
X137915771Y-89309523D02*
X137963390Y-89404761D01*
X137963390Y-89404761D02*
X137963390Y-89595237D01*
X137963390Y-89595237D02*
X138011009Y-89690475D01*
X138011009Y-89690475D02*
X138058628Y-89738094D01*
X138058628Y-89738094D02*
X138153866Y-89785713D01*
X138153866Y-89785713D02*
X138344342Y-89785713D01*
X138344342Y-89785713D02*
X138439580Y-89738094D01*
X138439580Y-89738094D02*
X138487200Y-89690475D01*
X138487200Y-89690475D02*
X138534819Y-89595237D01*
X138534819Y-89595237D02*
X138534819Y-89404761D01*
X138534819Y-89404761D02*
X138487200Y-89309523D01*
X138487200Y-89309523D02*
X138439580Y-89261904D01*
X138439580Y-89261904D02*
X138344342Y-89214285D01*
X138344342Y-89214285D02*
X138153866Y-89214285D01*
X138153866Y-89214285D02*
X138058628Y-89261904D01*
X138058628Y-89261904D02*
X138011009Y-89309523D01*
X138011009Y-89309523D02*
X137963390Y-89404761D01*
X130696666Y-110217319D02*
X130696666Y-110931604D01*
X130696666Y-110931604D02*
X130649047Y-111074461D01*
X130649047Y-111074461D02*
X130553809Y-111169700D01*
X130553809Y-111169700D02*
X130410952Y-111217319D01*
X130410952Y-111217319D02*
X130315714Y-111217319D01*
X131601428Y-110217319D02*
X131410952Y-110217319D01*
X131410952Y-110217319D02*
X131315714Y-110264938D01*
X131315714Y-110264938D02*
X131268095Y-110312557D01*
X131268095Y-110312557D02*
X131172857Y-110455414D01*
X131172857Y-110455414D02*
X131125238Y-110645890D01*
X131125238Y-110645890D02*
X131125238Y-111026842D01*
X131125238Y-111026842D02*
X131172857Y-111122080D01*
X131172857Y-111122080D02*
X131220476Y-111169700D01*
X131220476Y-111169700D02*
X131315714Y-111217319D01*
X131315714Y-111217319D02*
X131506190Y-111217319D01*
X131506190Y-111217319D02*
X131601428Y-111169700D01*
X131601428Y-111169700D02*
X131649047Y-111122080D01*
X131649047Y-111122080D02*
X131696666Y-111026842D01*
X131696666Y-111026842D02*
X131696666Y-110788747D01*
X131696666Y-110788747D02*
X131649047Y-110693509D01*
X131649047Y-110693509D02*
X131601428Y-110645890D01*
X131601428Y-110645890D02*
X131506190Y-110598271D01*
X131506190Y-110598271D02*
X131315714Y-110598271D01*
X131315714Y-110598271D02*
X131220476Y-110645890D01*
X131220476Y-110645890D02*
X131172857Y-110693509D01*
X131172857Y-110693509D02*
X131125238Y-110788747D01*
X127753333Y-65864819D02*
X127420000Y-65388628D01*
X127181905Y-65864819D02*
X127181905Y-64864819D01*
X127181905Y-64864819D02*
X127562857Y-64864819D01*
X127562857Y-64864819D02*
X127658095Y-64912438D01*
X127658095Y-64912438D02*
X127705714Y-64960057D01*
X127705714Y-64960057D02*
X127753333Y-65055295D01*
X127753333Y-65055295D02*
X127753333Y-65198152D01*
X127753333Y-65198152D02*
X127705714Y-65293390D01*
X127705714Y-65293390D02*
X127658095Y-65341009D01*
X127658095Y-65341009D02*
X127562857Y-65388628D01*
X127562857Y-65388628D02*
X127181905Y-65388628D01*
X128086667Y-64864819D02*
X128753333Y-64864819D01*
X128753333Y-64864819D02*
X128324762Y-65864819D01*
X80243095Y-79257319D02*
X80814523Y-79257319D01*
X80528809Y-80257319D02*
X80528809Y-79257319D01*
X81147857Y-80257319D02*
X81147857Y-79257319D01*
X81147857Y-79257319D02*
X81528809Y-79257319D01*
X81528809Y-79257319D02*
X81624047Y-79304938D01*
X81624047Y-79304938D02*
X81671666Y-79352557D01*
X81671666Y-79352557D02*
X81719285Y-79447795D01*
X81719285Y-79447795D02*
X81719285Y-79590652D01*
X81719285Y-79590652D02*
X81671666Y-79685890D01*
X81671666Y-79685890D02*
X81624047Y-79733509D01*
X81624047Y-79733509D02*
X81528809Y-79781128D01*
X81528809Y-79781128D02*
X81147857Y-79781128D01*
X82290714Y-79685890D02*
X82195476Y-79638271D01*
X82195476Y-79638271D02*
X82147857Y-79590652D01*
X82147857Y-79590652D02*
X82100238Y-79495414D01*
X82100238Y-79495414D02*
X82100238Y-79447795D01*
X82100238Y-79447795D02*
X82147857Y-79352557D01*
X82147857Y-79352557D02*
X82195476Y-79304938D01*
X82195476Y-79304938D02*
X82290714Y-79257319D01*
X82290714Y-79257319D02*
X82481190Y-79257319D01*
X82481190Y-79257319D02*
X82576428Y-79304938D01*
X82576428Y-79304938D02*
X82624047Y-79352557D01*
X82624047Y-79352557D02*
X82671666Y-79447795D01*
X82671666Y-79447795D02*
X82671666Y-79495414D01*
X82671666Y-79495414D02*
X82624047Y-79590652D01*
X82624047Y-79590652D02*
X82576428Y-79638271D01*
X82576428Y-79638271D02*
X82481190Y-79685890D01*
X82481190Y-79685890D02*
X82290714Y-79685890D01*
X82290714Y-79685890D02*
X82195476Y-79733509D01*
X82195476Y-79733509D02*
X82147857Y-79781128D01*
X82147857Y-79781128D02*
X82100238Y-79876366D01*
X82100238Y-79876366D02*
X82100238Y-80066842D01*
X82100238Y-80066842D02*
X82147857Y-80162080D01*
X82147857Y-80162080D02*
X82195476Y-80209700D01*
X82195476Y-80209700D02*
X82290714Y-80257319D01*
X82290714Y-80257319D02*
X82481190Y-80257319D01*
X82481190Y-80257319D02*
X82576428Y-80209700D01*
X82576428Y-80209700D02*
X82624047Y-80162080D01*
X82624047Y-80162080D02*
X82671666Y-80066842D01*
X82671666Y-80066842D02*
X82671666Y-79876366D01*
X82671666Y-79876366D02*
X82624047Y-79781128D01*
X82624047Y-79781128D02*
X82576428Y-79733509D01*
X82576428Y-79733509D02*
X82481190Y-79685890D01*
X125166666Y-59007319D02*
X125166666Y-59721604D01*
X125166666Y-59721604D02*
X125119047Y-59864461D01*
X125119047Y-59864461D02*
X125023809Y-59959700D01*
X125023809Y-59959700D02*
X124880952Y-60007319D01*
X124880952Y-60007319D02*
X124785714Y-60007319D01*
X125547619Y-59007319D02*
X126214285Y-59007319D01*
X126214285Y-59007319D02*
X125785714Y-60007319D01*
X109923333Y-71454819D02*
X109590000Y-70978628D01*
X109351905Y-71454819D02*
X109351905Y-70454819D01*
X109351905Y-70454819D02*
X109732857Y-70454819D01*
X109732857Y-70454819D02*
X109828095Y-70502438D01*
X109828095Y-70502438D02*
X109875714Y-70550057D01*
X109875714Y-70550057D02*
X109923333Y-70645295D01*
X109923333Y-70645295D02*
X109923333Y-70788152D01*
X109923333Y-70788152D02*
X109875714Y-70883390D01*
X109875714Y-70883390D02*
X109828095Y-70931009D01*
X109828095Y-70931009D02*
X109732857Y-70978628D01*
X109732857Y-70978628D02*
X109351905Y-70978628D01*
X110780476Y-70454819D02*
X110590000Y-70454819D01*
X110590000Y-70454819D02*
X110494762Y-70502438D01*
X110494762Y-70502438D02*
X110447143Y-70550057D01*
X110447143Y-70550057D02*
X110351905Y-70692914D01*
X110351905Y-70692914D02*
X110304286Y-70883390D01*
X110304286Y-70883390D02*
X110304286Y-71264342D01*
X110304286Y-71264342D02*
X110351905Y-71359580D01*
X110351905Y-71359580D02*
X110399524Y-71407200D01*
X110399524Y-71407200D02*
X110494762Y-71454819D01*
X110494762Y-71454819D02*
X110685238Y-71454819D01*
X110685238Y-71454819D02*
X110780476Y-71407200D01*
X110780476Y-71407200D02*
X110828095Y-71359580D01*
X110828095Y-71359580D02*
X110875714Y-71264342D01*
X110875714Y-71264342D02*
X110875714Y-71026247D01*
X110875714Y-71026247D02*
X110828095Y-70931009D01*
X110828095Y-70931009D02*
X110780476Y-70883390D01*
X110780476Y-70883390D02*
X110685238Y-70835771D01*
X110685238Y-70835771D02*
X110494762Y-70835771D01*
X110494762Y-70835771D02*
X110399524Y-70883390D01*
X110399524Y-70883390D02*
X110351905Y-70931009D01*
X110351905Y-70931009D02*
X110304286Y-71026247D01*
X80243095Y-67757319D02*
X80814523Y-67757319D01*
X80528809Y-68757319D02*
X80528809Y-67757319D01*
X81147857Y-68757319D02*
X81147857Y-67757319D01*
X81147857Y-67757319D02*
X81528809Y-67757319D01*
X81528809Y-67757319D02*
X81624047Y-67804938D01*
X81624047Y-67804938D02*
X81671666Y-67852557D01*
X81671666Y-67852557D02*
X81719285Y-67947795D01*
X81719285Y-67947795D02*
X81719285Y-68090652D01*
X81719285Y-68090652D02*
X81671666Y-68185890D01*
X81671666Y-68185890D02*
X81624047Y-68233509D01*
X81624047Y-68233509D02*
X81528809Y-68281128D01*
X81528809Y-68281128D02*
X81147857Y-68281128D01*
X82671666Y-68757319D02*
X82100238Y-68757319D01*
X82385952Y-68757319D02*
X82385952Y-67757319D01*
X82385952Y-67757319D02*
X82290714Y-67900176D01*
X82290714Y-67900176D02*
X82195476Y-67995414D01*
X82195476Y-67995414D02*
X82100238Y-68043033D01*
X161304819Y-68457023D02*
X162019104Y-68457023D01*
X162019104Y-68457023D02*
X162161961Y-68504642D01*
X162161961Y-68504642D02*
X162257200Y-68599880D01*
X162257200Y-68599880D02*
X162304819Y-68742737D01*
X162304819Y-68742737D02*
X162304819Y-68837975D01*
X162304819Y-67457023D02*
X162304819Y-68028451D01*
X162304819Y-67742737D02*
X161304819Y-67742737D01*
X161304819Y-67742737D02*
X161447676Y-67837975D01*
X161447676Y-67837975D02*
X161542914Y-67933213D01*
X161542914Y-67933213D02*
X161590533Y-68028451D01*
X162304819Y-66504642D02*
X162304819Y-67076070D01*
X162304819Y-66790356D02*
X161304819Y-66790356D01*
X161304819Y-66790356D02*
X161447676Y-66885594D01*
X161447676Y-66885594D02*
X161542914Y-66980832D01*
X161542914Y-66980832D02*
X161590533Y-67076070D01*
X75279819Y-74756666D02*
X74803628Y-75089999D01*
X75279819Y-75328094D02*
X74279819Y-75328094D01*
X74279819Y-75328094D02*
X74279819Y-74947142D01*
X74279819Y-74947142D02*
X74327438Y-74851904D01*
X74327438Y-74851904D02*
X74375057Y-74804285D01*
X74375057Y-74804285D02*
X74470295Y-74756666D01*
X74470295Y-74756666D02*
X74613152Y-74756666D01*
X74613152Y-74756666D02*
X74708390Y-74804285D01*
X74708390Y-74804285D02*
X74756009Y-74851904D01*
X74756009Y-74851904D02*
X74803628Y-74947142D01*
X74803628Y-74947142D02*
X74803628Y-75328094D01*
X74279819Y-74423332D02*
X74279819Y-73804285D01*
X74279819Y-73804285D02*
X74660771Y-74137618D01*
X74660771Y-74137618D02*
X74660771Y-73994761D01*
X74660771Y-73994761D02*
X74708390Y-73899523D01*
X74708390Y-73899523D02*
X74756009Y-73851904D01*
X74756009Y-73851904D02*
X74851247Y-73804285D01*
X74851247Y-73804285D02*
X75089342Y-73804285D01*
X75089342Y-73804285D02*
X75184580Y-73851904D01*
X75184580Y-73851904D02*
X75232200Y-73899523D01*
X75232200Y-73899523D02*
X75279819Y-73994761D01*
X75279819Y-73994761D02*
X75279819Y-74280475D01*
X75279819Y-74280475D02*
X75232200Y-74375713D01*
X75232200Y-74375713D02*
X75184580Y-74423332D01*
X91014819Y-71465833D02*
X91729104Y-71465833D01*
X91729104Y-71465833D02*
X91871961Y-71513452D01*
X91871961Y-71513452D02*
X91967200Y-71608690D01*
X91967200Y-71608690D02*
X92014819Y-71751547D01*
X92014819Y-71751547D02*
X92014819Y-71846785D01*
X91443390Y-70846785D02*
X91395771Y-70942023D01*
X91395771Y-70942023D02*
X91348152Y-70989642D01*
X91348152Y-70989642D02*
X91252914Y-71037261D01*
X91252914Y-71037261D02*
X91205295Y-71037261D01*
X91205295Y-71037261D02*
X91110057Y-70989642D01*
X91110057Y-70989642D02*
X91062438Y-70942023D01*
X91062438Y-70942023D02*
X91014819Y-70846785D01*
X91014819Y-70846785D02*
X91014819Y-70656309D01*
X91014819Y-70656309D02*
X91062438Y-70561071D01*
X91062438Y-70561071D02*
X91110057Y-70513452D01*
X91110057Y-70513452D02*
X91205295Y-70465833D01*
X91205295Y-70465833D02*
X91252914Y-70465833D01*
X91252914Y-70465833D02*
X91348152Y-70513452D01*
X91348152Y-70513452D02*
X91395771Y-70561071D01*
X91395771Y-70561071D02*
X91443390Y-70656309D01*
X91443390Y-70656309D02*
X91443390Y-70846785D01*
X91443390Y-70846785D02*
X91491009Y-70942023D01*
X91491009Y-70942023D02*
X91538628Y-70989642D01*
X91538628Y-70989642D02*
X91633866Y-71037261D01*
X91633866Y-71037261D02*
X91824342Y-71037261D01*
X91824342Y-71037261D02*
X91919580Y-70989642D01*
X91919580Y-70989642D02*
X91967200Y-70942023D01*
X91967200Y-70942023D02*
X92014819Y-70846785D01*
X92014819Y-70846785D02*
X92014819Y-70656309D01*
X92014819Y-70656309D02*
X91967200Y-70561071D01*
X91967200Y-70561071D02*
X91919580Y-70513452D01*
X91919580Y-70513452D02*
X91824342Y-70465833D01*
X91824342Y-70465833D02*
X91633866Y-70465833D01*
X91633866Y-70465833D02*
X91538628Y-70513452D01*
X91538628Y-70513452D02*
X91491009Y-70561071D01*
X91491009Y-70561071D02*
X91443390Y-70656309D01*
X134534819Y-90682857D02*
X134058628Y-91016190D01*
X134534819Y-91254285D02*
X133534819Y-91254285D01*
X133534819Y-91254285D02*
X133534819Y-90873333D01*
X133534819Y-90873333D02*
X133582438Y-90778095D01*
X133582438Y-90778095D02*
X133630057Y-90730476D01*
X133630057Y-90730476D02*
X133725295Y-90682857D01*
X133725295Y-90682857D02*
X133868152Y-90682857D01*
X133868152Y-90682857D02*
X133963390Y-90730476D01*
X133963390Y-90730476D02*
X134011009Y-90778095D01*
X134011009Y-90778095D02*
X134058628Y-90873333D01*
X134058628Y-90873333D02*
X134058628Y-91254285D01*
X134534819Y-89730476D02*
X134534819Y-90301904D01*
X134534819Y-90016190D02*
X133534819Y-90016190D01*
X133534819Y-90016190D02*
X133677676Y-90111428D01*
X133677676Y-90111428D02*
X133772914Y-90206666D01*
X133772914Y-90206666D02*
X133820533Y-90301904D01*
X133534819Y-89111428D02*
X133534819Y-89016190D01*
X133534819Y-89016190D02*
X133582438Y-88920952D01*
X133582438Y-88920952D02*
X133630057Y-88873333D01*
X133630057Y-88873333D02*
X133725295Y-88825714D01*
X133725295Y-88825714D02*
X133915771Y-88778095D01*
X133915771Y-88778095D02*
X134153866Y-88778095D01*
X134153866Y-88778095D02*
X134344342Y-88825714D01*
X134344342Y-88825714D02*
X134439580Y-88873333D01*
X134439580Y-88873333D02*
X134487200Y-88920952D01*
X134487200Y-88920952D02*
X134534819Y-89016190D01*
X134534819Y-89016190D02*
X134534819Y-89111428D01*
X134534819Y-89111428D02*
X134487200Y-89206666D01*
X134487200Y-89206666D02*
X134439580Y-89254285D01*
X134439580Y-89254285D02*
X134344342Y-89301904D01*
X134344342Y-89301904D02*
X134153866Y-89349523D01*
X134153866Y-89349523D02*
X133915771Y-89349523D01*
X133915771Y-89349523D02*
X133725295Y-89301904D01*
X133725295Y-89301904D02*
X133630057Y-89254285D01*
X133630057Y-89254285D02*
X133582438Y-89206666D01*
X133582438Y-89206666D02*
X133534819Y-89111428D01*
X75076666Y-52927319D02*
X75076666Y-53641604D01*
X75076666Y-53641604D02*
X75029047Y-53784461D01*
X75029047Y-53784461D02*
X74933809Y-53879700D01*
X74933809Y-53879700D02*
X74790952Y-53927319D01*
X74790952Y-53927319D02*
X74695714Y-53927319D01*
X75981428Y-53260652D02*
X75981428Y-53927319D01*
X75743333Y-52879700D02*
X75505238Y-53593985D01*
X75505238Y-53593985D02*
X76124285Y-53593985D01*
X145454819Y-79844523D02*
X146169104Y-79844523D01*
X146169104Y-79844523D02*
X146311961Y-79892142D01*
X146311961Y-79892142D02*
X146407200Y-79987380D01*
X146407200Y-79987380D02*
X146454819Y-80130237D01*
X146454819Y-80130237D02*
X146454819Y-80225475D01*
X146454819Y-78844523D02*
X146454819Y-79415951D01*
X146454819Y-79130237D02*
X145454819Y-79130237D01*
X145454819Y-79130237D02*
X145597676Y-79225475D01*
X145597676Y-79225475D02*
X145692914Y-79320713D01*
X145692914Y-79320713D02*
X145740533Y-79415951D01*
X145788152Y-77987380D02*
X146454819Y-77987380D01*
X145407200Y-78225475D02*
X146121485Y-78463570D01*
X146121485Y-78463570D02*
X146121485Y-77844523D01*
X84743095Y-79257319D02*
X85314523Y-79257319D01*
X85028809Y-80257319D02*
X85028809Y-79257319D01*
X85647857Y-80257319D02*
X85647857Y-79257319D01*
X85647857Y-79257319D02*
X86028809Y-79257319D01*
X86028809Y-79257319D02*
X86124047Y-79304938D01*
X86124047Y-79304938D02*
X86171666Y-79352557D01*
X86171666Y-79352557D02*
X86219285Y-79447795D01*
X86219285Y-79447795D02*
X86219285Y-79590652D01*
X86219285Y-79590652D02*
X86171666Y-79685890D01*
X86171666Y-79685890D02*
X86124047Y-79733509D01*
X86124047Y-79733509D02*
X86028809Y-79781128D01*
X86028809Y-79781128D02*
X85647857Y-79781128D01*
X86552619Y-79257319D02*
X87219285Y-79257319D01*
X87219285Y-79257319D02*
X86790714Y-80257319D01*
X87671666Y-59007319D02*
X87671666Y-59721604D01*
X87671666Y-59721604D02*
X87624047Y-59864461D01*
X87624047Y-59864461D02*
X87528809Y-59959700D01*
X87528809Y-59959700D02*
X87385952Y-60007319D01*
X87385952Y-60007319D02*
X87290714Y-60007319D01*
X88052619Y-59007319D02*
X88671666Y-59007319D01*
X88671666Y-59007319D02*
X88338333Y-59388271D01*
X88338333Y-59388271D02*
X88481190Y-59388271D01*
X88481190Y-59388271D02*
X88576428Y-59435890D01*
X88576428Y-59435890D02*
X88624047Y-59483509D01*
X88624047Y-59483509D02*
X88671666Y-59578747D01*
X88671666Y-59578747D02*
X88671666Y-59816842D01*
X88671666Y-59816842D02*
X88624047Y-59912080D01*
X88624047Y-59912080D02*
X88576428Y-59959700D01*
X88576428Y-59959700D02*
X88481190Y-60007319D01*
X88481190Y-60007319D02*
X88195476Y-60007319D01*
X88195476Y-60007319D02*
X88100238Y-59959700D01*
X88100238Y-59959700D02*
X88052619Y-59912080D01*
X84743095Y-67757319D02*
X85314523Y-67757319D01*
X85028809Y-68757319D02*
X85028809Y-67757319D01*
X85647857Y-68757319D02*
X85647857Y-67757319D01*
X85647857Y-67757319D02*
X86028809Y-67757319D01*
X86028809Y-67757319D02*
X86124047Y-67804938D01*
X86124047Y-67804938D02*
X86171666Y-67852557D01*
X86171666Y-67852557D02*
X86219285Y-67947795D01*
X86219285Y-67947795D02*
X86219285Y-68090652D01*
X86219285Y-68090652D02*
X86171666Y-68185890D01*
X86171666Y-68185890D02*
X86124047Y-68233509D01*
X86124047Y-68233509D02*
X86028809Y-68281128D01*
X86028809Y-68281128D02*
X85647857Y-68281128D01*
X86600238Y-67852557D02*
X86647857Y-67804938D01*
X86647857Y-67804938D02*
X86743095Y-67757319D01*
X86743095Y-67757319D02*
X86981190Y-67757319D01*
X86981190Y-67757319D02*
X87076428Y-67804938D01*
X87076428Y-67804938D02*
X87124047Y-67852557D01*
X87124047Y-67852557D02*
X87171666Y-67947795D01*
X87171666Y-67947795D02*
X87171666Y-68043033D01*
X87171666Y-68043033D02*
X87124047Y-68185890D01*
X87124047Y-68185890D02*
X86552619Y-68757319D01*
X86552619Y-68757319D02*
X87171666Y-68757319D01*
X154317142Y-87034819D02*
X153983809Y-86558628D01*
X153745714Y-87034819D02*
X153745714Y-86034819D01*
X153745714Y-86034819D02*
X154126666Y-86034819D01*
X154126666Y-86034819D02*
X154221904Y-86082438D01*
X154221904Y-86082438D02*
X154269523Y-86130057D01*
X154269523Y-86130057D02*
X154317142Y-86225295D01*
X154317142Y-86225295D02*
X154317142Y-86368152D01*
X154317142Y-86368152D02*
X154269523Y-86463390D01*
X154269523Y-86463390D02*
X154221904Y-86511009D01*
X154221904Y-86511009D02*
X154126666Y-86558628D01*
X154126666Y-86558628D02*
X153745714Y-86558628D01*
X155269523Y-87034819D02*
X154698095Y-87034819D01*
X154983809Y-87034819D02*
X154983809Y-86034819D01*
X154983809Y-86034819D02*
X154888571Y-86177676D01*
X154888571Y-86177676D02*
X154793333Y-86272914D01*
X154793333Y-86272914D02*
X154698095Y-86320533D01*
X156126666Y-86368152D02*
X156126666Y-87034819D01*
X155888571Y-85987200D02*
X155650476Y-86701485D01*
X155650476Y-86701485D02*
X156269523Y-86701485D01*
X128534819Y-91182857D02*
X128058628Y-91516190D01*
X128534819Y-91754285D02*
X127534819Y-91754285D01*
X127534819Y-91754285D02*
X127534819Y-91373333D01*
X127534819Y-91373333D02*
X127582438Y-91278095D01*
X127582438Y-91278095D02*
X127630057Y-91230476D01*
X127630057Y-91230476D02*
X127725295Y-91182857D01*
X127725295Y-91182857D02*
X127868152Y-91182857D01*
X127868152Y-91182857D02*
X127963390Y-91230476D01*
X127963390Y-91230476D02*
X128011009Y-91278095D01*
X128011009Y-91278095D02*
X128058628Y-91373333D01*
X128058628Y-91373333D02*
X128058628Y-91754285D01*
X128534819Y-90230476D02*
X128534819Y-90801904D01*
X128534819Y-90516190D02*
X127534819Y-90516190D01*
X127534819Y-90516190D02*
X127677676Y-90611428D01*
X127677676Y-90611428D02*
X127772914Y-90706666D01*
X127772914Y-90706666D02*
X127820533Y-90801904D01*
X127534819Y-89897142D02*
X127534819Y-89278095D01*
X127534819Y-89278095D02*
X127915771Y-89611428D01*
X127915771Y-89611428D02*
X127915771Y-89468571D01*
X127915771Y-89468571D02*
X127963390Y-89373333D01*
X127963390Y-89373333D02*
X128011009Y-89325714D01*
X128011009Y-89325714D02*
X128106247Y-89278095D01*
X128106247Y-89278095D02*
X128344342Y-89278095D01*
X128344342Y-89278095D02*
X128439580Y-89325714D01*
X128439580Y-89325714D02*
X128487200Y-89373333D01*
X128487200Y-89373333D02*
X128534819Y-89468571D01*
X128534819Y-89468571D02*
X128534819Y-89754285D01*
X128534819Y-89754285D02*
X128487200Y-89849523D01*
X128487200Y-89849523D02*
X128439580Y-89897142D01*
X123870833Y-101634819D02*
X123537500Y-101158628D01*
X123299405Y-101634819D02*
X123299405Y-100634819D01*
X123299405Y-100634819D02*
X123680357Y-100634819D01*
X123680357Y-100634819D02*
X123775595Y-100682438D01*
X123775595Y-100682438D02*
X123823214Y-100730057D01*
X123823214Y-100730057D02*
X123870833Y-100825295D01*
X123870833Y-100825295D02*
X123870833Y-100968152D01*
X123870833Y-100968152D02*
X123823214Y-101063390D01*
X123823214Y-101063390D02*
X123775595Y-101111009D01*
X123775595Y-101111009D02*
X123680357Y-101158628D01*
X123680357Y-101158628D02*
X123299405Y-101158628D01*
X124251786Y-100730057D02*
X124299405Y-100682438D01*
X124299405Y-100682438D02*
X124394643Y-100634819D01*
X124394643Y-100634819D02*
X124632738Y-100634819D01*
X124632738Y-100634819D02*
X124727976Y-100682438D01*
X124727976Y-100682438D02*
X124775595Y-100730057D01*
X124775595Y-100730057D02*
X124823214Y-100825295D01*
X124823214Y-100825295D02*
X124823214Y-100920533D01*
X124823214Y-100920533D02*
X124775595Y-101063390D01*
X124775595Y-101063390D02*
X124204167Y-101634819D01*
X124204167Y-101634819D02*
X124823214Y-101634819D01*
X155663095Y-81204819D02*
X156234523Y-81204819D01*
X155948809Y-82204819D02*
X155948809Y-81204819D01*
X156567857Y-82204819D02*
X156567857Y-81204819D01*
X156567857Y-81204819D02*
X156948809Y-81204819D01*
X156948809Y-81204819D02*
X157044047Y-81252438D01*
X157044047Y-81252438D02*
X157091666Y-81300057D01*
X157091666Y-81300057D02*
X157139285Y-81395295D01*
X157139285Y-81395295D02*
X157139285Y-81538152D01*
X157139285Y-81538152D02*
X157091666Y-81633390D01*
X157091666Y-81633390D02*
X157044047Y-81681009D01*
X157044047Y-81681009D02*
X156948809Y-81728628D01*
X156948809Y-81728628D02*
X156567857Y-81728628D01*
X157472619Y-81204819D02*
X158091666Y-81204819D01*
X158091666Y-81204819D02*
X157758333Y-81585771D01*
X157758333Y-81585771D02*
X157901190Y-81585771D01*
X157901190Y-81585771D02*
X157996428Y-81633390D01*
X157996428Y-81633390D02*
X158044047Y-81681009D01*
X158044047Y-81681009D02*
X158091666Y-81776247D01*
X158091666Y-81776247D02*
X158091666Y-82014342D01*
X158091666Y-82014342D02*
X158044047Y-82109580D01*
X158044047Y-82109580D02*
X157996428Y-82157200D01*
X157996428Y-82157200D02*
X157901190Y-82204819D01*
X157901190Y-82204819D02*
X157615476Y-82204819D01*
X157615476Y-82204819D02*
X157520238Y-82157200D01*
X157520238Y-82157200D02*
X157472619Y-82109580D01*
X63817142Y-115374819D02*
X63483809Y-114898628D01*
X63245714Y-115374819D02*
X63245714Y-114374819D01*
X63245714Y-114374819D02*
X63626666Y-114374819D01*
X63626666Y-114374819D02*
X63721904Y-114422438D01*
X63721904Y-114422438D02*
X63769523Y-114470057D01*
X63769523Y-114470057D02*
X63817142Y-114565295D01*
X63817142Y-114565295D02*
X63817142Y-114708152D01*
X63817142Y-114708152D02*
X63769523Y-114803390D01*
X63769523Y-114803390D02*
X63721904Y-114851009D01*
X63721904Y-114851009D02*
X63626666Y-114898628D01*
X63626666Y-114898628D02*
X63245714Y-114898628D01*
X64769523Y-115374819D02*
X64198095Y-115374819D01*
X64483809Y-115374819D02*
X64483809Y-114374819D01*
X64483809Y-114374819D02*
X64388571Y-114517676D01*
X64388571Y-114517676D02*
X64293333Y-114612914D01*
X64293333Y-114612914D02*
X64198095Y-114660533D01*
X65150476Y-114470057D02*
X65198095Y-114422438D01*
X65198095Y-114422438D02*
X65293333Y-114374819D01*
X65293333Y-114374819D02*
X65531428Y-114374819D01*
X65531428Y-114374819D02*
X65626666Y-114422438D01*
X65626666Y-114422438D02*
X65674285Y-114470057D01*
X65674285Y-114470057D02*
X65721904Y-114565295D01*
X65721904Y-114565295D02*
X65721904Y-114660533D01*
X65721904Y-114660533D02*
X65674285Y-114803390D01*
X65674285Y-114803390D02*
X65102857Y-115374819D01*
X65102857Y-115374819D02*
X65721904Y-115374819D01*
X113954819Y-68210594D02*
X112954819Y-68210594D01*
X112954819Y-68210594D02*
X112954819Y-67972499D01*
X112954819Y-67972499D02*
X113002438Y-67829642D01*
X113002438Y-67829642D02*
X113097676Y-67734404D01*
X113097676Y-67734404D02*
X113192914Y-67686785D01*
X113192914Y-67686785D02*
X113383390Y-67639166D01*
X113383390Y-67639166D02*
X113526247Y-67639166D01*
X113526247Y-67639166D02*
X113716723Y-67686785D01*
X113716723Y-67686785D02*
X113811961Y-67734404D01*
X113811961Y-67734404D02*
X113907200Y-67829642D01*
X113907200Y-67829642D02*
X113954819Y-67972499D01*
X113954819Y-67972499D02*
X113954819Y-68210594D01*
X113954819Y-66686785D02*
X113954819Y-67258213D01*
X113954819Y-66972499D02*
X112954819Y-66972499D01*
X112954819Y-66972499D02*
X113097676Y-67067737D01*
X113097676Y-67067737D02*
X113192914Y-67162975D01*
X113192914Y-67162975D02*
X113240533Y-67258213D01*
X111854819Y-80394404D02*
X110854819Y-80394404D01*
X111854819Y-79822976D02*
X111283390Y-80251547D01*
X110854819Y-79822976D02*
X111426247Y-80394404D01*
X137514819Y-71965833D02*
X138229104Y-71965833D01*
X138229104Y-71965833D02*
X138371961Y-72013452D01*
X138371961Y-72013452D02*
X138467200Y-72108690D01*
X138467200Y-72108690D02*
X138514819Y-72251547D01*
X138514819Y-72251547D02*
X138514819Y-72346785D01*
X138514819Y-71442023D02*
X138514819Y-71251547D01*
X138514819Y-71251547D02*
X138467200Y-71156309D01*
X138467200Y-71156309D02*
X138419580Y-71108690D01*
X138419580Y-71108690D02*
X138276723Y-71013452D01*
X138276723Y-71013452D02*
X138086247Y-70965833D01*
X138086247Y-70965833D02*
X137705295Y-70965833D01*
X137705295Y-70965833D02*
X137610057Y-71013452D01*
X137610057Y-71013452D02*
X137562438Y-71061071D01*
X137562438Y-71061071D02*
X137514819Y-71156309D01*
X137514819Y-71156309D02*
X137514819Y-71346785D01*
X137514819Y-71346785D02*
X137562438Y-71442023D01*
X137562438Y-71442023D02*
X137610057Y-71489642D01*
X137610057Y-71489642D02*
X137705295Y-71537261D01*
X137705295Y-71537261D02*
X137943390Y-71537261D01*
X137943390Y-71537261D02*
X138038628Y-71489642D01*
X138038628Y-71489642D02*
X138086247Y-71442023D01*
X138086247Y-71442023D02*
X138133866Y-71346785D01*
X138133866Y-71346785D02*
X138133866Y-71156309D01*
X138133866Y-71156309D02*
X138086247Y-71061071D01*
X138086247Y-71061071D02*
X138038628Y-71013452D01*
X138038628Y-71013452D02*
X137943390Y-70965833D01*
X138440057Y-98147738D02*
X138392438Y-98242976D01*
X138392438Y-98242976D02*
X138297200Y-98338214D01*
X138297200Y-98338214D02*
X138154342Y-98481071D01*
X138154342Y-98481071D02*
X138106723Y-98576309D01*
X138106723Y-98576309D02*
X138106723Y-98671547D01*
X138344819Y-98623928D02*
X138297200Y-98719166D01*
X138297200Y-98719166D02*
X138201961Y-98814404D01*
X138201961Y-98814404D02*
X138011485Y-98862023D01*
X138011485Y-98862023D02*
X137678152Y-98862023D01*
X137678152Y-98862023D02*
X137487676Y-98814404D01*
X137487676Y-98814404D02*
X137392438Y-98719166D01*
X137392438Y-98719166D02*
X137344819Y-98623928D01*
X137344819Y-98623928D02*
X137344819Y-98433452D01*
X137344819Y-98433452D02*
X137392438Y-98338214D01*
X137392438Y-98338214D02*
X137487676Y-98242976D01*
X137487676Y-98242976D02*
X137678152Y-98195357D01*
X137678152Y-98195357D02*
X138011485Y-98195357D01*
X138011485Y-98195357D02*
X138201961Y-98242976D01*
X138201961Y-98242976D02*
X138297200Y-98338214D01*
X138297200Y-98338214D02*
X138344819Y-98433452D01*
X138344819Y-98433452D02*
X138344819Y-98623928D01*
X137344819Y-97862023D02*
X137344819Y-97242976D01*
X137344819Y-97242976D02*
X137725771Y-97576309D01*
X137725771Y-97576309D02*
X137725771Y-97433452D01*
X137725771Y-97433452D02*
X137773390Y-97338214D01*
X137773390Y-97338214D02*
X137821009Y-97290595D01*
X137821009Y-97290595D02*
X137916247Y-97242976D01*
X137916247Y-97242976D02*
X138154342Y-97242976D01*
X138154342Y-97242976D02*
X138249580Y-97290595D01*
X138249580Y-97290595D02*
X138297200Y-97338214D01*
X138297200Y-97338214D02*
X138344819Y-97433452D01*
X138344819Y-97433452D02*
X138344819Y-97719166D01*
X138344819Y-97719166D02*
X138297200Y-97814404D01*
X138297200Y-97814404D02*
X138249580Y-97862023D01*
X60999104Y-100606785D02*
X60999104Y-100130595D01*
X61284819Y-100702023D02*
X60284819Y-100368690D01*
X60284819Y-100368690D02*
X61284819Y-100035357D01*
X61284819Y-99178214D02*
X61284819Y-99749642D01*
X61284819Y-99463928D02*
X60284819Y-99463928D01*
X60284819Y-99463928D02*
X60427676Y-99559166D01*
X60427676Y-99559166D02*
X60522914Y-99654404D01*
X60522914Y-99654404D02*
X60570533Y-99749642D01*
X155738095Y-74204819D02*
X156309523Y-74204819D01*
X156023809Y-75204819D02*
X156023809Y-74204819D01*
X156642857Y-75204819D02*
X156642857Y-74204819D01*
X156642857Y-74204819D02*
X157023809Y-74204819D01*
X157023809Y-74204819D02*
X157119047Y-74252438D01*
X157119047Y-74252438D02*
X157166666Y-74300057D01*
X157166666Y-74300057D02*
X157214285Y-74395295D01*
X157214285Y-74395295D02*
X157214285Y-74538152D01*
X157214285Y-74538152D02*
X157166666Y-74633390D01*
X157166666Y-74633390D02*
X157119047Y-74681009D01*
X157119047Y-74681009D02*
X157023809Y-74728628D01*
X157023809Y-74728628D02*
X156642857Y-74728628D01*
X158071428Y-74538152D02*
X158071428Y-75204819D01*
X157833333Y-74157200D02*
X157595238Y-74871485D01*
X157595238Y-74871485D02*
X158214285Y-74871485D01*
X161384819Y-91457023D02*
X162099104Y-91457023D01*
X162099104Y-91457023D02*
X162241961Y-91504642D01*
X162241961Y-91504642D02*
X162337200Y-91599880D01*
X162337200Y-91599880D02*
X162384819Y-91742737D01*
X162384819Y-91742737D02*
X162384819Y-91837975D01*
X162384819Y-90457023D02*
X162384819Y-91028451D01*
X162384819Y-90742737D02*
X161384819Y-90742737D01*
X161384819Y-90742737D02*
X161527676Y-90837975D01*
X161527676Y-90837975D02*
X161622914Y-90933213D01*
X161622914Y-90933213D02*
X161670533Y-91028451D01*
X161384819Y-90123689D02*
X161384819Y-89504642D01*
X161384819Y-89504642D02*
X161765771Y-89837975D01*
X161765771Y-89837975D02*
X161765771Y-89695118D01*
X161765771Y-89695118D02*
X161813390Y-89599880D01*
X161813390Y-89599880D02*
X161861009Y-89552261D01*
X161861009Y-89552261D02*
X161956247Y-89504642D01*
X161956247Y-89504642D02*
X162194342Y-89504642D01*
X162194342Y-89504642D02*
X162289580Y-89552261D01*
X162289580Y-89552261D02*
X162337200Y-89599880D01*
X162337200Y-89599880D02*
X162384819Y-89695118D01*
X162384819Y-89695118D02*
X162384819Y-89980832D01*
X162384819Y-89980832D02*
X162337200Y-90076070D01*
X162337200Y-90076070D02*
X162289580Y-90123689D01*
X112650476Y-50894819D02*
X112650476Y-51609104D01*
X112650476Y-51609104D02*
X112602857Y-51751961D01*
X112602857Y-51751961D02*
X112507619Y-51847200D01*
X112507619Y-51847200D02*
X112364762Y-51894819D01*
X112364762Y-51894819D02*
X112269524Y-51894819D01*
X113650476Y-51894819D02*
X113079048Y-51894819D01*
X113364762Y-51894819D02*
X113364762Y-50894819D01*
X113364762Y-50894819D02*
X113269524Y-51037676D01*
X113269524Y-51037676D02*
X113174286Y-51132914D01*
X113174286Y-51132914D02*
X113079048Y-51180533D01*
X114555238Y-50894819D02*
X114079048Y-50894819D01*
X114079048Y-50894819D02*
X114031429Y-51371009D01*
X114031429Y-51371009D02*
X114079048Y-51323390D01*
X114079048Y-51323390D02*
X114174286Y-51275771D01*
X114174286Y-51275771D02*
X114412381Y-51275771D01*
X114412381Y-51275771D02*
X114507619Y-51323390D01*
X114507619Y-51323390D02*
X114555238Y-51371009D01*
X114555238Y-51371009D02*
X114602857Y-51466247D01*
X114602857Y-51466247D02*
X114602857Y-51704342D01*
X114602857Y-51704342D02*
X114555238Y-51799580D01*
X114555238Y-51799580D02*
X114507619Y-51847200D01*
X114507619Y-51847200D02*
X114412381Y-51894819D01*
X114412381Y-51894819D02*
X114174286Y-51894819D01*
X114174286Y-51894819D02*
X114079048Y-51847200D01*
X114079048Y-51847200D02*
X114031429Y-51799580D01*
X64254819Y-66833333D02*
X64969104Y-66833333D01*
X64969104Y-66833333D02*
X65111961Y-66880952D01*
X65111961Y-66880952D02*
X65207200Y-66976190D01*
X65207200Y-66976190D02*
X65254819Y-67119047D01*
X65254819Y-67119047D02*
X65254819Y-67214285D01*
X65254819Y-65833333D02*
X65254819Y-66404761D01*
X65254819Y-66119047D02*
X64254819Y-66119047D01*
X64254819Y-66119047D02*
X64397676Y-66214285D01*
X64397676Y-66214285D02*
X64492914Y-66309523D01*
X64492914Y-66309523D02*
X64540533Y-66404761D01*
X84121666Y-85507319D02*
X84121666Y-86221604D01*
X84121666Y-86221604D02*
X84074047Y-86364461D01*
X84074047Y-86364461D02*
X83978809Y-86459700D01*
X83978809Y-86459700D02*
X83835952Y-86507319D01*
X83835952Y-86507319D02*
X83740714Y-86507319D01*
X84597857Y-86507319D02*
X84597857Y-85507319D01*
X84597857Y-85507319D02*
X84978809Y-85507319D01*
X84978809Y-85507319D02*
X85074047Y-85554938D01*
X85074047Y-85554938D02*
X85121666Y-85602557D01*
X85121666Y-85602557D02*
X85169285Y-85697795D01*
X85169285Y-85697795D02*
X85169285Y-85840652D01*
X85169285Y-85840652D02*
X85121666Y-85935890D01*
X85121666Y-85935890D02*
X85074047Y-85983509D01*
X85074047Y-85983509D02*
X84978809Y-86031128D01*
X84978809Y-86031128D02*
X84597857Y-86031128D01*
X86121666Y-86507319D02*
X85550238Y-86507319D01*
X85835952Y-86507319D02*
X85835952Y-85507319D01*
X85835952Y-85507319D02*
X85740714Y-85650176D01*
X85740714Y-85650176D02*
X85645476Y-85745414D01*
X85645476Y-85745414D02*
X85550238Y-85793033D01*
X116317142Y-112034819D02*
X115983809Y-111558628D01*
X115745714Y-112034819D02*
X115745714Y-111034819D01*
X115745714Y-111034819D02*
X116126666Y-111034819D01*
X116126666Y-111034819D02*
X116221904Y-111082438D01*
X116221904Y-111082438D02*
X116269523Y-111130057D01*
X116269523Y-111130057D02*
X116317142Y-111225295D01*
X116317142Y-111225295D02*
X116317142Y-111368152D01*
X116317142Y-111368152D02*
X116269523Y-111463390D01*
X116269523Y-111463390D02*
X116221904Y-111511009D01*
X116221904Y-111511009D02*
X116126666Y-111558628D01*
X116126666Y-111558628D02*
X115745714Y-111558628D01*
X117269523Y-112034819D02*
X116698095Y-112034819D01*
X116983809Y-112034819D02*
X116983809Y-111034819D01*
X116983809Y-111034819D02*
X116888571Y-111177676D01*
X116888571Y-111177676D02*
X116793333Y-111272914D01*
X116793333Y-111272914D02*
X116698095Y-111320533D01*
X118221904Y-112034819D02*
X117650476Y-112034819D01*
X117936190Y-112034819D02*
X117936190Y-111034819D01*
X117936190Y-111034819D02*
X117840952Y-111177676D01*
X117840952Y-111177676D02*
X117745714Y-111272914D01*
X117745714Y-111272914D02*
X117650476Y-111320533D01*
X52959819Y-81345833D02*
X53674104Y-81345833D01*
X53674104Y-81345833D02*
X53816961Y-81393452D01*
X53816961Y-81393452D02*
X53912200Y-81488690D01*
X53912200Y-81488690D02*
X53959819Y-81631547D01*
X53959819Y-81631547D02*
X53959819Y-81726785D01*
X52959819Y-80393452D02*
X52959819Y-80869642D01*
X52959819Y-80869642D02*
X53436009Y-80917261D01*
X53436009Y-80917261D02*
X53388390Y-80869642D01*
X53388390Y-80869642D02*
X53340771Y-80774404D01*
X53340771Y-80774404D02*
X53340771Y-80536309D01*
X53340771Y-80536309D02*
X53388390Y-80441071D01*
X53388390Y-80441071D02*
X53436009Y-80393452D01*
X53436009Y-80393452D02*
X53531247Y-80345833D01*
X53531247Y-80345833D02*
X53769342Y-80345833D01*
X53769342Y-80345833D02*
X53864580Y-80393452D01*
X53864580Y-80393452D02*
X53912200Y-80441071D01*
X53912200Y-80441071D02*
X53959819Y-80536309D01*
X53959819Y-80536309D02*
X53959819Y-80774404D01*
X53959819Y-80774404D02*
X53912200Y-80869642D01*
X53912200Y-80869642D02*
X53864580Y-80917261D01*
X99301666Y-59004819D02*
X99301666Y-59719104D01*
X99301666Y-59719104D02*
X99254047Y-59861961D01*
X99254047Y-59861961D02*
X99158809Y-59957200D01*
X99158809Y-59957200D02*
X99015952Y-60004819D01*
X99015952Y-60004819D02*
X98920714Y-60004819D01*
X99730238Y-59100057D02*
X99777857Y-59052438D01*
X99777857Y-59052438D02*
X99873095Y-59004819D01*
X99873095Y-59004819D02*
X100111190Y-59004819D01*
X100111190Y-59004819D02*
X100206428Y-59052438D01*
X100206428Y-59052438D02*
X100254047Y-59100057D01*
X100254047Y-59100057D02*
X100301666Y-59195295D01*
X100301666Y-59195295D02*
X100301666Y-59290533D01*
X100301666Y-59290533D02*
X100254047Y-59433390D01*
X100254047Y-59433390D02*
X99682619Y-60004819D01*
X99682619Y-60004819D02*
X100301666Y-60004819D01*
X75279819Y-81681666D02*
X74803628Y-82014999D01*
X75279819Y-82253094D02*
X74279819Y-82253094D01*
X74279819Y-82253094D02*
X74279819Y-81872142D01*
X74279819Y-81872142D02*
X74327438Y-81776904D01*
X74327438Y-81776904D02*
X74375057Y-81729285D01*
X74375057Y-81729285D02*
X74470295Y-81681666D01*
X74470295Y-81681666D02*
X74613152Y-81681666D01*
X74613152Y-81681666D02*
X74708390Y-81729285D01*
X74708390Y-81729285D02*
X74756009Y-81776904D01*
X74756009Y-81776904D02*
X74803628Y-81872142D01*
X74803628Y-81872142D02*
X74803628Y-82253094D01*
X74613152Y-80824523D02*
X75279819Y-80824523D01*
X74232200Y-81062618D02*
X74946485Y-81300713D01*
X74946485Y-81300713D02*
X74946485Y-80681666D01*
D11*
%TO.C,TP9*%
X130001000Y-97250000D02*
G75*
G02*
X127499000Y-97250000I-1251000J0D01*
G01*
X127499000Y-97250000D02*
G75*
G02*
X130001000Y-97250000I1251000J0D01*
G01*
%TO.C,J10*%
X136080000Y-58060000D02*
X136080000Y-60300000D01*
X136080000Y-60300000D02*
X138080000Y-60300000D01*
X136320000Y-51940000D02*
X136320000Y-60060000D01*
X136320000Y-51940000D02*
X146600000Y-51940000D01*
X136320000Y-54000000D02*
X146600000Y-54000000D01*
X136320000Y-58000000D02*
X146600000Y-58000000D01*
X136320000Y-60060000D02*
X146600000Y-60060000D01*
X142820000Y-56976000D02*
X142726000Y-57069000D01*
X142990000Y-57216000D02*
X142931000Y-57274000D01*
X145070000Y-54725000D02*
X145011000Y-54784000D01*
X145275000Y-54931000D02*
X145181000Y-55024000D01*
X146600000Y-51940000D02*
X146600000Y-60060000D01*
X137436047Y-56789089D02*
G75*
G02*
X137436000Y-55211000I1483948J789089D01*
G01*
X138130911Y-54516047D02*
G75*
G02*
X139709000Y-54516000I789089J-1483948D01*
G01*
X138949383Y-57680450D02*
G75*
G02*
X138131000Y-57484000I-29385J1680445D01*
G01*
X139708712Y-57483352D02*
G75*
G02*
X138920000Y-57680000I-788712J1483352D01*
G01*
X140403953Y-55210911D02*
G75*
G02*
X140404000Y-56789000I-1483953J-789089D01*
G01*
X145680000Y-56000000D02*
G75*
G02*
X142320000Y-56000000I-1680000J0D01*
G01*
X142320000Y-56000000D02*
G75*
G02*
X145680000Y-56000000I1680000J0D01*
G01*
%TO.C,J12*%
X160950000Y-73917500D02*
X169070000Y-73917500D01*
X160950000Y-84197500D02*
X160950000Y-73917500D01*
X160950000Y-84197500D02*
X169070000Y-84197500D01*
X163010000Y-84197500D02*
X163010000Y-73917500D01*
X163735000Y-75447500D02*
X163794000Y-75506500D01*
X163941000Y-75242500D02*
X164034000Y-75336500D01*
X165986000Y-77697500D02*
X166079000Y-77791500D01*
X166226000Y-77527500D02*
X166284000Y-77586500D01*
X167010000Y-84197500D02*
X167010000Y-73917500D01*
X167070000Y-84437500D02*
X169310000Y-84437500D01*
X169070000Y-84197500D02*
X169070000Y-73917500D01*
X169310000Y-84437500D02*
X169310000Y-82437500D01*
X163526047Y-82386589D02*
G75*
G02*
X163526000Y-80808500I1483948J789089D01*
G01*
X164220911Y-80113547D02*
G75*
G02*
X165799000Y-80113500I789089J-1483953D01*
G01*
X165799089Y-83081453D02*
G75*
G02*
X164221000Y-83081500I-789089J1483948D01*
G01*
X166493352Y-80808788D02*
G75*
G02*
X166690000Y-81597500I-1483352J-788712D01*
G01*
X166690450Y-81568117D02*
G75*
G02*
X166494000Y-82386500I-1680445J-29385D01*
G01*
X166690000Y-76517500D02*
G75*
G02*
X163330000Y-76517500I-1680000J0D01*
G01*
X163330000Y-76517500D02*
G75*
G02*
X166690000Y-76517500I1680000J0D01*
G01*
%TO.C,R1*%
X131520000Y-96317064D02*
X131520000Y-94862936D01*
X133340000Y-96317064D02*
X133340000Y-94862936D01*
%TO.C,R9*%
X145040000Y-68080000D02*
X148880000Y-68080000D01*
X145040000Y-69920000D02*
X148880000Y-69920000D01*
%TO.C,TP6*%
X72371000Y-114500000D02*
G75*
G02*
X69869000Y-114500000I-1251000J0D01*
G01*
X69869000Y-114500000D02*
G75*
G02*
X72371000Y-114500000I1251000J0D01*
G01*
%TO.C,Q1*%
X151200000Y-59850000D02*
X154800000Y-59850000D01*
X151161522Y-59838478D02*
G75*
G02*
X153000000Y-55399999I1838478J1838478D01*
G01*
X153000000Y-55400000D02*
G75*
G02*
X154838478Y-59838478I0J-2600000D01*
G01*
%TO.C,TP5*%
X77751000Y-114447500D02*
G75*
G02*
X75249000Y-114447500I-1251000J0D01*
G01*
X75249000Y-114447500D02*
G75*
G02*
X77751000Y-114447500I1251000J0D01*
G01*
%TO.C,R5*%
X123522936Y-93090000D02*
X124977064Y-93090000D01*
X123522936Y-94910000D02*
X124977064Y-94910000D01*
%TO.C,R8*%
X139080000Y-91920000D02*
X139080000Y-88080000D01*
X140920000Y-91920000D02*
X140920000Y-88080000D01*
%TO.C,J6*%
X125010000Y-115612500D02*
X125010000Y-117852500D01*
X125010000Y-117852500D02*
X127010000Y-117852500D01*
X125250000Y-109492500D02*
X125250000Y-117612500D01*
X125250000Y-109492500D02*
X135530000Y-109492500D01*
X125250000Y-111552500D02*
X135530000Y-111552500D01*
X125250000Y-115552500D02*
X135530000Y-115552500D01*
X125250000Y-117612500D02*
X135530000Y-117612500D01*
X131750000Y-114528500D02*
X131656000Y-114621500D01*
X131920000Y-114768500D02*
X131861000Y-114826500D01*
X134000000Y-112277500D02*
X133941000Y-112336500D01*
X134205000Y-112483500D02*
X134111000Y-112576500D01*
X135530000Y-109492500D02*
X135530000Y-117612500D01*
X126366047Y-114341589D02*
G75*
G02*
X126366000Y-112763500I1483948J789089D01*
G01*
X127060911Y-112068547D02*
G75*
G02*
X128639000Y-112068500I789089J-1483948D01*
G01*
X127879383Y-115232950D02*
G75*
G02*
X127061000Y-115036500I-29385J1680445D01*
G01*
X128638712Y-115035852D02*
G75*
G02*
X127850000Y-115232500I-788712J1483352D01*
G01*
X129333953Y-112763411D02*
G75*
G02*
X129334000Y-114341500I-1483953J-789089D01*
G01*
X134610000Y-113552500D02*
G75*
G02*
X131250000Y-113552500I-1680000J0D01*
G01*
X131250000Y-113552500D02*
G75*
G02*
X134610000Y-113552500I1680000J0D01*
G01*
%TO.C,R7*%
X128647064Y-62680000D02*
X127192936Y-62680000D01*
X128647064Y-64500000D02*
X127192936Y-64500000D01*
%TO.C,TP8*%
X82756000Y-77552500D02*
G75*
G02*
X80254000Y-77552500I-1251000J0D01*
G01*
X80254000Y-77552500D02*
G75*
G02*
X82756000Y-77552500I1251000J0D01*
G01*
%TO.C,J7*%
X120320000Y-60612500D02*
X120320000Y-52492500D01*
X121645000Y-57621500D02*
X121739000Y-57528500D01*
X121850000Y-57827500D02*
X121909000Y-57768500D01*
X123930000Y-55336500D02*
X123989000Y-55278500D01*
X124100000Y-55576500D02*
X124194000Y-55483500D01*
X130600000Y-52492500D02*
X120320000Y-52492500D01*
X130600000Y-54552500D02*
X120320000Y-54552500D01*
X130600000Y-58552500D02*
X120320000Y-58552500D01*
X130600000Y-60612500D02*
X120320000Y-60612500D01*
X130600000Y-60612500D02*
X130600000Y-52492500D01*
X130840000Y-52252500D02*
X128840000Y-52252500D01*
X130840000Y-54492500D02*
X130840000Y-52252500D01*
X126516047Y-57341589D02*
G75*
G02*
X126516000Y-55763500I1483953J789089D01*
G01*
X127211288Y-55069148D02*
G75*
G02*
X128000000Y-54872500I788712J-1483352D01*
G01*
X127970617Y-54872050D02*
G75*
G02*
X128789000Y-55068500I29385J-1680445D01*
G01*
X128789089Y-58036453D02*
G75*
G02*
X127211000Y-58036500I-789089J1483948D01*
G01*
X129483953Y-55763411D02*
G75*
G02*
X129484000Y-57341500I-1483948J-789089D01*
G01*
X124600000Y-56552500D02*
G75*
G02*
X121240000Y-56552500I-1680000J0D01*
G01*
X121240000Y-56552500D02*
G75*
G02*
X124600000Y-56552500I1680000J0D01*
G01*
%TO.C,R6*%
X107380000Y-70080000D02*
X103540000Y-70080000D01*
X107380000Y-71920000D02*
X103540000Y-71920000D01*
%TO.C,TP1*%
X82756000Y-70552500D02*
G75*
G02*
X80254000Y-70552500I-1251000J0D01*
G01*
X80254000Y-70552500D02*
G75*
G02*
X82756000Y-70552500I1251000J0D01*
G01*
%TO.C,J11*%
X160870000Y-62417500D02*
X168990000Y-62417500D01*
X160870000Y-72697500D02*
X160870000Y-62417500D01*
X160870000Y-72697500D02*
X168990000Y-72697500D01*
X162930000Y-72697500D02*
X162930000Y-62417500D01*
X163655000Y-63947500D02*
X163714000Y-64006500D01*
X163861000Y-63742500D02*
X163954000Y-63836500D01*
X165906000Y-66197500D02*
X165999000Y-66291500D01*
X166146000Y-66027500D02*
X166204000Y-66086500D01*
X166930000Y-72697500D02*
X166930000Y-62417500D01*
X166990000Y-72937500D02*
X169230000Y-72937500D01*
X168990000Y-72697500D02*
X168990000Y-62417500D01*
X169230000Y-72937500D02*
X169230000Y-70937500D01*
X163446047Y-70886589D02*
G75*
G02*
X163446000Y-69308500I1483948J789089D01*
G01*
X164140911Y-68613547D02*
G75*
G02*
X165719000Y-68613500I789089J-1483953D01*
G01*
X165719089Y-71581453D02*
G75*
G02*
X164141000Y-71581500I-789089J1483948D01*
G01*
X166413352Y-69308788D02*
G75*
G02*
X166610000Y-70097500I-1483352J-788712D01*
G01*
X166610450Y-70068117D02*
G75*
G02*
X166414000Y-70886500I-1680445J-29385D01*
G01*
X166610000Y-65017500D02*
G75*
G02*
X163250000Y-65017500I-1680000J0D01*
G01*
X163250000Y-65017500D02*
G75*
G02*
X166610000Y-65017500I1680000J0D01*
G01*
%TO.C,R3*%
X72095000Y-73862936D02*
X72095000Y-75317064D01*
X73915000Y-73862936D02*
X73915000Y-75317064D01*
%TO.C,J8*%
X90450000Y-63492500D02*
X98570000Y-63492500D01*
X90450000Y-78612500D02*
X90450000Y-63492500D01*
X90450000Y-78612500D02*
X98570000Y-78612500D01*
X92510000Y-78612500D02*
X92510000Y-63492500D01*
X93235000Y-64982500D02*
X93294000Y-65041500D01*
X93235000Y-69982500D02*
X93294000Y-70041500D01*
X93441000Y-64777500D02*
X93534000Y-64871500D01*
X93441000Y-69777500D02*
X93534000Y-69871500D01*
X95486000Y-67232500D02*
X95579000Y-67326500D01*
X95486000Y-72232500D02*
X95579000Y-72326500D01*
X95726000Y-67062500D02*
X95784000Y-67121500D01*
X95726000Y-72062500D02*
X95784000Y-72121500D01*
X96510000Y-78612500D02*
X96510000Y-63492500D01*
X96570000Y-78852500D02*
X98810000Y-78852500D01*
X98570000Y-78612500D02*
X98570000Y-63492500D01*
X98810000Y-78852500D02*
X98810000Y-76852500D01*
X93026047Y-76841589D02*
G75*
G02*
X93026000Y-75263500I1483948J789089D01*
G01*
X93720911Y-74568547D02*
G75*
G02*
X95299000Y-74568500I789089J-1483953D01*
G01*
X95299089Y-77536453D02*
G75*
G02*
X93721000Y-77536500I-789089J1483948D01*
G01*
X95993352Y-75263788D02*
G75*
G02*
X96190000Y-76052500I-1483352J-788712D01*
G01*
X96190450Y-76023117D02*
G75*
G02*
X95994000Y-76841500I-1680445J-29385D01*
G01*
X96190000Y-66052500D02*
G75*
G02*
X92830000Y-66052500I-1680000J0D01*
G01*
X92830000Y-66052500D02*
G75*
G02*
X96190000Y-66052500I1680000J0D01*
G01*
X96190000Y-71052500D02*
G75*
G02*
X92830000Y-71052500I-1680000J0D01*
G01*
X92830000Y-71052500D02*
G75*
G02*
X96190000Y-71052500I1680000J0D01*
G01*
%TO.C,R10*%
X135080000Y-91960000D02*
X135080000Y-88120000D01*
X136920000Y-91960000D02*
X136920000Y-88120000D01*
%TO.C,J4*%
X70120000Y-58612500D02*
X70120000Y-60852500D01*
X70120000Y-60852500D02*
X72120000Y-60852500D01*
X70360000Y-52492500D02*
X70360000Y-60612500D01*
X70360000Y-52492500D02*
X80640000Y-52492500D01*
X70360000Y-54552500D02*
X80640000Y-54552500D01*
X70360000Y-58552500D02*
X80640000Y-58552500D01*
X70360000Y-60612500D02*
X80640000Y-60612500D01*
X76860000Y-57528500D02*
X76766000Y-57621500D01*
X77030000Y-57768500D02*
X76971000Y-57826500D01*
X79110000Y-55277500D02*
X79051000Y-55336500D01*
X79315000Y-55483500D02*
X79221000Y-55576500D01*
X80640000Y-52492500D02*
X80640000Y-60612500D01*
X71476047Y-57341589D02*
G75*
G02*
X71476000Y-55763500I1483948J789089D01*
G01*
X72170911Y-55068547D02*
G75*
G02*
X73749000Y-55068500I789089J-1483948D01*
G01*
X72989383Y-58232950D02*
G75*
G02*
X72171000Y-58036500I-29385J1680445D01*
G01*
X73748712Y-58035852D02*
G75*
G02*
X72960000Y-58232500I-788712J1483352D01*
G01*
X74443953Y-55763411D02*
G75*
G02*
X74444000Y-57341500I-1483953J-789089D01*
G01*
X79720000Y-56552500D02*
G75*
G02*
X76360000Y-56552500I-1680000J0D01*
G01*
X76360000Y-56552500D02*
G75*
G02*
X79720000Y-56552500I1680000J0D01*
G01*
%TO.C,J14*%
X144940000Y-73900000D02*
X153060000Y-73900000D01*
X144940000Y-84180000D02*
X144940000Y-73900000D01*
X144940000Y-84180000D02*
X153060000Y-84180000D01*
X147000000Y-84180000D02*
X147000000Y-73900000D01*
X147725000Y-75430000D02*
X147784000Y-75489000D01*
X147931000Y-75225000D02*
X148024000Y-75319000D01*
X149976000Y-77680000D02*
X150069000Y-77774000D01*
X150216000Y-77510000D02*
X150274000Y-77569000D01*
X151000000Y-84180000D02*
X151000000Y-73900000D01*
X151060000Y-84420000D02*
X153300000Y-84420000D01*
X153060000Y-84180000D02*
X153060000Y-73900000D01*
X153300000Y-84420000D02*
X153300000Y-82420000D01*
X147516047Y-82369089D02*
G75*
G02*
X147516000Y-80791000I1483948J789089D01*
G01*
X148210911Y-80096047D02*
G75*
G02*
X149789000Y-80096000I789089J-1483953D01*
G01*
X149789089Y-83063953D02*
G75*
G02*
X148211000Y-83064000I-789089J1483948D01*
G01*
X150483352Y-80791288D02*
G75*
G02*
X150680000Y-81580000I-1483352J-788712D01*
G01*
X150680450Y-81550617D02*
G75*
G02*
X150484000Y-82369000I-1680445J-29385D01*
G01*
X150680000Y-76500000D02*
G75*
G02*
X147320000Y-76500000I-1680000J0D01*
G01*
X147320000Y-76500000D02*
G75*
G02*
X150680000Y-76500000I1680000J0D01*
G01*
%TO.C,TP7*%
X87256000Y-77552500D02*
G75*
G02*
X84754000Y-77552500I-1251000J0D01*
G01*
X84754000Y-77552500D02*
G75*
G02*
X87256000Y-77552500I1251000J0D01*
G01*
%TO.C,J3*%
X82325000Y-60612500D02*
X82325000Y-52492500D01*
X83650000Y-57621500D02*
X83744000Y-57528500D01*
X83855000Y-57827500D02*
X83914000Y-57768500D01*
X85935000Y-55336500D02*
X85994000Y-55278500D01*
X86105000Y-55576500D02*
X86199000Y-55483500D01*
X92605000Y-52492500D02*
X82325000Y-52492500D01*
X92605000Y-54552500D02*
X82325000Y-54552500D01*
X92605000Y-58552500D02*
X82325000Y-58552500D01*
X92605000Y-60612500D02*
X82325000Y-60612500D01*
X92605000Y-60612500D02*
X92605000Y-52492500D01*
X92845000Y-52252500D02*
X90845000Y-52252500D01*
X92845000Y-54492500D02*
X92845000Y-52252500D01*
X88521047Y-57341589D02*
G75*
G02*
X88521000Y-55763500I1483953J789089D01*
G01*
X89216288Y-55069148D02*
G75*
G02*
X90005000Y-54872500I788712J-1483352D01*
G01*
X89975617Y-54872050D02*
G75*
G02*
X90794000Y-55068500I29385J-1680445D01*
G01*
X90794089Y-58036453D02*
G75*
G02*
X89216000Y-58036500I-789089J1483948D01*
G01*
X91488953Y-55763411D02*
G75*
G02*
X91489000Y-57341500I-1483948J-789089D01*
G01*
X86605000Y-56552500D02*
G75*
G02*
X83245000Y-56552500I-1680000J0D01*
G01*
X83245000Y-56552500D02*
G75*
G02*
X86605000Y-56552500I1680000J0D01*
G01*
%TO.C,TP2*%
X87256000Y-70552500D02*
G75*
G02*
X84754000Y-70552500I-1251000J0D01*
G01*
X84754000Y-70552500D02*
G75*
G02*
X87256000Y-70552500I1251000J0D01*
G01*
%TO.C,R14*%
X153040000Y-87580000D02*
X156880000Y-87580000D01*
X153040000Y-89420000D02*
X156880000Y-89420000D01*
%TO.C,R13*%
X129080000Y-92460000D02*
X129080000Y-88620000D01*
X130920000Y-92460000D02*
X130920000Y-88620000D01*
%TO.C,R2*%
X123310436Y-102090000D02*
X124764564Y-102090000D01*
X123310436Y-103910000D02*
X124764564Y-103910000D01*
%TO.C,TP3*%
X158176000Y-84000000D02*
G75*
G02*
X155674000Y-84000000I-1251000J0D01*
G01*
X155674000Y-84000000D02*
G75*
G02*
X158176000Y-84000000I1251000J0D01*
G01*
%TO.C,R12*%
X66380000Y-112080000D02*
X62540000Y-112080000D01*
X66380000Y-113920000D02*
X62540000Y-113920000D01*
%TO.C,D1*%
X112030000Y-72332500D02*
X112030000Y-77772500D01*
X112030000Y-76752500D02*
X114970000Y-76752500D01*
X112030000Y-76872500D02*
X114970000Y-76872500D01*
X112030000Y-76992500D02*
X114970000Y-76992500D01*
X112030000Y-77772500D02*
X114970000Y-77772500D01*
X113500000Y-71312500D02*
X113500000Y-72332500D01*
X113500000Y-78792500D02*
X113500000Y-77772500D01*
X114970000Y-72332500D02*
X112030000Y-72332500D01*
X114970000Y-77772500D02*
X114970000Y-72332500D01*
%TO.C,J9*%
X130710000Y-63752500D02*
X130710000Y-65752500D01*
X130950000Y-63992500D02*
X130950000Y-79112500D01*
X132950000Y-63752500D02*
X130710000Y-63752500D01*
X133010000Y-63992500D02*
X133010000Y-79112500D01*
X133794000Y-70542500D02*
X133736000Y-70483500D01*
X133794000Y-75542500D02*
X133736000Y-75483500D01*
X134034000Y-70372500D02*
X133941000Y-70278500D01*
X134034000Y-75372500D02*
X133941000Y-75278500D01*
X136079000Y-72827500D02*
X135986000Y-72733500D01*
X136079000Y-77827500D02*
X135986000Y-77733500D01*
X136285000Y-72622500D02*
X136226000Y-72563500D01*
X136285000Y-77622500D02*
X136226000Y-77563500D01*
X137010000Y-63992500D02*
X137010000Y-79112500D01*
X139070000Y-63992500D02*
X130950000Y-63992500D01*
X139070000Y-63992500D02*
X139070000Y-79112500D01*
X139070000Y-79112500D02*
X130950000Y-79112500D01*
X133329550Y-66581883D02*
G75*
G02*
X133526000Y-65763500I1680445J29385D01*
G01*
X133526648Y-67341212D02*
G75*
G02*
X133330000Y-66552500I1483352J788712D01*
G01*
X134220911Y-65068547D02*
G75*
G02*
X135799000Y-65068500I789089J-1483948D01*
G01*
X135799089Y-68036453D02*
G75*
G02*
X134221000Y-68036500I-789089J1483953D01*
G01*
X136493953Y-65763411D02*
G75*
G02*
X136494000Y-67341500I-1483948J-789089D01*
G01*
X136690000Y-71552500D02*
G75*
G02*
X133330000Y-71552500I-1680000J0D01*
G01*
X133330000Y-71552500D02*
G75*
G02*
X136690000Y-71552500I1680000J0D01*
G01*
X136690000Y-76552500D02*
G75*
G02*
X133330000Y-76552500I-1680000J0D01*
G01*
X133330000Y-76552500D02*
G75*
G02*
X136690000Y-76552500I1680000J0D01*
G01*
%TO.C,Q3*%
X140360000Y-99902500D02*
X143960000Y-99902500D01*
X140321522Y-99890978D02*
G75*
G02*
X142160000Y-95452499I1838478J1838478D01*
G01*
X142160000Y-95452500D02*
G75*
G02*
X143998478Y-99890978I0J-2600000D01*
G01*
%TO.C,A1*%
X61990000Y-91002500D02*
X61990000Y-108782500D01*
X64640000Y-88352500D02*
X110360000Y-88352500D01*
X64640000Y-111432500D02*
X110360000Y-111432500D01*
X69450000Y-111752500D02*
X67450000Y-111752500D01*
X113010000Y-91002500D02*
X113010000Y-108782500D01*
X61990000Y-91002500D02*
G75*
G02*
X64640000Y-88352500I2650000J0D01*
G01*
X64640000Y-111432500D02*
G75*
G02*
X61990000Y-108782500I0J2650000D01*
G01*
X110360000Y-88352500D02*
G75*
G02*
X113010000Y-91002500I0J-2650000D01*
G01*
X113010000Y-108782500D02*
G75*
G02*
X110360000Y-111432500I-2650000J0D01*
G01*
%TO.C,TP4*%
X158251000Y-77000000D02*
G75*
G02*
X155749000Y-77000000I-1251000J0D01*
G01*
X155749000Y-77000000D02*
G75*
G02*
X158251000Y-77000000I1251000J0D01*
G01*
%TO.C,J13*%
X160950000Y-85462500D02*
X169070000Y-85462500D01*
X160950000Y-95742500D02*
X160950000Y-85462500D01*
X160950000Y-95742500D02*
X169070000Y-95742500D01*
X163010000Y-95742500D02*
X163010000Y-85462500D01*
X163735000Y-86992500D02*
X163794000Y-87051500D01*
X163941000Y-86787500D02*
X164034000Y-86881500D01*
X165986000Y-89242500D02*
X166079000Y-89336500D01*
X166226000Y-89072500D02*
X166284000Y-89131500D01*
X167010000Y-95742500D02*
X167010000Y-85462500D01*
X167070000Y-95982500D02*
X169310000Y-95982500D01*
X169070000Y-95742500D02*
X169070000Y-85462500D01*
X169310000Y-95982500D02*
X169310000Y-93982500D01*
X163526047Y-93931589D02*
G75*
G02*
X163526000Y-92353500I1483948J789089D01*
G01*
X164220911Y-91658547D02*
G75*
G02*
X165799000Y-91658500I789089J-1483953D01*
G01*
X165799089Y-94626453D02*
G75*
G02*
X164221000Y-94626500I-789089J1483948D01*
G01*
X166493352Y-92353788D02*
G75*
G02*
X166690000Y-93142500I-1483352J-788712D01*
G01*
X166690450Y-93113117D02*
G75*
G02*
X166494000Y-93931500I-1680445J-29385D01*
G01*
X166690000Y-88062500D02*
G75*
G02*
X163330000Y-88062500I-1680000J0D01*
G01*
X163330000Y-88062500D02*
G75*
G02*
X166690000Y-88062500I1680000J0D01*
G01*
%TO.C,J15*%
X108080000Y-58560000D02*
X108080000Y-60800000D01*
X108080000Y-60800000D02*
X110080000Y-60800000D01*
X108320000Y-52440000D02*
X108320000Y-60560000D01*
X108320000Y-52440000D02*
X118600000Y-52440000D01*
X108320000Y-54500000D02*
X118600000Y-54500000D01*
X108320000Y-58500000D02*
X118600000Y-58500000D01*
X108320000Y-60560000D02*
X118600000Y-60560000D01*
X114820000Y-57476000D02*
X114726000Y-57569000D01*
X114990000Y-57716000D02*
X114931000Y-57774000D01*
X117070000Y-55225000D02*
X117011000Y-55284000D01*
X117275000Y-55431000D02*
X117181000Y-55524000D01*
X118600000Y-52440000D02*
X118600000Y-60560000D01*
X109436047Y-57289089D02*
G75*
G02*
X109436000Y-55711000I1483948J789089D01*
G01*
X110130911Y-55016047D02*
G75*
G02*
X111709000Y-55016000I789089J-1483948D01*
G01*
X110949383Y-58180450D02*
G75*
G02*
X110131000Y-57984000I-29385J1680445D01*
G01*
X111708712Y-57983352D02*
G75*
G02*
X110920000Y-58180000I-788712J1483352D01*
G01*
X112403953Y-55710911D02*
G75*
G02*
X112404000Y-57289000I-1483953J-789089D01*
G01*
X117680000Y-56500000D02*
G75*
G02*
X114320000Y-56500000I-1680000J0D01*
G01*
X114320000Y-56500000D02*
G75*
G02*
X117680000Y-56500000I1680000J0D01*
G01*
%TO.C,J1*%
X47500000Y-62900000D02*
X62000000Y-62900000D01*
X47500000Y-72100000D02*
X47500000Y-62900000D01*
X56100000Y-72100000D02*
X47500000Y-72100000D01*
X62000000Y-62900000D02*
X62000000Y-64900000D01*
X62000000Y-70100000D02*
X62000000Y-72100000D01*
X62000000Y-72100000D02*
X60700000Y-72100000D01*
X62300000Y-62600000D02*
X61000000Y-62600000D01*
X62300000Y-64300000D02*
X62300000Y-62600000D01*
D10*
%TO.C,JP1*%
X82685000Y-83652500D02*
X83185000Y-83152500D01*
X82685000Y-84452500D02*
X82685000Y-83652500D01*
X83185000Y-83152500D02*
X86785000Y-83152500D01*
X83185000Y-84952500D02*
X82685000Y-84452500D01*
X86785000Y-83152500D02*
X87285000Y-83652500D01*
X86785000Y-84952500D02*
X83185000Y-84952500D01*
X87285000Y-83652500D02*
X87285000Y-84452500D01*
X87285000Y-84452500D02*
X86785000Y-84952500D01*
D11*
%TO.C,R11*%
X115040000Y-112580000D02*
X118880000Y-112580000D01*
X115040000Y-114420000D02*
X118880000Y-114420000D01*
%TO.C,J5*%
X52445000Y-75872500D02*
X60565000Y-75872500D01*
X52445000Y-86152500D02*
X52445000Y-75872500D01*
X52445000Y-86152500D02*
X60565000Y-86152500D01*
X54505000Y-86152500D02*
X54505000Y-75872500D01*
X55230000Y-77402500D02*
X55289000Y-77461500D01*
X55436000Y-77197500D02*
X55529000Y-77291500D01*
X57481000Y-79652500D02*
X57574000Y-79746500D01*
X57721000Y-79482500D02*
X57779000Y-79541500D01*
X58505000Y-86152500D02*
X58505000Y-75872500D01*
X58565000Y-86392500D02*
X60805000Y-86392500D01*
X60565000Y-86152500D02*
X60565000Y-75872500D01*
X60805000Y-86392500D02*
X60805000Y-84392500D01*
X55021047Y-84341589D02*
G75*
G02*
X55021000Y-82763500I1483948J789089D01*
G01*
X55715911Y-82068547D02*
G75*
G02*
X57294000Y-82068500I789089J-1483953D01*
G01*
X57294089Y-85036453D02*
G75*
G02*
X55716000Y-85036500I-789089J1483948D01*
G01*
X57988352Y-82763788D02*
G75*
G02*
X58185000Y-83552500I-1483352J-788712D01*
G01*
X58185450Y-83523117D02*
G75*
G02*
X57989000Y-84341500I-1680445J-29385D01*
G01*
X58185000Y-78472500D02*
G75*
G02*
X54825000Y-78472500I-1680000J0D01*
G01*
X54825000Y-78472500D02*
G75*
G02*
X58185000Y-78472500I1680000J0D01*
G01*
%TO.C,J2*%
X94500000Y-60610000D02*
X94500000Y-52490000D01*
X95825000Y-57619000D02*
X95919000Y-57526000D01*
X96030000Y-57825000D02*
X96089000Y-57766000D01*
X98110000Y-55334000D02*
X98169000Y-55276000D01*
X98280000Y-55574000D02*
X98374000Y-55481000D01*
X104780000Y-52490000D02*
X94500000Y-52490000D01*
X104780000Y-54550000D02*
X94500000Y-54550000D01*
X104780000Y-58550000D02*
X94500000Y-58550000D01*
X104780000Y-60610000D02*
X94500000Y-60610000D01*
X104780000Y-60610000D02*
X104780000Y-52490000D01*
X105020000Y-52250000D02*
X103020000Y-52250000D01*
X105020000Y-54490000D02*
X105020000Y-52250000D01*
X100696047Y-57339089D02*
G75*
G02*
X100696000Y-55761000I1483953J789089D01*
G01*
X101391288Y-55066648D02*
G75*
G02*
X102180000Y-54870000I788712J-1483352D01*
G01*
X102150617Y-54869550D02*
G75*
G02*
X102969000Y-55066000I29385J-1680445D01*
G01*
X102969089Y-58033953D02*
G75*
G02*
X101391000Y-58034000I-789089J1483948D01*
G01*
X103663953Y-55760911D02*
G75*
G02*
X103664000Y-57339000I-1483948J-789089D01*
G01*
X98780000Y-56550000D02*
G75*
G02*
X95420000Y-56550000I-1680000J0D01*
G01*
X95420000Y-56550000D02*
G75*
G02*
X98780000Y-56550000I1680000J0D01*
G01*
%TO.C,R4*%
X72095000Y-80787936D02*
X72095000Y-82242064D01*
X73915000Y-80787936D02*
X73915000Y-82242064D01*
%TD*%
%LPC*%
D12*
%TO.C,TP9*%
X128750000Y-97250000D03*
%TD*%
D13*
%TO.C,J10*%
X138920000Y-56000000D03*
D14*
X144000000Y-56000000D03*
%TD*%
D13*
%TO.C,J12*%
X165010000Y-81597500D03*
D14*
X165010000Y-76517500D03*
%TD*%
D15*
%TO.C,R1*%
X132430000Y-97052500D03*
X132430000Y-94127500D03*
%TD*%
D16*
%TO.C,R9*%
X144420000Y-69000000D03*
D17*
X149500000Y-69000000D03*
%TD*%
D12*
%TO.C,TP6*%
X71120000Y-114500000D03*
%TD*%
D18*
%TO.C,Q1*%
X151730000Y-58000000D03*
D19*
X153000000Y-58000000D03*
X154270000Y-58000000D03*
%TD*%
D12*
%TO.C,TP5*%
X76500000Y-114447500D03*
%TD*%
D20*
%TO.C,R5*%
X122787500Y-94000000D03*
X125712500Y-94000000D03*
%TD*%
D16*
%TO.C,R8*%
X140000000Y-92540000D03*
D17*
X140000000Y-87460000D03*
%TD*%
D13*
%TO.C,J6*%
X127850000Y-113552500D03*
D14*
X132930000Y-113552500D03*
%TD*%
D21*
%TO.C,R7*%
X129382500Y-63590000D03*
X126457500Y-63590000D03*
%TD*%
D12*
%TO.C,TP8*%
X81505000Y-77552500D03*
%TD*%
D13*
%TO.C,J7*%
X128000000Y-56552500D03*
D14*
X122920000Y-56552500D03*
%TD*%
D16*
%TO.C,R6*%
X108000000Y-71000000D03*
D17*
X102920000Y-71000000D03*
%TD*%
D12*
%TO.C,TP1*%
X81505000Y-70552500D03*
%TD*%
D13*
%TO.C,J11*%
X164930000Y-70097500D03*
D14*
X164930000Y-65017500D03*
%TD*%
D22*
%TO.C,R3*%
X73005000Y-73127500D03*
X73005000Y-76052500D03*
%TD*%
D13*
%TO.C,J8*%
X94510000Y-76052500D03*
D14*
X94510000Y-71052500D03*
X94510000Y-66052500D03*
%TD*%
D16*
%TO.C,R10*%
X136000000Y-92580000D03*
D17*
X136000000Y-87500000D03*
%TD*%
D13*
%TO.C,J4*%
X72960000Y-56552500D03*
D14*
X78040000Y-56552500D03*
%TD*%
D13*
%TO.C,J14*%
X149000000Y-81580000D03*
D14*
X149000000Y-76500000D03*
%TD*%
D12*
%TO.C,TP7*%
X86005000Y-77552500D03*
%TD*%
D13*
%TO.C,J3*%
X90005000Y-56552500D03*
D14*
X84925000Y-56552500D03*
%TD*%
D12*
%TO.C,TP2*%
X86005000Y-70552500D03*
%TD*%
D16*
%TO.C,R14*%
X152420000Y-88500000D03*
D17*
X157500000Y-88500000D03*
%TD*%
D16*
%TO.C,R13*%
X130000000Y-93080000D03*
D17*
X130000000Y-88000000D03*
%TD*%
D20*
%TO.C,R2*%
X122575000Y-103000000D03*
X125500000Y-103000000D03*
%TD*%
D12*
%TO.C,TP3*%
X156925000Y-84000000D03*
%TD*%
D16*
%TO.C,R12*%
X67000000Y-113000000D03*
D17*
X61920000Y-113000000D03*
%TD*%
D23*
%TO.C,D1*%
X113500000Y-80132500D03*
D24*
X113500000Y-69972500D03*
%TD*%
D13*
%TO.C,J9*%
X135010000Y-66552500D03*
D14*
X135010000Y-71552500D03*
X135010000Y-76552500D03*
%TD*%
D18*
%TO.C,Q3*%
X140890000Y-98052500D03*
D19*
X142160000Y-98052500D03*
X143430000Y-98052500D03*
%TD*%
D25*
%TO.C,A1*%
X68450000Y-109752500D03*
D26*
X70990000Y-109752500D03*
X73530000Y-109752500D03*
X76070000Y-109752500D03*
X78610000Y-109752500D03*
X81150000Y-109752500D03*
X83690000Y-109752500D03*
X86230000Y-109752500D03*
X88770000Y-109752500D03*
X91310000Y-109752500D03*
X93850000Y-109752500D03*
X96390000Y-109752500D03*
X98930000Y-109752500D03*
X101470000Y-109752500D03*
X104010000Y-109752500D03*
X106550000Y-109752500D03*
X106550000Y-90032500D03*
X104010000Y-90032500D03*
X101470000Y-90032500D03*
X98930000Y-90032500D03*
X96390000Y-90032500D03*
X93850000Y-90032500D03*
X91310000Y-90032500D03*
X88770000Y-90032500D03*
X86230000Y-90032500D03*
X83690000Y-90032500D03*
X81150000Y-90032500D03*
X78610000Y-90032500D03*
%TD*%
D12*
%TO.C,TP4*%
X157000000Y-77000000D03*
%TD*%
D13*
%TO.C,J13*%
X165010000Y-93142500D03*
D14*
X165010000Y-88062500D03*
%TD*%
D13*
%TO.C,J15*%
X110920000Y-56500000D03*
D14*
X116000000Y-56500000D03*
%TD*%
D27*
%TO.C,J1*%
X61300000Y-67500000D03*
D28*
X55000000Y-67500000D03*
D29*
X58400000Y-72300000D03*
%TD*%
D16*
%TO.C,JP1*%
X86255000Y-84052500D03*
X83715000Y-84052500D03*
%TD*%
%TO.C,R11*%
X114420000Y-113500000D03*
D17*
X119500000Y-113500000D03*
%TD*%
D13*
%TO.C,J5*%
X56505000Y-83552500D03*
D14*
X56505000Y-78472500D03*
%TD*%
D13*
%TO.C,J2*%
X102180000Y-56550000D03*
D14*
X97100000Y-56550000D03*
%TD*%
D22*
%TO.C,R4*%
X73005000Y-80052500D03*
X73005000Y-82977500D03*
%TD*%
%LPD*%
M02*
