%TF.GenerationSoftware,KiCad,Pcbnew,8.0.4*%
%TF.CreationDate,2024-11-21T09:43:36-08:00*%
%TF.ProjectId,ChargeGuard_Pro_Plus_ECE411,43686172-6765-4477-9561-72645f50726f,1.0.3*%
%TF.SameCoordinates,Original*%
%TF.FileFunction,Copper,L2,Bot*%
%TF.FilePolarity,Positive*%
%FSLAX46Y46*%
G04 Gerber Fmt 4.6, Leading zero omitted, Abs format (unit mm)*
G04 Created by KiCad (PCBNEW 8.0.4) date 2024-11-21 09:43:36*
%MOMM*%
%LPD*%
G01*
G04 APERTURE LIST*
G04 Aperture macros list*
%AMRoundRect*
0 Rectangle with rounded corners*
0 $1 Rounding radius*
0 $2 $3 $4 $5 $6 $7 $8 $9 X,Y pos of 4 corners*
0 Add a 4 corners polygon primitive as box body*
4,1,4,$2,$3,$4,$5,$6,$7,$8,$9,$2,$3,0*
0 Add four circle primitives for the rounded corners*
1,1,$1+$1,$2,$3*
1,1,$1+$1,$4,$5*
1,1,$1+$1,$6,$7*
1,1,$1+$1,$8,$9*
0 Add four rect primitives between the rounded corners*
20,1,$1+$1,$2,$3,$4,$5,0*
20,1,$1+$1,$4,$5,$6,$7,0*
20,1,$1+$1,$6,$7,$8,$9,0*
20,1,$1+$1,$8,$9,$2,$3,0*%
G04 Aperture macros list end*
%TA.AperFunction,NonConductor*%
%ADD10C,0.200000*%
%TD*%
%TA.AperFunction,ComponentPad*%
%ADD11C,2.000000*%
%TD*%
%TA.AperFunction,ComponentPad*%
%ADD12R,2.500000X2.500000*%
%TD*%
%TA.AperFunction,ComponentPad*%
%ADD13C,2.500000*%
%TD*%
%TA.AperFunction,ComponentPad*%
%ADD14C,1.400000*%
%TD*%
%TA.AperFunction,ComponentPad*%
%ADD15O,1.400000X1.400000*%
%TD*%
%TA.AperFunction,ComponentPad*%
%ADD16R,1.050000X1.500000*%
%TD*%
%TA.AperFunction,ComponentPad*%
%ADD17O,1.050000X1.500000*%
%TD*%
%TA.AperFunction,ComponentPad*%
%ADD18R,2.200000X2.200000*%
%TD*%
%TA.AperFunction,ComponentPad*%
%ADD19O,2.200000X2.200000*%
%TD*%
%TA.AperFunction,ComponentPad*%
%ADD20RoundRect,0.250000X0.550000X-1.050000X0.550000X1.050000X-0.550000X1.050000X-0.550000X-1.050000X0*%
%TD*%
%TA.AperFunction,ComponentPad*%
%ADD21O,1.600000X2.600000*%
%TD*%
%TA.AperFunction,ComponentPad*%
%ADD22R,2.000000X4.600000*%
%TD*%
%TA.AperFunction,ComponentPad*%
%ADD23O,2.000000X4.200000*%
%TD*%
%TA.AperFunction,ComponentPad*%
%ADD24O,4.200000X2.000000*%
%TD*%
%TA.AperFunction,Conductor*%
%ADD25C,0.800000*%
%TD*%
%TA.AperFunction,Conductor*%
%ADD26C,1.000000*%
%TD*%
%TA.AperFunction,Conductor*%
%ADD27C,1.500000*%
%TD*%
%TA.AperFunction,Conductor*%
%ADD28C,0.500000*%
%TD*%
%TA.AperFunction,Conductor*%
%ADD29C,0.700000*%
%TD*%
%TA.AperFunction,Conductor*%
%ADD30C,0.200000*%
%TD*%
G04 APERTURE END LIST*
D10*
X50000000Y-49500000D02*
X172000000Y-49500000D01*
X172000000Y-120500000D01*
X50000000Y-120500000D01*
X50000000Y-49500000D01*
D11*
%TO.P,TP9,1,1*%
%TO.N,GND*%
X128750000Y-97250000D03*
%TD*%
D12*
%TO.P,J10,1,Pin_1*%
%TO.N,Power (Buck Converter '+')*%
X138920000Y-56000000D03*
D13*
%TO.P,J10,2,Pin_2*%
%TO.N,Net-(J10-Pin_2)*%
X144000000Y-56000000D03*
%TD*%
D12*
%TO.P,J12,1,Pin_1*%
%TO.N,Net-(A1-SDA{slash}IO23)*%
X165010000Y-81597500D03*
D13*
%TO.P,J12,2,Pin_2*%
%TO.N,Net-(J12-Pin_2)*%
X165010000Y-76517500D03*
%TD*%
D14*
%TO.P,R9,1*%
%TO.N,Net-(R8-Pad2)*%
X144420000Y-69000000D03*
D15*
%TO.P,R9,2*%
%TO.N,Net-(Q1-B)*%
X149500000Y-69000000D03*
%TD*%
D11*
%TO.P,TP6,1,1*%
%TO.N,I2C Power*%
X71120000Y-114500000D03*
%TD*%
D16*
%TO.P,Q1,1,E*%
%TO.N,GND*%
X151730000Y-58000000D03*
D17*
%TO.P,Q1,2,B*%
%TO.N,Net-(Q1-B)*%
X153000000Y-58000000D03*
%TO.P,Q1,3,C*%
%TO.N,Net-(J10-Pin_2)*%
X154270000Y-58000000D03*
%TD*%
D11*
%TO.P,TP5,1,1*%
%TO.N,GND*%
X76500000Y-114447500D03*
%TD*%
D14*
%TO.P,R8,1*%
%TO.N,Net-(Q3-D)*%
X140000000Y-92540000D03*
D15*
%TO.P,R8,2*%
%TO.N,Net-(R8-Pad2)*%
X140000000Y-87460000D03*
%TD*%
D12*
%TO.P,J6,1,Pin_1*%
%TO.N,Net-(J6-Pin_1)*%
X127850000Y-113552500D03*
D13*
%TO.P,J6,2,Pin_2*%
%TO.N,GND*%
X132930000Y-113552500D03*
%TD*%
D11*
%TO.P,TP8,1,1*%
%TO.N,Net-(D1-K)*%
X81505000Y-77552500D03*
%TD*%
D12*
%TO.P,J7,1,Pin_1*%
%TO.N,Net-(J7-Pin_1)*%
X128000000Y-56552500D03*
D13*
%TO.P,J7,2,Pin_2*%
%TO.N,Net-(J7-Pin_2)*%
X122920000Y-56552500D03*
%TD*%
D14*
%TO.P,R6,1*%
%TO.N,Net-(D1-A)*%
X108000000Y-71000000D03*
D15*
%TO.P,R6,2*%
%TO.N,Net-(J8-Pin_2)*%
X102920000Y-71000000D03*
%TD*%
D11*
%TO.P,TP1,1,1*%
%TO.N,GND*%
X81505000Y-70552500D03*
%TD*%
D12*
%TO.P,J11,1,Pin_1*%
%TO.N,I2C Power*%
X164930000Y-70097500D03*
D13*
%TO.P,J11,2,Pin_2*%
%TO.N,GND*%
X164930000Y-65017500D03*
%TD*%
D12*
%TO.P,J8,1,Pin_1*%
%TO.N,unconnected-(J8-Pin_1-Pad1)*%
X94510000Y-76052500D03*
D13*
%TO.P,J8,2,Pin_2*%
%TO.N,Net-(J8-Pin_2)*%
X94510000Y-71052500D03*
%TO.P,J8,3,Pin_3*%
%TO.N,Power (Buck Converter '+')*%
X94510000Y-66052500D03*
%TD*%
D14*
%TO.P,R10,1*%
%TO.N,Net-(R1-Pad2)*%
X136000000Y-92580000D03*
D15*
%TO.P,R10,2*%
%TO.N,Net-(J7-Pin_2)*%
X136000000Y-87500000D03*
%TD*%
D12*
%TO.P,J4,1,Pin_1*%
%TO.N,Net-(J4-Pin_1)*%
X72960000Y-56552500D03*
D13*
%TO.P,J4,2,Pin_2*%
%TO.N,Net-(J2-Pin_1)*%
X78040000Y-56552500D03*
%TD*%
D12*
%TO.P,J14,1,Pin_1*%
%TO.N,Net-(A1-SDA{slash}IO23)*%
X149000000Y-81580000D03*
D13*
%TO.P,J14,2,Pin_2*%
%TO.N,Net-(J12-Pin_2)*%
X149000000Y-76500000D03*
%TD*%
D11*
%TO.P,TP7,1,1*%
%TO.N,Net-(A1-A8{slash}IO15)*%
X86005000Y-77552500D03*
%TD*%
D12*
%TO.P,J3,1,Pin_1*%
%TO.N,Power (Buck Converter '+')*%
X90005000Y-56552500D03*
D13*
%TO.P,J3,2,Pin_2*%
%TO.N,GND*%
X84925000Y-56552500D03*
%TD*%
D11*
%TO.P,TP2,1,1*%
%TO.N,Power (Buck Converter '+')*%
X86005000Y-70552500D03*
%TD*%
D14*
%TO.P,R14,1*%
%TO.N,Net-(A1-SCL{slash}IO22)*%
X152420000Y-88500000D03*
D15*
%TO.P,R14,2*%
%TO.N,Net-(J12-Pin_2)*%
X157500000Y-88500000D03*
%TD*%
D14*
%TO.P,R13,1*%
%TO.N,Net-(R1-Pad2)*%
X130000000Y-93080000D03*
D15*
%TO.P,R13,2*%
%TO.N,Net-(A1-A6{slash}IO14)*%
X130000000Y-88000000D03*
%TD*%
D11*
%TO.P,TP3,1,1*%
%TO.N,Net-(A1-SDA{slash}IO23)*%
X156925000Y-84000000D03*
%TD*%
D14*
%TO.P,R12,1*%
%TO.N,Net-(A1-~{RESET})*%
X67000000Y-113000000D03*
D15*
%TO.P,R12,2*%
%TO.N,Net-(R11-Pad1)*%
X61920000Y-113000000D03*
%TD*%
D18*
%TO.P,D1,1,K*%
%TO.N,Net-(D1-K)*%
X113500000Y-80132500D03*
D19*
%TO.P,D1,2,A*%
%TO.N,Net-(D1-A)*%
X113500000Y-69972500D03*
%TD*%
D12*
%TO.P,J9,1,Pin_1*%
%TO.N,Power (Buck Converter '+')*%
X135010000Y-66552500D03*
D13*
%TO.P,J9,2,Pin_2*%
%TO.N,GND*%
X135010000Y-71552500D03*
%TO.P,J9,3,Pin_3*%
%TO.N,Net-(A1-A7{slash}IO32)*%
X135010000Y-76552500D03*
%TD*%
D16*
%TO.P,Q3,1,S*%
%TO.N,GND*%
X140890000Y-98052500D03*
D17*
%TO.P,Q3,2,G*%
%TO.N,Net-(A1-I34{slash}A2)*%
X142160000Y-98052500D03*
%TO.P,Q3,3,D*%
%TO.N,Net-(Q3-D)*%
X143430000Y-98052500D03*
%TD*%
D20*
%TO.P,A1,1,~{RESET}*%
%TO.N,Net-(A1-~{RESET})*%
X68450000Y-109752500D03*
D21*
%TO.P,A1,2,3V3*%
%TO.N,I2C Power*%
X70990000Y-109752500D03*
%TO.P,A1,3,NC*%
%TO.N,unconnected-(A1-NC-Pad3)*%
X73530000Y-109752500D03*
%TO.P,A1,4,GND*%
%TO.N,GND*%
X76070000Y-109752500D03*
%TO.P,A1,5,DAC2/A0*%
%TO.N,unconnected-(A1-DAC2{slash}A0-Pad5)*%
X78610000Y-109752500D03*
%TO.P,A1,6,DAC1/A1*%
%TO.N,unconnected-(A1-DAC1{slash}A1-Pad6)*%
X81150000Y-109752500D03*
%TO.P,A1,7,I34/A2*%
%TO.N,Net-(A1-I34{slash}A2)*%
X83690000Y-109752500D03*
%TO.P,A1,8,I39/A3*%
%TO.N,unconnected-(A1-I39{slash}A3-Pad8)*%
X86230000Y-109752500D03*
%TO.P,A1,9,IO36/A4*%
%TO.N,unconnected-(A1-IO36{slash}A4-Pad9)*%
X88770000Y-109752500D03*
%TO.P,A1,10,IO4/A5*%
%TO.N,unconnected-(A1-IO4{slash}A5-Pad10)*%
X91310000Y-109752500D03*
%TO.P,A1,11,SCK/IO5*%
%TO.N,unconnected-(A1-SCK{slash}IO5-Pad11)*%
X93850000Y-109752500D03*
%TO.P,A1,12,MOSI/IO18*%
%TO.N,unconnected-(A1-MOSI{slash}IO18-Pad12)*%
X96390000Y-109752500D03*
%TO.P,A1,13,MISO/IO19*%
%TO.N,unconnected-(A1-MISO{slash}IO19-Pad13)*%
X98930000Y-109752500D03*
%TO.P,A1,14,RX/IO16*%
%TO.N,unconnected-(A1-RX{slash}IO16-Pad14)*%
X101470000Y-109752500D03*
%TO.P,A1,15,TX/IO17*%
%TO.N,unconnected-(A1-TX{slash}IO17-Pad15)*%
X104010000Y-109752500D03*
%TO.P,A1,16,IO21*%
%TO.N,unconnected-(A1-IO21-Pad16)*%
X106550000Y-109752500D03*
%TO.P,A1,17,SDA/IO23*%
%TO.N,Net-(A1-SDA{slash}IO23)*%
X106550000Y-90032500D03*
%TO.P,A1,18,SCL/IO22*%
%TO.N,Net-(A1-SCL{slash}IO22)*%
X104010000Y-90032500D03*
%TO.P,A1,19,A6/IO14*%
%TO.N,Net-(A1-A6{slash}IO14)*%
X101470000Y-90032500D03*
%TO.P,A1,20,A7/IO32*%
%TO.N,Net-(A1-A7{slash}IO32)*%
X98930000Y-90032500D03*
%TO.P,A1,21,A8/IO15*%
%TO.N,Net-(A1-A8{slash}IO15)*%
X96390000Y-90032500D03*
%TO.P,A1,22,A9/IO33*%
%TO.N,unconnected-(A1-A9{slash}IO33-Pad22)*%
X93850000Y-90032500D03*
%TO.P,A1,23,A10/IO27*%
%TO.N,unconnected-(A1-A10{slash}IO27-Pad23)*%
X91310000Y-90032500D03*
%TO.P,A1,24,A11/IO12*%
%TO.N,unconnected-(A1-A11{slash}IO12-Pad24)*%
X88770000Y-90032500D03*
%TO.P,A1,25,A12/IO13*%
%TO.N,unconnected-(A1-A12{slash}IO13-Pad25)*%
X86230000Y-90032500D03*
%TO.P,A1,26,USB*%
%TO.N,Net-(A1-USB)*%
X83690000Y-90032500D03*
%TO.P,A1,27,EN*%
%TO.N,unconnected-(A1-EN-Pad27)*%
X81150000Y-90032500D03*
%TO.P,A1,28,VBAT*%
%TO.N,unconnected-(A1-VBAT-Pad28)*%
X78610000Y-90032500D03*
%TD*%
D11*
%TO.P,TP4,1,1*%
%TO.N,Net-(J12-Pin_2)*%
X157000000Y-77000000D03*
%TD*%
D12*
%TO.P,J13,1,Pin_1*%
%TO.N,I2C Power*%
X165010000Y-93142500D03*
D13*
%TO.P,J13,2,Pin_2*%
%TO.N,GND*%
X165010000Y-88062500D03*
%TD*%
D12*
%TO.P,J15,1,Pin_1*%
%TO.N,GND*%
X110920000Y-56500000D03*
D13*
%TO.P,J15,2,Pin_2*%
%TO.N,Net-(D1-K)*%
X116000000Y-56500000D03*
%TD*%
D22*
%TO.P,J1,1*%
%TO.N,Net-(J4-Pin_1)*%
X61300000Y-67500000D03*
D23*
%TO.P,J1,2*%
%TO.N,GND*%
X55000000Y-67500000D03*
D24*
%TO.P,J1,3*%
%TO.N,N/C*%
X58400000Y-72300000D03*
%TD*%
D14*
%TO.P,JP1,1,A*%
%TO.N,Power (Buck Converter '+')*%
X86255000Y-84052500D03*
%TO.P,JP1,2,B*%
%TO.N,Net-(A1-USB)*%
X83715000Y-84052500D03*
%TD*%
%TO.P,R11,1*%
%TO.N,Net-(R11-Pad1)*%
X114420000Y-113500000D03*
D15*
%TO.P,R11,2*%
%TO.N,Net-(J6-Pin_1)*%
X119500000Y-113500000D03*
%TD*%
D12*
%TO.P,J5,1,Pin_1*%
%TO.N,GND*%
X56505000Y-83552500D03*
D13*
%TO.P,J5,2,Pin_2*%
%TO.N,Net-(J2-Pin_1)*%
X56505000Y-78472500D03*
%TD*%
D12*
%TO.P,J2,1,Pin_1*%
%TO.N,Net-(J2-Pin_1)*%
X102180000Y-56550000D03*
D13*
%TO.P,J2,2,Pin_2*%
%TO.N,GND*%
X97100000Y-56550000D03*
%TD*%
D25*
%TO.N,GND*%
X132930000Y-113552500D02*
X132930000Y-101430000D01*
X132930000Y-101430000D02*
X128750000Y-97250000D01*
D26*
X81505000Y-59972500D02*
X84925000Y-56552500D01*
X81505000Y-70552500D02*
X81505000Y-59972500D01*
X55000000Y-67500000D02*
X60000000Y-62500000D01*
X60000000Y-62500000D02*
X81505000Y-62500000D01*
D27*
%TO.N,Net-(D1-K)*%
X121250000Y-78500000D02*
X121250000Y-61750000D01*
X113617500Y-80250000D02*
X119500000Y-80250000D01*
X119500000Y-80250000D02*
X121250000Y-78500000D01*
D28*
X113500000Y-80132500D02*
X113617500Y-80250000D01*
D27*
X121250000Y-61750000D02*
X116000000Y-56500000D01*
D26*
%TO.N,Power (Buck Converter '+')*%
X65500000Y-87000000D02*
X86000000Y-87000000D01*
X65500000Y-113479899D02*
X65500000Y-87000000D01*
X86255000Y-86745000D02*
X86255000Y-84052500D01*
X70020101Y-118000000D02*
X65500000Y-113479899D01*
X168500000Y-93500000D02*
X144000000Y-118000000D01*
X168500000Y-64500000D02*
X168500000Y-93500000D01*
X86000000Y-87000000D02*
X86255000Y-86745000D01*
X144000000Y-118000000D02*
X70020101Y-118000000D01*
X158050000Y-54050000D02*
X168500000Y-64500000D01*
X140870000Y-54050000D02*
X158050000Y-54050000D01*
X138920000Y-56000000D02*
X140870000Y-54050000D01*
D29*
%TO.N,GND*%
X140890000Y-96610000D02*
X140890000Y-98052500D01*
X141000000Y-96500000D02*
X140890000Y-96610000D01*
X141500000Y-95000000D02*
X141000000Y-95500000D01*
X142500000Y-80500000D02*
X142500000Y-95000000D01*
X140890000Y-78890000D02*
X142500000Y-80500000D01*
X141000000Y-95500000D02*
X141000000Y-96500000D01*
X140890000Y-77432500D02*
X140890000Y-78890000D01*
X142500000Y-95000000D02*
X141500000Y-95000000D01*
X135010000Y-71552500D02*
X140890000Y-77432500D01*
D26*
%TO.N,Power (Buck Converter '+')*%
X94510000Y-61057500D02*
X90005000Y-56552500D01*
X90505000Y-66052500D02*
X88528750Y-68028750D01*
X94510000Y-66052500D02*
X90505000Y-66052500D01*
X89500000Y-74047500D02*
X86005000Y-70552500D01*
X138920000Y-56000000D02*
X138920000Y-62642500D01*
X94510000Y-66052500D02*
X94510000Y-61057500D01*
X138920000Y-62642500D02*
X135010000Y-66552500D01*
X89500000Y-80807500D02*
X89500000Y-74047500D01*
X88528750Y-68028750D02*
X86005000Y-70552500D01*
X86255000Y-84052500D02*
X89500000Y-80807500D01*
%TO.N,GND*%
X131500000Y-56152500D02*
X131500000Y-68042500D01*
D30*
X55050000Y-67500000D02*
X54955000Y-67595000D01*
D26*
X81505000Y-62500000D02*
X81505000Y-70552500D01*
D30*
X76070000Y-110052500D02*
X76500000Y-110482500D01*
D26*
X128347500Y-53000000D02*
X131500000Y-56152500D01*
D29*
X160500000Y-83552500D02*
X160500000Y-68220000D01*
X165010000Y-88062500D02*
X160500000Y-83552500D01*
D26*
X93550000Y-53000000D02*
X97100000Y-56550000D01*
X131500000Y-68042500D02*
X135010000Y-71552500D01*
X84925000Y-56552500D02*
X88477500Y-53000000D01*
D29*
X151730000Y-58000000D02*
X151730000Y-59450000D01*
D25*
X130482500Y-116000000D02*
X132930000Y-113552500D01*
D29*
X138177500Y-71552500D02*
X151730000Y-58000000D01*
D25*
X76500000Y-115000000D02*
X77500000Y-116000000D01*
D26*
X81500000Y-59977500D02*
X81500000Y-61600000D01*
X107420000Y-60000000D02*
X110920000Y-56500000D01*
X88477500Y-53000000D02*
X93550000Y-53000000D01*
D29*
X164930000Y-65017500D02*
X157297500Y-65017500D01*
D26*
X81505000Y-61605000D02*
X81505000Y-62500000D01*
X56505000Y-83552500D02*
X56505000Y-83195000D01*
X97100000Y-56550000D02*
X100550000Y-60000000D01*
D29*
X135010000Y-71552500D02*
X138177500Y-71552500D01*
D26*
X54555000Y-81602500D02*
X54555000Y-67995000D01*
X54555000Y-67995000D02*
X55050000Y-67500000D01*
X114420000Y-53000000D02*
X128347500Y-53000000D01*
X100550000Y-60000000D02*
X107420000Y-60000000D01*
D30*
X76500000Y-110482500D02*
X76500000Y-115000000D01*
X81500000Y-61600000D02*
X81505000Y-61605000D01*
D26*
X84925000Y-56552500D02*
X81500000Y-59977500D01*
D29*
X151730000Y-59450000D02*
X157297500Y-65017500D01*
X157297500Y-65017500D02*
X160500000Y-68220000D01*
D26*
X56505000Y-83552500D02*
X54555000Y-81602500D01*
D29*
X77500000Y-116000000D02*
X130482500Y-116000000D01*
D26*
X110920000Y-56500000D02*
X114420000Y-53000000D01*
D30*
X76070000Y-110052500D02*
X76510000Y-110492500D01*
%TD*%
%TA.AperFunction,NonConductor*%
G36*
X170942539Y-50520185D02*
G01*
X170988294Y-50572989D01*
X170999500Y-50624500D01*
X170999500Y-119375500D01*
X170979815Y-119442539D01*
X170927011Y-119488294D01*
X170875500Y-119499500D01*
X51124500Y-119499500D01*
X51057461Y-119479815D01*
X51011706Y-119427011D01*
X51000500Y-119375500D01*
X51000500Y-116621320D01*
X51373388Y-116621320D01*
X51392538Y-116937917D01*
X51392538Y-116937922D01*
X51392539Y-116937923D01*
X51404073Y-117000861D01*
X51449713Y-117249909D01*
X51506268Y-117431403D01*
X51544075Y-117552729D01*
X51674251Y-117841967D01*
X51830760Y-118100865D01*
X51838340Y-118113404D01*
X51838345Y-118113412D01*
X52033955Y-118363089D01*
X52258230Y-118587364D01*
X52507907Y-118782974D01*
X52507910Y-118782975D01*
X52507914Y-118782979D01*
X52779353Y-118947069D01*
X53068591Y-119077245D01*
X53371411Y-119171607D01*
X53683397Y-119228781D01*
X54000000Y-119247932D01*
X54316603Y-119228781D01*
X54628589Y-119171607D01*
X54931409Y-119077245D01*
X55220647Y-118947069D01*
X55492086Y-118782979D01*
X55741766Y-118587367D01*
X55966047Y-118363086D01*
X56161659Y-118113406D01*
X56325749Y-117841967D01*
X56455925Y-117552729D01*
X56550287Y-117249909D01*
X56607461Y-116937923D01*
X56626612Y-116621320D01*
X56607461Y-116304717D01*
X56550287Y-115992731D01*
X56455925Y-115689911D01*
X56325749Y-115400673D01*
X56161659Y-115129234D01*
X56149082Y-115113181D01*
X55966044Y-114879550D01*
X55741769Y-114655275D01*
X55492092Y-114459665D01*
X55492084Y-114459660D01*
X55471959Y-114447494D01*
X55220647Y-114295571D01*
X54931409Y-114165395D01*
X54832869Y-114134689D01*
X54628589Y-114071033D01*
X54382690Y-114025970D01*
X54316603Y-114013859D01*
X54316602Y-114013858D01*
X54316597Y-114013858D01*
X54000000Y-113994708D01*
X53683402Y-114013858D01*
X53371410Y-114071033D01*
X53068596Y-114165393D01*
X53068592Y-114165394D01*
X53068591Y-114165395D01*
X52907721Y-114237797D01*
X52875775Y-114252175D01*
X52779353Y-114295571D01*
X52748631Y-114314143D01*
X52507915Y-114459660D01*
X52507907Y-114459665D01*
X52258230Y-114655275D01*
X52033955Y-114879550D01*
X51838345Y-115129227D01*
X51838340Y-115129235D01*
X51674250Y-115400675D01*
X51674249Y-115400677D01*
X51544073Y-115689916D01*
X51449713Y-115992730D01*
X51392538Y-116304722D01*
X51373388Y-116621320D01*
X51000500Y-116621320D01*
X51000500Y-112999999D01*
X60714357Y-112999999D01*
X60714357Y-113000000D01*
X60734884Y-113221535D01*
X60734885Y-113221537D01*
X60795769Y-113435523D01*
X60795775Y-113435538D01*
X60894938Y-113634683D01*
X60894943Y-113634691D01*
X61029020Y-113812238D01*
X61193437Y-113962123D01*
X61193439Y-113962125D01*
X61382595Y-114079245D01*
X61382596Y-114079245D01*
X61382599Y-114079247D01*
X61590060Y-114159618D01*
X61808757Y-114200500D01*
X61808759Y-114200500D01*
X62031241Y-114200500D01*
X62031243Y-114200500D01*
X62249940Y-114159618D01*
X62457401Y-114079247D01*
X62646562Y-113962124D01*
X62786282Y-113834751D01*
X62810979Y-113812238D01*
X62841564Y-113771738D01*
X62945058Y-113634689D01*
X63044229Y-113435528D01*
X63105115Y-113221536D01*
X63125643Y-113000000D01*
X63124943Y-112992451D01*
X63105115Y-112778464D01*
X63105114Y-112778462D01*
X63079308Y-112687764D01*
X63044229Y-112564472D01*
X63044224Y-112564461D01*
X62945061Y-112365316D01*
X62945056Y-112365308D01*
X62810979Y-112187761D01*
X62646562Y-112037876D01*
X62646560Y-112037874D01*
X62457404Y-111920754D01*
X62457398Y-111920752D01*
X62249940Y-111840382D01*
X62031243Y-111799500D01*
X61808757Y-111799500D01*
X61590060Y-111840382D01*
X61458864Y-111891207D01*
X61382601Y-111920752D01*
X61382595Y-111920754D01*
X61193439Y-112037874D01*
X61193437Y-112037876D01*
X61029020Y-112187761D01*
X60894943Y-112365308D01*
X60894938Y-112365316D01*
X60795775Y-112564461D01*
X60795769Y-112564476D01*
X60734885Y-112778462D01*
X60734884Y-112778464D01*
X60714357Y-112999999D01*
X51000500Y-112999999D01*
X51000500Y-66281902D01*
X53499500Y-66281902D01*
X53499500Y-68718097D01*
X53536446Y-68951364D01*
X53536446Y-68951365D01*
X53548431Y-68988250D01*
X53554500Y-69026568D01*
X53554500Y-81701044D01*
X53587492Y-81866907D01*
X53587493Y-81866907D01*
X53587493Y-81866909D01*
X53592949Y-81894335D01*
X53592950Y-81894337D01*
X53592950Y-81894339D01*
X53668364Y-82076407D01*
X53668371Y-82076420D01*
X53777859Y-82240280D01*
X53777860Y-82240281D01*
X53777861Y-82240282D01*
X53917218Y-82379639D01*
X53917219Y-82379639D01*
X53924286Y-82386706D01*
X53924285Y-82386706D01*
X53924289Y-82386709D01*
X54718181Y-83180601D01*
X54751666Y-83241924D01*
X54754500Y-83268282D01*
X54754500Y-84850370D01*
X54754501Y-84850376D01*
X54760908Y-84909983D01*
X54811202Y-85044828D01*
X54811206Y-85044835D01*
X54897452Y-85160044D01*
X54897455Y-85160047D01*
X55012664Y-85246293D01*
X55012671Y-85246297D01*
X55147517Y-85296591D01*
X55147516Y-85296591D01*
X55154444Y-85297335D01*
X55207127Y-85303000D01*
X57802872Y-85302999D01*
X57862483Y-85296591D01*
X57997331Y-85246296D01*
X58112546Y-85160046D01*
X58198796Y-85044831D01*
X58249091Y-84909983D01*
X58255500Y-84850373D01*
X58255499Y-82254628D01*
X58249091Y-82195017D01*
X58204852Y-82076407D01*
X58198797Y-82060171D01*
X58198793Y-82060164D01*
X58112547Y-81944955D01*
X58112544Y-81944952D01*
X57997335Y-81858706D01*
X57997328Y-81858702D01*
X57862482Y-81808408D01*
X57862483Y-81808408D01*
X57802883Y-81802001D01*
X57802881Y-81802000D01*
X57802873Y-81802000D01*
X57802865Y-81802000D01*
X56220783Y-81802000D01*
X56153744Y-81782315D01*
X56133102Y-81765681D01*
X55591819Y-81224398D01*
X55558334Y-81163075D01*
X55555500Y-81136717D01*
X55555500Y-80155497D01*
X55575185Y-80088458D01*
X55627989Y-80042703D01*
X55697147Y-80032759D01*
X55733297Y-80043775D01*
X55863677Y-80106563D01*
X56114385Y-80183896D01*
X56373818Y-80223000D01*
X56636182Y-80223000D01*
X56895615Y-80183896D01*
X57146323Y-80106563D01*
X57382704Y-79992728D01*
X57599479Y-79844933D01*
X57791805Y-79666481D01*
X57955386Y-79461357D01*
X58086568Y-79234143D01*
X58182420Y-78989916D01*
X58240802Y-78734130D01*
X58240803Y-78734120D01*
X58260408Y-78472504D01*
X58260408Y-78472495D01*
X58240803Y-78210879D01*
X58240802Y-78210874D01*
X58240802Y-78210870D01*
X58182420Y-77955084D01*
X58086568Y-77710857D01*
X57995137Y-77552494D01*
X79999357Y-77552494D01*
X79999357Y-77552505D01*
X80019890Y-77800312D01*
X80019892Y-77800324D01*
X80080936Y-78041381D01*
X80180826Y-78269106D01*
X80316833Y-78477282D01*
X80316836Y-78477285D01*
X80485256Y-78660238D01*
X80681491Y-78812974D01*
X80900190Y-78931328D01*
X81135386Y-79012071D01*
X81380665Y-79053000D01*
X81629335Y-79053000D01*
X81874614Y-79012071D01*
X82109810Y-78931328D01*
X82328509Y-78812974D01*
X82524744Y-78660238D01*
X82693164Y-78477285D01*
X82829173Y-78269107D01*
X82929063Y-78041381D01*
X82990108Y-77800321D01*
X82991395Y-77784789D01*
X83010643Y-77552505D01*
X83010643Y-77552494D01*
X84499357Y-77552494D01*
X84499357Y-77552505D01*
X84519890Y-77800312D01*
X84519892Y-77800324D01*
X84580936Y-78041381D01*
X84680826Y-78269106D01*
X84816833Y-78477282D01*
X84816836Y-78477285D01*
X84985256Y-78660238D01*
X85181491Y-78812974D01*
X85400190Y-78931328D01*
X85635386Y-79012071D01*
X85880665Y-79053000D01*
X86129335Y-79053000D01*
X86374614Y-79012071D01*
X86609810Y-78931328D01*
X86828509Y-78812974D01*
X87024744Y-78660238D01*
X87193164Y-78477285D01*
X87329173Y-78269107D01*
X87429063Y-78041381D01*
X87490108Y-77800321D01*
X87491395Y-77784789D01*
X87510643Y-77552505D01*
X87510643Y-77552494D01*
X87490109Y-77304687D01*
X87490107Y-77304675D01*
X87429063Y-77063618D01*
X87329173Y-76835893D01*
X87193166Y-76627717D01*
X87123927Y-76552504D01*
X87024744Y-76444762D01*
X86828509Y-76292026D01*
X86828507Y-76292025D01*
X86828506Y-76292024D01*
X86609811Y-76173672D01*
X86609802Y-76173669D01*
X86374616Y-76092929D01*
X86129335Y-76052000D01*
X85880665Y-76052000D01*
X85635383Y-76092929D01*
X85400197Y-76173669D01*
X85400188Y-76173672D01*
X85181493Y-76292024D01*
X84985257Y-76444761D01*
X84816833Y-76627717D01*
X84680826Y-76835893D01*
X84580936Y-77063618D01*
X84519892Y-77304675D01*
X84519890Y-77304687D01*
X84499357Y-77552494D01*
X83010643Y-77552494D01*
X82990109Y-77304687D01*
X82990107Y-77304675D01*
X82929063Y-77063618D01*
X82829173Y-76835893D01*
X82693166Y-76627717D01*
X82623927Y-76552504D01*
X82524744Y-76444762D01*
X82328509Y-76292026D01*
X82328507Y-76292025D01*
X82328506Y-76292024D01*
X82109811Y-76173672D01*
X82109802Y-76173669D01*
X81874616Y-76092929D01*
X81629335Y-76052000D01*
X81380665Y-76052000D01*
X81135383Y-76092929D01*
X80900197Y-76173669D01*
X80900188Y-76173672D01*
X80681493Y-76292024D01*
X80485257Y-76444761D01*
X80316833Y-76627717D01*
X80180826Y-76835893D01*
X80080936Y-77063618D01*
X80019892Y-77304675D01*
X80019890Y-77304687D01*
X79999357Y-77552494D01*
X57995137Y-77552494D01*
X57955386Y-77483643D01*
X57791805Y-77278519D01*
X57791804Y-77278518D01*
X57791801Y-77278514D01*
X57599479Y-77100067D01*
X57555263Y-77069921D01*
X57382704Y-76952272D01*
X57382700Y-76952270D01*
X57382697Y-76952268D01*
X57382696Y-76952267D01*
X57146325Y-76838438D01*
X57146327Y-76838438D01*
X56895623Y-76761106D01*
X56895619Y-76761105D01*
X56895615Y-76761104D01*
X56770823Y-76742294D01*
X56636187Y-76722000D01*
X56636182Y-76722000D01*
X56373818Y-76722000D01*
X56373812Y-76722000D01*
X56212247Y-76746353D01*
X56114385Y-76761104D01*
X56114382Y-76761105D01*
X56114376Y-76761106D01*
X55863673Y-76838438D01*
X55733301Y-76901222D01*
X55664360Y-76912574D01*
X55600225Y-76884852D01*
X55561260Y-76826856D01*
X55555500Y-76789502D01*
X55555500Y-72453109D01*
X55575185Y-72386070D01*
X55627989Y-72340315D01*
X55697147Y-72330371D01*
X55760703Y-72359396D01*
X55798477Y-72418174D01*
X55801973Y-72433711D01*
X55836446Y-72651368D01*
X55909433Y-72875996D01*
X56009674Y-73072728D01*
X56016657Y-73086433D01*
X56155483Y-73277510D01*
X56322490Y-73444517D01*
X56513567Y-73583343D01*
X56612991Y-73634002D01*
X56724003Y-73690566D01*
X56724005Y-73690566D01*
X56724008Y-73690568D01*
X56844412Y-73729689D01*
X56948631Y-73763553D01*
X57181903Y-73800500D01*
X57181908Y-73800500D01*
X59618097Y-73800500D01*
X59851368Y-73763553D01*
X59875629Y-73755670D01*
X60075992Y-73690568D01*
X60286433Y-73583343D01*
X60477510Y-73444517D01*
X60644517Y-73277510D01*
X60783343Y-73086433D01*
X60890568Y-72875992D01*
X60963553Y-72651368D01*
X60976008Y-72572731D01*
X61000500Y-72418097D01*
X61000500Y-72181902D01*
X60963553Y-71948631D01*
X60919855Y-71814143D01*
X60890568Y-71724008D01*
X60890566Y-71724005D01*
X60890566Y-71724003D01*
X60803180Y-71552500D01*
X60783343Y-71513567D01*
X60644517Y-71322490D01*
X60477510Y-71155483D01*
X60286433Y-71016657D01*
X60253740Y-70999999D01*
X60075996Y-70909433D01*
X59851368Y-70836446D01*
X59618097Y-70799500D01*
X59618092Y-70799500D01*
X57181908Y-70799500D01*
X57181903Y-70799500D01*
X56948631Y-70836446D01*
X56724003Y-70909433D01*
X56513566Y-71016657D01*
X56404550Y-71095862D01*
X56322490Y-71155483D01*
X56322488Y-71155485D01*
X56322487Y-71155485D01*
X56155485Y-71322487D01*
X56155485Y-71322488D01*
X56155483Y-71322490D01*
X56102537Y-71395364D01*
X56016657Y-71513566D01*
X55909433Y-71724003D01*
X55836446Y-71948631D01*
X55801973Y-72166288D01*
X55772044Y-72229423D01*
X55712732Y-72266354D01*
X55642870Y-72265356D01*
X55584637Y-72226746D01*
X55556523Y-72162782D01*
X55555500Y-72146890D01*
X55555500Y-70076996D01*
X55575185Y-70009957D01*
X55623205Y-69966511D01*
X55786433Y-69883343D01*
X55977510Y-69744517D01*
X56144517Y-69577510D01*
X56283343Y-69386433D01*
X56390568Y-69175992D01*
X56463553Y-68951368D01*
X56463554Y-68951364D01*
X56500500Y-68718097D01*
X56500500Y-67465782D01*
X56520185Y-67398743D01*
X56536819Y-67378101D01*
X58762785Y-65152135D01*
X59799500Y-65152135D01*
X59799500Y-69847870D01*
X59799501Y-69847876D01*
X59805908Y-69907483D01*
X59856202Y-70042328D01*
X59856206Y-70042335D01*
X59942452Y-70157544D01*
X59942455Y-70157547D01*
X60057664Y-70243793D01*
X60057671Y-70243797D01*
X60192517Y-70294091D01*
X60192516Y-70294091D01*
X60199444Y-70294835D01*
X60252127Y-70300500D01*
X62347872Y-70300499D01*
X62407483Y-70294091D01*
X62542331Y-70243796D01*
X62657546Y-70157546D01*
X62743796Y-70042331D01*
X62794091Y-69907483D01*
X62800500Y-69847873D01*
X62800499Y-65152128D01*
X62794091Y-65092517D01*
X62793319Y-65090448D01*
X62743797Y-64957671D01*
X62743793Y-64957664D01*
X62657547Y-64842455D01*
X62657544Y-64842452D01*
X62542335Y-64756206D01*
X62542328Y-64756202D01*
X62407482Y-64705908D01*
X62407483Y-64705908D01*
X62347883Y-64699501D01*
X62347881Y-64699500D01*
X62347873Y-64699500D01*
X62347864Y-64699500D01*
X60252129Y-64699500D01*
X60252123Y-64699501D01*
X60192516Y-64705908D01*
X60057671Y-64756202D01*
X60057664Y-64756206D01*
X59942455Y-64842452D01*
X59942452Y-64842455D01*
X59856206Y-64957664D01*
X59856202Y-64957671D01*
X59805908Y-65092517D01*
X59800067Y-65146853D01*
X59799501Y-65152123D01*
X59799500Y-65152135D01*
X58762785Y-65152135D01*
X60378101Y-63536819D01*
X60439424Y-63503334D01*
X60465782Y-63500500D01*
X80380500Y-63500500D01*
X80447539Y-63520185D01*
X80493294Y-63572989D01*
X80504500Y-63624500D01*
X80504500Y-69375471D01*
X80484815Y-69442510D01*
X80471730Y-69459453D01*
X80316836Y-69627714D01*
X80180826Y-69835893D01*
X80080936Y-70063618D01*
X80019892Y-70304675D01*
X80019890Y-70304687D01*
X79999357Y-70552494D01*
X79999357Y-70552505D01*
X80019890Y-70800312D01*
X80019892Y-70800324D01*
X80080936Y-71041381D01*
X80180826Y-71269106D01*
X80316833Y-71477282D01*
X80316836Y-71477285D01*
X80485256Y-71660238D01*
X80681491Y-71812974D01*
X80900190Y-71931328D01*
X81135386Y-72012071D01*
X81380665Y-72053000D01*
X81629335Y-72053000D01*
X81874614Y-72012071D01*
X82109810Y-71931328D01*
X82328509Y-71812974D01*
X82524744Y-71660238D01*
X82693164Y-71477285D01*
X82829173Y-71269107D01*
X82929063Y-71041381D01*
X82990108Y-70800321D01*
X82990176Y-70799500D01*
X83010643Y-70552505D01*
X83010643Y-70552494D01*
X82990109Y-70304687D01*
X82990107Y-70304675D01*
X82929063Y-70063618D01*
X82829173Y-69835893D01*
X82727367Y-69680067D01*
X82693164Y-69627715D01*
X82646949Y-69577512D01*
X82538270Y-69459453D01*
X82507348Y-69396799D01*
X82505500Y-69375471D01*
X82505500Y-60438281D01*
X82525185Y-60371242D01*
X82541814Y-60350605D01*
X84571930Y-58320488D01*
X84633251Y-58287005D01*
X84678090Y-58285556D01*
X84793818Y-58303000D01*
X84793824Y-58303000D01*
X85056182Y-58303000D01*
X85315615Y-58263896D01*
X85566323Y-58186563D01*
X85802704Y-58072728D01*
X86019479Y-57924933D01*
X86186260Y-57770183D01*
X86211801Y-57746485D01*
X86211801Y-57746483D01*
X86211805Y-57746481D01*
X86375386Y-57541357D01*
X86506568Y-57314143D01*
X86602420Y-57069916D01*
X86660802Y-56814130D01*
X86660803Y-56814120D01*
X86680408Y-56552504D01*
X86680408Y-56552495D01*
X86660922Y-56292472D01*
X86675541Y-56224149D01*
X86696891Y-56195529D01*
X88855602Y-54036819D01*
X88916925Y-54003334D01*
X88943283Y-54000500D01*
X93084218Y-54000500D01*
X93151257Y-54020185D01*
X93171899Y-54036819D01*
X95328105Y-56193025D01*
X95361590Y-56254348D01*
X95364077Y-56289972D01*
X95344592Y-56549995D01*
X95344592Y-56550004D01*
X95364196Y-56811620D01*
X95364197Y-56811625D01*
X95364197Y-56811629D01*
X95364198Y-56811630D01*
X95364769Y-56814130D01*
X95422576Y-57067402D01*
X95422578Y-57067411D01*
X95422580Y-57067416D01*
X95518432Y-57311643D01*
X95649614Y-57538857D01*
X95757381Y-57673992D01*
X95813198Y-57743985D01*
X95953860Y-57874499D01*
X96005521Y-57922433D01*
X96222296Y-58070228D01*
X96222301Y-58070230D01*
X96222302Y-58070231D01*
X96222303Y-58070232D01*
X96347843Y-58130688D01*
X96458673Y-58184061D01*
X96458674Y-58184061D01*
X96458677Y-58184063D01*
X96709385Y-58261396D01*
X96968818Y-58300500D01*
X97231176Y-58300500D01*
X97231182Y-58300500D01*
X97346908Y-58283056D01*
X97416132Y-58292529D01*
X97453070Y-58317990D01*
X99769735Y-60634655D01*
X99769764Y-60634686D01*
X99912217Y-60777139D01*
X100076080Y-60886628D01*
X100076086Y-60886632D01*
X100191774Y-60934551D01*
X100258164Y-60962051D01*
X100338345Y-60978000D01*
X100366623Y-60983625D01*
X100451456Y-61000500D01*
X100451459Y-61000500D01*
X107518543Y-61000500D01*
X107593950Y-60985500D01*
X107631655Y-60978000D01*
X107711836Y-60962051D01*
X107778226Y-60934551D01*
X107893914Y-60886632D01*
X108057782Y-60777139D01*
X108197139Y-60637782D01*
X108197139Y-60637780D01*
X108207347Y-60627573D01*
X108207348Y-60627570D01*
X110548102Y-58286818D01*
X110609425Y-58253333D01*
X110635783Y-58250499D01*
X112217871Y-58250499D01*
X112217872Y-58250499D01*
X112277483Y-58244091D01*
X112412331Y-58193796D01*
X112527546Y-58107546D01*
X112613796Y-57992331D01*
X112664091Y-57857483D01*
X112670500Y-57797873D01*
X112670499Y-56215781D01*
X112690184Y-56148743D01*
X112706818Y-56128101D01*
X114798102Y-54036819D01*
X114859425Y-54003334D01*
X114885783Y-54000500D01*
X127881718Y-54000500D01*
X127948757Y-54020185D01*
X127969399Y-54036819D01*
X128522898Y-54590319D01*
X128556383Y-54651642D01*
X128551399Y-54721334D01*
X128509527Y-54777267D01*
X128444063Y-54801684D01*
X128435217Y-54802000D01*
X126702129Y-54802000D01*
X126702123Y-54802001D01*
X126642516Y-54808408D01*
X126507671Y-54858702D01*
X126507664Y-54858706D01*
X126392455Y-54944952D01*
X126392452Y-54944955D01*
X126306206Y-55060164D01*
X126306202Y-55060171D01*
X126255908Y-55195017D01*
X126249768Y-55252135D01*
X126249501Y-55254623D01*
X126249500Y-55254635D01*
X126249500Y-57850370D01*
X126249501Y-57850376D01*
X126255908Y-57909983D01*
X126306202Y-58044828D01*
X126306206Y-58044835D01*
X126392452Y-58160044D01*
X126392455Y-58160047D01*
X126507664Y-58246293D01*
X126507671Y-58246297D01*
X126642517Y-58296591D01*
X126642516Y-58296591D01*
X126649444Y-58297335D01*
X126702127Y-58303000D01*
X129297872Y-58302999D01*
X129357483Y-58296591D01*
X129492331Y-58246296D01*
X129607546Y-58160046D01*
X129693796Y-58044831D01*
X129744091Y-57909983D01*
X129750500Y-57850373D01*
X129750499Y-56117280D01*
X129770184Y-56050242D01*
X129822987Y-56004487D01*
X129892146Y-55994543D01*
X129955702Y-56023568D01*
X129962180Y-56029600D01*
X130463181Y-56530601D01*
X130496666Y-56591924D01*
X130499500Y-56618282D01*
X130499500Y-68141042D01*
X130507684Y-68182183D01*
X130507684Y-68182185D01*
X130537947Y-68334328D01*
X130537950Y-68334340D01*
X130551500Y-68367051D01*
X130613366Y-68516411D01*
X130613371Y-68516420D01*
X130722859Y-68680280D01*
X130722860Y-68680281D01*
X130722861Y-68680282D01*
X130862218Y-68819639D01*
X130862219Y-68819639D01*
X130869286Y-68826706D01*
X130869285Y-68826706D01*
X130869289Y-68826709D01*
X133238105Y-71195526D01*
X133271590Y-71256849D01*
X133274077Y-71292473D01*
X133254592Y-71552495D01*
X133254592Y-71552504D01*
X133274196Y-71814120D01*
X133274197Y-71814125D01*
X133332576Y-72069902D01*
X133332578Y-72069911D01*
X133332580Y-72069916D01*
X133428432Y-72314143D01*
X133559614Y-72541357D01*
X133584635Y-72572732D01*
X133723198Y-72746485D01*
X133862775Y-72875992D01*
X133915521Y-72924933D01*
X134132296Y-73072728D01*
X134132301Y-73072730D01*
X134132302Y-73072731D01*
X134132303Y-73072732D01*
X134257843Y-73133188D01*
X134368673Y-73186561D01*
X134368674Y-73186561D01*
X134368677Y-73186563D01*
X134619385Y-73263896D01*
X134878818Y-73303000D01*
X135141182Y-73303000D01*
X135400615Y-73263896D01*
X135419392Y-73258103D01*
X135489252Y-73257151D01*
X135543624Y-73288913D01*
X140003181Y-77748470D01*
X140036666Y-77809793D01*
X140039500Y-77836151D01*
X140039500Y-78973771D01*
X140072181Y-79138074D01*
X140072184Y-79138083D01*
X140089744Y-79180476D01*
X140136292Y-79292856D01*
X140136299Y-79292869D01*
X140229372Y-79432161D01*
X140229375Y-79432165D01*
X141613181Y-80815970D01*
X141646666Y-80877293D01*
X141649500Y-80903651D01*
X141649500Y-94025500D01*
X141629815Y-94092539D01*
X141577011Y-94138294D01*
X141525500Y-94149500D01*
X141416228Y-94149500D01*
X141251925Y-94182182D01*
X141251913Y-94182185D01*
X141206583Y-94200962D01*
X141097143Y-94246292D01*
X141097130Y-94246299D01*
X140957838Y-94339372D01*
X140957834Y-94339375D01*
X140339375Y-94957834D01*
X140339372Y-94957838D01*
X140246299Y-95097130D01*
X140246292Y-95097143D01*
X140200962Y-95206583D01*
X140182185Y-95251913D01*
X140182182Y-95251925D01*
X140149500Y-95416228D01*
X140149500Y-96151373D01*
X140137101Y-96200876D01*
X140138627Y-96201509D01*
X140117009Y-96253702D01*
X140117008Y-96253704D01*
X140072184Y-96361917D01*
X140072182Y-96361925D01*
X140039500Y-96526228D01*
X140039500Y-96861545D01*
X140019815Y-96928584D01*
X140012504Y-96937657D01*
X140012768Y-96937855D01*
X139921206Y-97060164D01*
X139921202Y-97060171D01*
X139870908Y-97195017D01*
X139864501Y-97254616D01*
X139864500Y-97254635D01*
X139864500Y-98850370D01*
X139864501Y-98850376D01*
X139870908Y-98909983D01*
X139921202Y-99044828D01*
X139921206Y-99044835D01*
X140007452Y-99160044D01*
X140007455Y-99160047D01*
X140122664Y-99246293D01*
X140122671Y-99246297D01*
X140257517Y-99296591D01*
X140257516Y-99296591D01*
X140264444Y-99297335D01*
X140317127Y-99303000D01*
X141462872Y-99302999D01*
X141522483Y-99296591D01*
X141657331Y-99246296D01*
X141658430Y-99245472D01*
X141659717Y-99244992D01*
X141665112Y-99242047D01*
X141665535Y-99242822D01*
X141723887Y-99221052D01*
X141780198Y-99230173D01*
X141860873Y-99263591D01*
X142026777Y-99296591D01*
X142058992Y-99302999D01*
X142058996Y-99303000D01*
X142058997Y-99303000D01*
X142261004Y-99303000D01*
X142261005Y-99302999D01*
X142459127Y-99263591D01*
X142645756Y-99186286D01*
X142726110Y-99132594D01*
X142792786Y-99111717D01*
X142860166Y-99130201D01*
X142863865Y-99132578D01*
X142944244Y-99186286D01*
X143130873Y-99263591D01*
X143296777Y-99296591D01*
X143328992Y-99302999D01*
X143328996Y-99303000D01*
X143328997Y-99303000D01*
X143531004Y-99303000D01*
X143531005Y-99302999D01*
X143729127Y-99263591D01*
X143915756Y-99186286D01*
X144083718Y-99074058D01*
X144226558Y-98931218D01*
X144338786Y-98763256D01*
X144416091Y-98576627D01*
X144455500Y-98378503D01*
X144455500Y-97726497D01*
X144416091Y-97528373D01*
X144338786Y-97341744D01*
X144338784Y-97341741D01*
X144338782Y-97341737D01*
X144226558Y-97173781D01*
X144083718Y-97030941D01*
X143915762Y-96918717D01*
X143915752Y-96918712D01*
X143729127Y-96841409D01*
X143729119Y-96841407D01*
X143531007Y-96802000D01*
X143531003Y-96802000D01*
X143328997Y-96802000D01*
X143328992Y-96802000D01*
X143130880Y-96841407D01*
X143130872Y-96841409D01*
X142944244Y-96918713D01*
X142863891Y-96972404D01*
X142797213Y-96993282D01*
X142729833Y-96974797D01*
X142726109Y-96972404D01*
X142645755Y-96918713D01*
X142459127Y-96841409D01*
X142459119Y-96841407D01*
X142261007Y-96802000D01*
X142261003Y-96802000D01*
X142058997Y-96802000D01*
X142058992Y-96802000D01*
X141978726Y-96817966D01*
X141909134Y-96811739D01*
X141853957Y-96768875D01*
X141830713Y-96702985D01*
X141832918Y-96672157D01*
X141850500Y-96583767D01*
X141850500Y-95974500D01*
X141870185Y-95907461D01*
X141922989Y-95861706D01*
X141974500Y-95850500D01*
X142583768Y-95850500D01*
X142583769Y-95850499D01*
X142748082Y-95817816D01*
X142902863Y-95753703D01*
X143042162Y-95660626D01*
X143160626Y-95542162D01*
X143253703Y-95402863D01*
X143317816Y-95248082D01*
X143350500Y-95083767D01*
X143350500Y-88499999D01*
X151214357Y-88499999D01*
X151214357Y-88500000D01*
X151234884Y-88721535D01*
X151234885Y-88721537D01*
X151295769Y-88935523D01*
X151295775Y-88935538D01*
X151394938Y-89134683D01*
X151394943Y-89134691D01*
X151529020Y-89312238D01*
X151693437Y-89462123D01*
X151693439Y-89462125D01*
X151882595Y-89579245D01*
X151882596Y-89579245D01*
X151882599Y-89579247D01*
X152090060Y-89659618D01*
X152308757Y-89700500D01*
X152308759Y-89700500D01*
X152531241Y-89700500D01*
X152531243Y-89700500D01*
X152749940Y-89659618D01*
X152957401Y-89579247D01*
X153146562Y-89462124D01*
X153310981Y-89312236D01*
X153445058Y-89134689D01*
X153544229Y-88935528D01*
X153605115Y-88721536D01*
X153625643Y-88500000D01*
X153625643Y-88499999D01*
X156294357Y-88499999D01*
X156294357Y-88500000D01*
X156314884Y-88721535D01*
X156314885Y-88721537D01*
X156375769Y-88935523D01*
X156375775Y-88935538D01*
X156474938Y-89134683D01*
X156474943Y-89134691D01*
X156609020Y-89312238D01*
X156773437Y-89462123D01*
X156773439Y-89462125D01*
X156962595Y-89579245D01*
X156962596Y-89579245D01*
X156962599Y-89579247D01*
X157170060Y-89659618D01*
X157388757Y-89700500D01*
X157388759Y-89700500D01*
X157611241Y-89700500D01*
X157611243Y-89700500D01*
X157829940Y-89659618D01*
X158037401Y-89579247D01*
X158226562Y-89462124D01*
X158390981Y-89312236D01*
X158525058Y-89134689D01*
X158624229Y-88935528D01*
X158685115Y-88721536D01*
X158705643Y-88500000D01*
X158685115Y-88278464D01*
X158624229Y-88064472D01*
X158624224Y-88064461D01*
X158525061Y-87865316D01*
X158525056Y-87865308D01*
X158390979Y-87687761D01*
X158226562Y-87537876D01*
X158226560Y-87537874D01*
X158037404Y-87420754D01*
X158037398Y-87420752D01*
X157829940Y-87340382D01*
X157611243Y-87299500D01*
X157388757Y-87299500D01*
X157170060Y-87340382D01*
X157060626Y-87382777D01*
X156962601Y-87420752D01*
X156962595Y-87420754D01*
X156773439Y-87537874D01*
X156773437Y-87537876D01*
X156609020Y-87687761D01*
X156474943Y-87865308D01*
X156474938Y-87865316D01*
X156375775Y-88064461D01*
X156375769Y-88064476D01*
X156314885Y-88278462D01*
X156314884Y-88278464D01*
X156294357Y-88499999D01*
X153625643Y-88499999D01*
X153605115Y-88278464D01*
X153544229Y-88064472D01*
X153544224Y-88064461D01*
X153445061Y-87865316D01*
X153445056Y-87865308D01*
X153310979Y-87687761D01*
X153146562Y-87537876D01*
X153146560Y-87537874D01*
X152957404Y-87420754D01*
X152957398Y-87420752D01*
X152749940Y-87340382D01*
X152531243Y-87299500D01*
X152308757Y-87299500D01*
X152090060Y-87340382D01*
X151980626Y-87382777D01*
X151882601Y-87420752D01*
X151882595Y-87420754D01*
X151693439Y-87537874D01*
X151693437Y-87537876D01*
X151529020Y-87687761D01*
X151394943Y-87865308D01*
X151394938Y-87865316D01*
X151295775Y-88064461D01*
X151295769Y-88064476D01*
X151234885Y-88278462D01*
X151234884Y-88278464D01*
X151214357Y-88499999D01*
X143350500Y-88499999D01*
X143350500Y-83999994D01*
X155419357Y-83999994D01*
X155419357Y-84000005D01*
X155439890Y-84247812D01*
X155439892Y-84247824D01*
X155500936Y-84488881D01*
X155600826Y-84716606D01*
X155736833Y-84924782D01*
X155736836Y-84924785D01*
X155905256Y-85107738D01*
X156101491Y-85260474D01*
X156320190Y-85378828D01*
X156555386Y-85459571D01*
X156800665Y-85500500D01*
X157049335Y-85500500D01*
X157294614Y-85459571D01*
X157529810Y-85378828D01*
X157748509Y-85260474D01*
X157944744Y-85107738D01*
X158113164Y-84924785D01*
X158249173Y-84716607D01*
X158349063Y-84488881D01*
X158410108Y-84247821D01*
X158422799Y-84094662D01*
X158430643Y-84000005D01*
X158430643Y-83999994D01*
X158410109Y-83752187D01*
X158410107Y-83752175D01*
X158349063Y-83511118D01*
X158249173Y-83283393D01*
X158113166Y-83075217D01*
X158019301Y-82973253D01*
X157944744Y-82892262D01*
X157748509Y-82739526D01*
X157748507Y-82739525D01*
X157748506Y-82739524D01*
X157529811Y-82621172D01*
X157529802Y-82621169D01*
X157294616Y-82540429D01*
X157049335Y-82499500D01*
X156800665Y-82499500D01*
X156555383Y-82540429D01*
X156320197Y-82621169D01*
X156320188Y-82621172D01*
X156101493Y-82739524D01*
X155905257Y-82892261D01*
X155736833Y-83075217D01*
X155600826Y-83283393D01*
X155500936Y-83511118D01*
X155439892Y-83752175D01*
X155439890Y-83752187D01*
X155419357Y-83999994D01*
X143350500Y-83999994D01*
X143350500Y-80416233D01*
X143323826Y-80282135D01*
X147249500Y-80282135D01*
X147249500Y-82877870D01*
X147249501Y-82877876D01*
X147255908Y-82937483D01*
X147306202Y-83072328D01*
X147306206Y-83072335D01*
X147392452Y-83187544D01*
X147392455Y-83187547D01*
X147507664Y-83273793D01*
X147507671Y-83273797D01*
X147642517Y-83324091D01*
X147642516Y-83324091D01*
X147649444Y-83324835D01*
X147702127Y-83330500D01*
X150297872Y-83330499D01*
X150357483Y-83324091D01*
X150492331Y-83273796D01*
X150607546Y-83187546D01*
X150693796Y-83072331D01*
X150744091Y-82937483D01*
X150750500Y-82877873D01*
X150750499Y-80282128D01*
X150744091Y-80222517D01*
X150729686Y-80183896D01*
X150693797Y-80087671D01*
X150693793Y-80087664D01*
X150607547Y-79972455D01*
X150607544Y-79972452D01*
X150492335Y-79886206D01*
X150492328Y-79886202D01*
X150357482Y-79835908D01*
X150357483Y-79835908D01*
X150297883Y-79829501D01*
X150297881Y-79829500D01*
X150297873Y-79829500D01*
X150297864Y-79829500D01*
X147702129Y-79829500D01*
X147702123Y-79829501D01*
X147642516Y-79835908D01*
X147507671Y-79886202D01*
X147507664Y-79886206D01*
X147392455Y-79972452D01*
X147392452Y-79972455D01*
X147306206Y-80087664D01*
X147306202Y-80087671D01*
X147255908Y-80222517D01*
X147252747Y-80251925D01*
X147249501Y-80282123D01*
X147249500Y-80282135D01*
X143323826Y-80282135D01*
X143317816Y-80251918D01*
X143283768Y-80169719D01*
X143253704Y-80097137D01*
X143253702Y-80097135D01*
X143253702Y-80097133D01*
X143160627Y-79957838D01*
X143160624Y-79957834D01*
X141776819Y-78574029D01*
X141743334Y-78512706D01*
X141740500Y-78486348D01*
X141740500Y-77348732D01*
X141740499Y-77348728D01*
X141720428Y-77247824D01*
X141707816Y-77184418D01*
X141674089Y-77102994D01*
X141643704Y-77029637D01*
X141643702Y-77029635D01*
X141643702Y-77029633D01*
X141550627Y-76890338D01*
X141550624Y-76890334D01*
X141160285Y-76499995D01*
X147244592Y-76499995D01*
X147244592Y-76500004D01*
X147264196Y-76761620D01*
X147264197Y-76761625D01*
X147322576Y-77017402D01*
X147322578Y-77017411D01*
X147322580Y-77017416D01*
X147418432Y-77261643D01*
X147549614Y-77488857D01*
X147600363Y-77552494D01*
X147713198Y-77693985D01*
X147838011Y-77809793D01*
X147905521Y-77872433D01*
X148122296Y-78020228D01*
X148122301Y-78020230D01*
X148122302Y-78020231D01*
X148122303Y-78020232D01*
X148231313Y-78072728D01*
X148358673Y-78134061D01*
X148358674Y-78134061D01*
X148358677Y-78134063D01*
X148609385Y-78211396D01*
X148868818Y-78250500D01*
X149131182Y-78250500D01*
X149390615Y-78211396D01*
X149641323Y-78134063D01*
X149877704Y-78020228D01*
X150094479Y-77872433D01*
X150267940Y-77711485D01*
X150286801Y-77693985D01*
X150286801Y-77693983D01*
X150286805Y-77693981D01*
X150450386Y-77488857D01*
X150581568Y-77261643D01*
X150677420Y-77017416D01*
X150681396Y-76999994D01*
X155494357Y-76999994D01*
X155494357Y-77000005D01*
X155514890Y-77247812D01*
X155514892Y-77247824D01*
X155575936Y-77488881D01*
X155675826Y-77716606D01*
X155811833Y-77924782D01*
X155811836Y-77924785D01*
X155980256Y-78107738D01*
X156176491Y-78260474D01*
X156395190Y-78378828D01*
X156630386Y-78459571D01*
X156875665Y-78500500D01*
X157124335Y-78500500D01*
X157369614Y-78459571D01*
X157604810Y-78378828D01*
X157823509Y-78260474D01*
X158019744Y-78107738D01*
X158188164Y-77924785D01*
X158324173Y-77716607D01*
X158424063Y-77488881D01*
X158485108Y-77247821D01*
X158497109Y-77102993D01*
X158505643Y-77000005D01*
X158505643Y-76999994D01*
X158485109Y-76752187D01*
X158485107Y-76752175D01*
X158424063Y-76511118D01*
X158324173Y-76283393D01*
X158188166Y-76075217D01*
X158119001Y-76000084D01*
X158019744Y-75892262D01*
X157823509Y-75739526D01*
X157823507Y-75739525D01*
X157823506Y-75739524D01*
X157604811Y-75621172D01*
X157604802Y-75621169D01*
X157369616Y-75540429D01*
X157124335Y-75499500D01*
X156875665Y-75499500D01*
X156630383Y-75540429D01*
X156395197Y-75621169D01*
X156395188Y-75621172D01*
X156176493Y-75739524D01*
X155980257Y-75892261D01*
X155811833Y-76075217D01*
X155675826Y-76283393D01*
X155575936Y-76511118D01*
X155514892Y-76752175D01*
X155514890Y-76752187D01*
X155494357Y-76999994D01*
X150681396Y-76999994D01*
X150735802Y-76761630D01*
X150735803Y-76761620D01*
X150755408Y-76500004D01*
X150755408Y-76499995D01*
X150735803Y-76238379D01*
X150735802Y-76238374D01*
X150735802Y-76238370D01*
X150677420Y-75982584D01*
X150581568Y-75738357D01*
X150450386Y-75511143D01*
X150286805Y-75306019D01*
X150286804Y-75306018D01*
X150286801Y-75306014D01*
X150094479Y-75127567D01*
X149877704Y-74979772D01*
X149877700Y-74979770D01*
X149877697Y-74979768D01*
X149877696Y-74979767D01*
X149641325Y-74865938D01*
X149641327Y-74865938D01*
X149390623Y-74788606D01*
X149390619Y-74788605D01*
X149390615Y-74788604D01*
X149247285Y-74767000D01*
X149131187Y-74749500D01*
X149131182Y-74749500D01*
X148868818Y-74749500D01*
X148868812Y-74749500D01*
X148707247Y-74773853D01*
X148609385Y-74788604D01*
X148609382Y-74788605D01*
X148609376Y-74788606D01*
X148358673Y-74865938D01*
X148122303Y-74979767D01*
X148122302Y-74979768D01*
X147905520Y-75127567D01*
X147713198Y-75306014D01*
X147549614Y-75511143D01*
X147418432Y-75738356D01*
X147322582Y-75982578D01*
X147322576Y-75982597D01*
X147264197Y-76238374D01*
X147264196Y-76238379D01*
X147244592Y-76499995D01*
X141160285Y-76499995D01*
X137274970Y-72614681D01*
X137241485Y-72553358D01*
X137246469Y-72483666D01*
X137288341Y-72427733D01*
X137353805Y-72403316D01*
X137362651Y-72403000D01*
X138261268Y-72403000D01*
X138261269Y-72402999D01*
X138346381Y-72386070D01*
X138425574Y-72370318D01*
X138425578Y-72370316D01*
X138425582Y-72370316D01*
X138470915Y-72351537D01*
X138580363Y-72306204D01*
X138719662Y-72213127D01*
X141932789Y-68999999D01*
X143214357Y-68999999D01*
X143214357Y-69000000D01*
X143234884Y-69221535D01*
X143234885Y-69221537D01*
X143295769Y-69435523D01*
X143295775Y-69435538D01*
X143394938Y-69634683D01*
X143394943Y-69634691D01*
X143529020Y-69812238D01*
X143693437Y-69962123D01*
X143693439Y-69962125D01*
X143882595Y-70079245D01*
X143882596Y-70079245D01*
X143882599Y-70079247D01*
X144090060Y-70159618D01*
X144308757Y-70200500D01*
X144308759Y-70200500D01*
X144531241Y-70200500D01*
X144531243Y-70200500D01*
X144749940Y-70159618D01*
X144957401Y-70079247D01*
X145146562Y-69962124D01*
X145310981Y-69812236D01*
X145445058Y-69634689D01*
X145544229Y-69435528D01*
X145605115Y-69221536D01*
X145625643Y-69000000D01*
X145625643Y-68999999D01*
X148294357Y-68999999D01*
X148294357Y-69000000D01*
X148314884Y-69221535D01*
X148314885Y-69221537D01*
X148375769Y-69435523D01*
X148375775Y-69435538D01*
X148474938Y-69634683D01*
X148474943Y-69634691D01*
X148609020Y-69812238D01*
X148773437Y-69962123D01*
X148773439Y-69962125D01*
X148962595Y-70079245D01*
X148962596Y-70079245D01*
X148962599Y-70079247D01*
X149170060Y-70159618D01*
X149388757Y-70200500D01*
X149388759Y-70200500D01*
X149611241Y-70200500D01*
X149611243Y-70200500D01*
X149829940Y-70159618D01*
X150037401Y-70079247D01*
X150226562Y-69962124D01*
X150390981Y-69812236D01*
X150525058Y-69634689D01*
X150624229Y-69435528D01*
X150685115Y-69221536D01*
X150705643Y-69000000D01*
X150689585Y-68826709D01*
X150685115Y-68778464D01*
X150685114Y-68778462D01*
X150674175Y-68740016D01*
X150624229Y-68564472D01*
X150624224Y-68564461D01*
X150525061Y-68365316D01*
X150525056Y-68365308D01*
X150390979Y-68187761D01*
X150226562Y-68037876D01*
X150226560Y-68037874D01*
X150037401Y-67920753D01*
X150037398Y-67920752D01*
X150009600Y-67909983D01*
X149829940Y-67840382D01*
X149611243Y-67799500D01*
X149388757Y-67799500D01*
X149170060Y-67840382D01*
X149144263Y-67850376D01*
X148962601Y-67920752D01*
X148962599Y-67920753D01*
X148773439Y-68037874D01*
X148773437Y-68037876D01*
X148609020Y-68187761D01*
X148474943Y-68365308D01*
X148474938Y-68365316D01*
X148375775Y-68564461D01*
X148375769Y-68564476D01*
X148314885Y-68778462D01*
X148314884Y-68778464D01*
X148294357Y-68999999D01*
X145625643Y-68999999D01*
X145609585Y-68826709D01*
X145605115Y-68778464D01*
X145605114Y-68778462D01*
X145594175Y-68740016D01*
X145544229Y-68564472D01*
X145544224Y-68564461D01*
X145445061Y-68365316D01*
X145445056Y-68365308D01*
X145310979Y-68187761D01*
X145146562Y-68037876D01*
X145146560Y-68037874D01*
X144957401Y-67920753D01*
X144957398Y-67920752D01*
X144929600Y-67909983D01*
X144749940Y-67840382D01*
X144531243Y-67799500D01*
X144308757Y-67799500D01*
X144090060Y-67840382D01*
X144064263Y-67850376D01*
X143882601Y-67920752D01*
X143882599Y-67920753D01*
X143693439Y-68037874D01*
X143693437Y-68037876D01*
X143529020Y-68187761D01*
X143394943Y-68365308D01*
X143394938Y-68365316D01*
X143295775Y-68564461D01*
X143295769Y-68564476D01*
X143234885Y-68778462D01*
X143234884Y-68778464D01*
X143214357Y-68999999D01*
X141932789Y-68999999D01*
X150917318Y-60015469D01*
X150978641Y-59981985D01*
X151048333Y-59986969D01*
X151092680Y-60015470D01*
X156636873Y-65559662D01*
X159613181Y-68535970D01*
X159646666Y-68597293D01*
X159649500Y-68623651D01*
X159649500Y-83636271D01*
X159682181Y-83800573D01*
X159682184Y-83800582D01*
X159746296Y-83955363D01*
X159746297Y-83955366D01*
X159839372Y-84094661D01*
X159839375Y-84094665D01*
X163276169Y-87531457D01*
X163309654Y-87592780D01*
X163309379Y-87646731D01*
X163274197Y-87800872D01*
X163254592Y-88062495D01*
X163254592Y-88062504D01*
X163274196Y-88324120D01*
X163274197Y-88324125D01*
X163332576Y-88579902D01*
X163332578Y-88579911D01*
X163332580Y-88579916D01*
X163428432Y-88824143D01*
X163559614Y-89051357D01*
X163678552Y-89200500D01*
X163723198Y-89256485D01*
X163904753Y-89424941D01*
X163915521Y-89434933D01*
X164132296Y-89582728D01*
X164132301Y-89582730D01*
X164132302Y-89582731D01*
X164132303Y-89582732D01*
X164257843Y-89643188D01*
X164368673Y-89696561D01*
X164368674Y-89696561D01*
X164368677Y-89696563D01*
X164619385Y-89773896D01*
X164878818Y-89813000D01*
X165141182Y-89813000D01*
X165400615Y-89773896D01*
X165651323Y-89696563D01*
X165887704Y-89582728D01*
X166104479Y-89434933D01*
X166296805Y-89256481D01*
X166460386Y-89051357D01*
X166591568Y-88824143D01*
X166687420Y-88579916D01*
X166745802Y-88324130D01*
X166746693Y-88312238D01*
X166765408Y-88062504D01*
X166765408Y-88062495D01*
X166745803Y-87800879D01*
X166745802Y-87800874D01*
X166745802Y-87800872D01*
X166745802Y-87800870D01*
X166687420Y-87545084D01*
X166591568Y-87300857D01*
X166460386Y-87073643D01*
X166296805Y-86868519D01*
X166296804Y-86868518D01*
X166296801Y-86868514D01*
X166104479Y-86690067D01*
X166042432Y-86647764D01*
X165887704Y-86542272D01*
X165887700Y-86542270D01*
X165887697Y-86542268D01*
X165887696Y-86542267D01*
X165651325Y-86428438D01*
X165651327Y-86428438D01*
X165400623Y-86351106D01*
X165400619Y-86351105D01*
X165400615Y-86351104D01*
X165275823Y-86332294D01*
X165141187Y-86312000D01*
X165141182Y-86312000D01*
X164878818Y-86312000D01*
X164878812Y-86312000D01*
X164698535Y-86339173D01*
X164619385Y-86351104D01*
X164619382Y-86351104D01*
X164619381Y-86351105D01*
X164600603Y-86356897D01*
X164530740Y-86357845D01*
X164476375Y-86326086D01*
X161386819Y-83236530D01*
X161353334Y-83175207D01*
X161350500Y-83148849D01*
X161350500Y-80299635D01*
X163259500Y-80299635D01*
X163259500Y-82895370D01*
X163259501Y-82895376D01*
X163265908Y-82954983D01*
X163316202Y-83089828D01*
X163316206Y-83089835D01*
X163402452Y-83205044D01*
X163402455Y-83205047D01*
X163517664Y-83291293D01*
X163517671Y-83291297D01*
X163652517Y-83341591D01*
X163652516Y-83341591D01*
X163659444Y-83342335D01*
X163712127Y-83348000D01*
X166307872Y-83347999D01*
X166367483Y-83341591D01*
X166502331Y-83291296D01*
X166617546Y-83205046D01*
X166703796Y-83089831D01*
X166754091Y-82954983D01*
X166760500Y-82895373D01*
X166760499Y-80299628D01*
X166754091Y-80240017D01*
X166733159Y-80183896D01*
X166703797Y-80105171D01*
X166703793Y-80105164D01*
X166617547Y-79989955D01*
X166617544Y-79989952D01*
X166502335Y-79903706D01*
X166502328Y-79903702D01*
X166367482Y-79853408D01*
X166367483Y-79853408D01*
X166307883Y-79847001D01*
X166307881Y-79847000D01*
X166307873Y-79847000D01*
X166307864Y-79847000D01*
X163712129Y-79847000D01*
X163712123Y-79847001D01*
X163652516Y-79853408D01*
X163517671Y-79903702D01*
X163517664Y-79903706D01*
X163402455Y-79989952D01*
X163402452Y-79989955D01*
X163316206Y-80105164D01*
X163316202Y-80105171D01*
X163265908Y-80240017D01*
X163259501Y-80299616D01*
X163259501Y-80299623D01*
X163259500Y-80299635D01*
X161350500Y-80299635D01*
X161350500Y-76517495D01*
X163254592Y-76517495D01*
X163254592Y-76517504D01*
X163274196Y-76779120D01*
X163274197Y-76779125D01*
X163332576Y-77034902D01*
X163332578Y-77034911D01*
X163332580Y-77034916D01*
X163428432Y-77279143D01*
X163559614Y-77506357D01*
X163596412Y-77552500D01*
X163723198Y-77711485D01*
X163896659Y-77872432D01*
X163915521Y-77889933D01*
X164132296Y-78037728D01*
X164132301Y-78037730D01*
X164132302Y-78037731D01*
X164132303Y-78037732D01*
X164257843Y-78098188D01*
X164368673Y-78151561D01*
X164368674Y-78151561D01*
X164368677Y-78151563D01*
X164619385Y-78228896D01*
X164878818Y-78268000D01*
X165141182Y-78268000D01*
X165400615Y-78228896D01*
X165651323Y-78151563D01*
X165838111Y-78061610D01*
X165887696Y-78037732D01*
X165887696Y-78037731D01*
X165887704Y-78037728D01*
X166104479Y-77889933D01*
X166259283Y-77746296D01*
X166296801Y-77711485D01*
X166296801Y-77711483D01*
X166296805Y-77711481D01*
X166460386Y-77506357D01*
X166591568Y-77279143D01*
X166687420Y-77034916D01*
X166745802Y-76779130D01*
X166745803Y-76779120D01*
X166765408Y-76517504D01*
X166765408Y-76517495D01*
X166745803Y-76255879D01*
X166745802Y-76255874D01*
X166745802Y-76255870D01*
X166687420Y-76000084D01*
X166591568Y-75755857D01*
X166460386Y-75528643D01*
X166296805Y-75323519D01*
X166296804Y-75323518D01*
X166296801Y-75323514D01*
X166104479Y-75145067D01*
X165939039Y-75032272D01*
X165887704Y-74997272D01*
X165887700Y-74997270D01*
X165887697Y-74997268D01*
X165887696Y-74997267D01*
X165651325Y-74883438D01*
X165651327Y-74883438D01*
X165400623Y-74806106D01*
X165400619Y-74806105D01*
X165400615Y-74806104D01*
X165275823Y-74787294D01*
X165141187Y-74767000D01*
X165141182Y-74767000D01*
X164878818Y-74767000D01*
X164878812Y-74767000D01*
X164735474Y-74788606D01*
X164619385Y-74806104D01*
X164619382Y-74806105D01*
X164619376Y-74806106D01*
X164368673Y-74883438D01*
X164132303Y-74997267D01*
X164132302Y-74997268D01*
X163915520Y-75145067D01*
X163723198Y-75323514D01*
X163559614Y-75528643D01*
X163428432Y-75755856D01*
X163332582Y-76000078D01*
X163332576Y-76000097D01*
X163274197Y-76255874D01*
X163274196Y-76255879D01*
X163254592Y-76517495D01*
X161350500Y-76517495D01*
X161350500Y-68799635D01*
X163179500Y-68799635D01*
X163179500Y-71395370D01*
X163179501Y-71395376D01*
X163185908Y-71454983D01*
X163236202Y-71589828D01*
X163236206Y-71589835D01*
X163322452Y-71705044D01*
X163322455Y-71705047D01*
X163437664Y-71791293D01*
X163437671Y-71791297D01*
X163572517Y-71841591D01*
X163572516Y-71841591D01*
X163579444Y-71842335D01*
X163632127Y-71848000D01*
X166227872Y-71847999D01*
X166287483Y-71841591D01*
X166422331Y-71791296D01*
X166537546Y-71705046D01*
X166623796Y-71589831D01*
X166674091Y-71454983D01*
X166680500Y-71395373D01*
X166680499Y-68799628D01*
X166674091Y-68740017D01*
X166665915Y-68718097D01*
X166623797Y-68605171D01*
X166623793Y-68605164D01*
X166537547Y-68489955D01*
X166537544Y-68489952D01*
X166422335Y-68403706D01*
X166422328Y-68403702D01*
X166287482Y-68353408D01*
X166287483Y-68353408D01*
X166227883Y-68347001D01*
X166227881Y-68347000D01*
X166227873Y-68347000D01*
X166227864Y-68347000D01*
X163632129Y-68347000D01*
X163632123Y-68347001D01*
X163572516Y-68353408D01*
X163437671Y-68403702D01*
X163437664Y-68403706D01*
X163322455Y-68489952D01*
X163322452Y-68489955D01*
X163236206Y-68605164D01*
X163236202Y-68605171D01*
X163185908Y-68740017D01*
X163181775Y-68778464D01*
X163179501Y-68799623D01*
X163179500Y-68799635D01*
X161350500Y-68799635D01*
X161350500Y-68136232D01*
X161350499Y-68136228D01*
X161317818Y-67971925D01*
X161317815Y-67971916D01*
X161296623Y-67920753D01*
X161253707Y-67817143D01*
X161253700Y-67817130D01*
X161160627Y-67677838D01*
X161160624Y-67677834D01*
X159562470Y-66079681D01*
X159528985Y-66018358D01*
X159533969Y-65948666D01*
X159575841Y-65892733D01*
X159641305Y-65868316D01*
X159650151Y-65868000D01*
X163328143Y-65868000D01*
X163395182Y-65887685D01*
X163435530Y-65930001D01*
X163479614Y-66006357D01*
X163513327Y-66048632D01*
X163643198Y-66211485D01*
X163824753Y-66379941D01*
X163835521Y-66389933D01*
X164052296Y-66537728D01*
X164052301Y-66537730D01*
X164052302Y-66537731D01*
X164052303Y-66537732D01*
X164177843Y-66598188D01*
X164288673Y-66651561D01*
X164288674Y-66651561D01*
X164288677Y-66651563D01*
X164539385Y-66728896D01*
X164798818Y-66768000D01*
X165061182Y-66768000D01*
X165320615Y-66728896D01*
X165571323Y-66651563D01*
X165807704Y-66537728D01*
X166024479Y-66389933D01*
X166216805Y-66211481D01*
X166380386Y-66006357D01*
X166511568Y-65779143D01*
X166607420Y-65534916D01*
X166665802Y-65279130D01*
X166665803Y-65279120D01*
X166685408Y-65017504D01*
X166685408Y-65017495D01*
X166665803Y-64755879D01*
X166665802Y-64755874D01*
X166665802Y-64755870D01*
X166607420Y-64500084D01*
X166515910Y-64266922D01*
X166509742Y-64197326D01*
X166542180Y-64135443D01*
X166602925Y-64100920D01*
X166672691Y-64104719D01*
X166719020Y-64133940D01*
X167463181Y-64878101D01*
X167496666Y-64939424D01*
X167499500Y-64965782D01*
X167499500Y-93034216D01*
X167479815Y-93101255D01*
X167463181Y-93121897D01*
X166972180Y-93612898D01*
X166910857Y-93646383D01*
X166841165Y-93641399D01*
X166785232Y-93599527D01*
X166760815Y-93534063D01*
X166760499Y-93525217D01*
X166760499Y-91844629D01*
X166760498Y-91844623D01*
X166760497Y-91844616D01*
X166754091Y-91785017D01*
X166703796Y-91650169D01*
X166703795Y-91650168D01*
X166703793Y-91650164D01*
X166617547Y-91534955D01*
X166617544Y-91534952D01*
X166502335Y-91448706D01*
X166502328Y-91448702D01*
X166367482Y-91398408D01*
X166367483Y-91398408D01*
X166307883Y-91392001D01*
X166307881Y-91392000D01*
X166307873Y-91392000D01*
X166307864Y-91392000D01*
X163712129Y-91392000D01*
X163712123Y-91392001D01*
X163652516Y-91398408D01*
X163517671Y-91448702D01*
X163517664Y-91448706D01*
X163402455Y-91534952D01*
X163402452Y-91534955D01*
X163316206Y-91650164D01*
X163316202Y-91650171D01*
X163265908Y-91785017D01*
X163259501Y-91844616D01*
X163259501Y-91844623D01*
X163259500Y-91844635D01*
X163259500Y-94440370D01*
X163259501Y-94440376D01*
X163265908Y-94499983D01*
X163316202Y-94634828D01*
X163316206Y-94634835D01*
X163402452Y-94750044D01*
X163402455Y-94750047D01*
X163517664Y-94836293D01*
X163517671Y-94836297D01*
X163652517Y-94886591D01*
X163652516Y-94886591D01*
X163659444Y-94887335D01*
X163712127Y-94893000D01*
X165392716Y-94892999D01*
X165459755Y-94912684D01*
X165505510Y-94965487D01*
X165515454Y-95034646D01*
X165486429Y-95098202D01*
X165480397Y-95104680D01*
X143621899Y-116963181D01*
X143560576Y-116996666D01*
X143534218Y-116999500D01*
X131016272Y-116999500D01*
X130949233Y-116979815D01*
X130903478Y-116927011D01*
X130893534Y-116857853D01*
X130922559Y-116794297D01*
X130947381Y-116772398D01*
X131056536Y-116699464D01*
X132454033Y-115301964D01*
X132515354Y-115268481D01*
X132560191Y-115267032D01*
X132798818Y-115303000D01*
X133061182Y-115303000D01*
X133320615Y-115263896D01*
X133571323Y-115186563D01*
X133792959Y-115079829D01*
X133807696Y-115072732D01*
X133807696Y-115072731D01*
X133807704Y-115072728D01*
X134024479Y-114924933D01*
X134216805Y-114746481D01*
X134380386Y-114541357D01*
X134511568Y-114314143D01*
X134607420Y-114069916D01*
X134665802Y-113814130D01*
X134665944Y-113812236D01*
X134685408Y-113552504D01*
X134685408Y-113552495D01*
X134665803Y-113290879D01*
X134665802Y-113290874D01*
X134665802Y-113290870D01*
X134607420Y-113035084D01*
X134511568Y-112790857D01*
X134380386Y-112563643D01*
X134216805Y-112358519D01*
X134216804Y-112358518D01*
X134216801Y-112358514D01*
X134024475Y-112180063D01*
X133884648Y-112084730D01*
X133840346Y-112030701D01*
X133830500Y-111982277D01*
X133830500Y-101341308D01*
X133830499Y-101341304D01*
X133795896Y-101167341D01*
X133795895Y-101167334D01*
X133730339Y-101009071D01*
X133728695Y-101004474D01*
X133629465Y-100855966D01*
X133629464Y-100855965D01*
X133504035Y-100730536D01*
X131903700Y-99130201D01*
X130278520Y-97505020D01*
X130245035Y-97443697D01*
X130242625Y-97407098D01*
X130248041Y-97341747D01*
X130255643Y-97250000D01*
X130249327Y-97173782D01*
X130235109Y-97002187D01*
X130235107Y-97002175D01*
X130174063Y-96761118D01*
X130074173Y-96533393D01*
X129938166Y-96325217D01*
X129916557Y-96301744D01*
X129769744Y-96142262D01*
X129573509Y-95989526D01*
X129573507Y-95989525D01*
X129573506Y-95989524D01*
X129354811Y-95871172D01*
X129354802Y-95871169D01*
X129119616Y-95790429D01*
X128874335Y-95749500D01*
X128625665Y-95749500D01*
X128380383Y-95790429D01*
X128145197Y-95871169D01*
X128145188Y-95871172D01*
X127926493Y-95989524D01*
X127730257Y-96142261D01*
X127561833Y-96325217D01*
X127425826Y-96533393D01*
X127325936Y-96761118D01*
X127264892Y-97002175D01*
X127264890Y-97002187D01*
X127244357Y-97249994D01*
X127244357Y-97250005D01*
X127264890Y-97497812D01*
X127264892Y-97497824D01*
X127325936Y-97738881D01*
X127425826Y-97966606D01*
X127561833Y-98174782D01*
X127561836Y-98174785D01*
X127730256Y-98357738D01*
X127926491Y-98510474D01*
X128145190Y-98628828D01*
X128380386Y-98709571D01*
X128625665Y-98750500D01*
X128874336Y-98750500D01*
X128880595Y-98749455D01*
X128899358Y-98746324D01*
X128968722Y-98754704D01*
X129007451Y-98780951D01*
X131993181Y-101766680D01*
X132026666Y-101828003D01*
X132029500Y-101854361D01*
X132029500Y-111982277D01*
X132009815Y-112049316D01*
X131975352Y-112084730D01*
X131835524Y-112180063D01*
X131643198Y-112358514D01*
X131479614Y-112563643D01*
X131348432Y-112790856D01*
X131252582Y-113035078D01*
X131252576Y-113035097D01*
X131194197Y-113290874D01*
X131194196Y-113290879D01*
X131174592Y-113552495D01*
X131174592Y-113552504D01*
X131194196Y-113814120D01*
X131194197Y-113814125D01*
X131216239Y-113910697D01*
X131211966Y-113980435D01*
X131183029Y-114025970D01*
X130095819Y-115113181D01*
X130034496Y-115146666D01*
X130008138Y-115149500D01*
X129683350Y-115149500D01*
X129616311Y-115129815D01*
X129570556Y-115077011D01*
X129560612Y-115007853D01*
X129567168Y-114982167D01*
X129594091Y-114909983D01*
X129600500Y-114850373D01*
X129600499Y-112254628D01*
X129594091Y-112195017D01*
X129543796Y-112060169D01*
X129543795Y-112060168D01*
X129543793Y-112060164D01*
X129457547Y-111944955D01*
X129457544Y-111944952D01*
X129342335Y-111858706D01*
X129342328Y-111858702D01*
X129207482Y-111808408D01*
X129207483Y-111808408D01*
X129147883Y-111802001D01*
X129147881Y-111802000D01*
X129147873Y-111802000D01*
X129147864Y-111802000D01*
X126552129Y-111802000D01*
X126552123Y-111802001D01*
X126492516Y-111808408D01*
X126357671Y-111858702D01*
X126357664Y-111858706D01*
X126242455Y-111944952D01*
X126242452Y-111944955D01*
X126156206Y-112060164D01*
X126156202Y-112060171D01*
X126105908Y-112195017D01*
X126099501Y-112254616D01*
X126099501Y-112254623D01*
X126099500Y-112254635D01*
X126099500Y-114850370D01*
X126099501Y-114850376D01*
X126105908Y-114909983D01*
X126132832Y-114982167D01*
X126137816Y-115051858D01*
X126104331Y-115113181D01*
X126043008Y-115146666D01*
X126016650Y-115149500D01*
X78020376Y-115149500D01*
X77953337Y-115129815D01*
X77907582Y-115077011D01*
X77897638Y-115007853D01*
X77906821Y-114975688D01*
X77924063Y-114936381D01*
X77985108Y-114695321D01*
X77985109Y-114695312D01*
X78005643Y-114447505D01*
X78005643Y-114447494D01*
X77985109Y-114199687D01*
X77985107Y-114199675D01*
X77924063Y-113958618D01*
X77824173Y-113730893D01*
X77688166Y-113522717D01*
X77667253Y-113499999D01*
X113214357Y-113499999D01*
X113214357Y-113500000D01*
X113234884Y-113721535D01*
X113234885Y-113721537D01*
X113295769Y-113935523D01*
X113295775Y-113935538D01*
X113394938Y-114134683D01*
X113394943Y-114134691D01*
X113529020Y-114312238D01*
X113693437Y-114462123D01*
X113693439Y-114462125D01*
X113882595Y-114579245D01*
X113882596Y-114579245D01*
X113882599Y-114579247D01*
X114090060Y-114659618D01*
X114308757Y-114700500D01*
X114308759Y-114700500D01*
X114531241Y-114700500D01*
X114531243Y-114700500D01*
X114749940Y-114659618D01*
X114957401Y-114579247D01*
X115146562Y-114462124D01*
X115310981Y-114312236D01*
X115445058Y-114134689D01*
X115544229Y-113935528D01*
X115605115Y-113721536D01*
X115625643Y-113500000D01*
X115625643Y-113499999D01*
X118294357Y-113499999D01*
X118294357Y-113500000D01*
X118314884Y-113721535D01*
X118314885Y-113721537D01*
X118375769Y-113935523D01*
X118375775Y-113935538D01*
X118474938Y-114134683D01*
X118474943Y-114134691D01*
X118609020Y-114312238D01*
X118773437Y-114462123D01*
X118773439Y-114462125D01*
X118962595Y-114579245D01*
X118962596Y-114579245D01*
X118962599Y-114579247D01*
X119170060Y-114659618D01*
X119388757Y-114700500D01*
X119388759Y-114700500D01*
X119611241Y-114700500D01*
X119611243Y-114700500D01*
X119829940Y-114659618D01*
X120037401Y-114579247D01*
X120226562Y-114462124D01*
X120390981Y-114312236D01*
X120525058Y-114134689D01*
X120624229Y-113935528D01*
X120685115Y-113721536D01*
X120705643Y-113500000D01*
X120685115Y-113278464D01*
X120624229Y-113064472D01*
X120624224Y-113064461D01*
X120525061Y-112865316D01*
X120525056Y-112865308D01*
X120390979Y-112687761D01*
X120226562Y-112537876D01*
X120226560Y-112537874D01*
X120037404Y-112420754D01*
X120037398Y-112420752D01*
X119829940Y-112340382D01*
X119611243Y-112299500D01*
X119388757Y-112299500D01*
X119170060Y-112340382D01*
X119038864Y-112391207D01*
X118962601Y-112420752D01*
X118962595Y-112420754D01*
X118773439Y-112537874D01*
X118773437Y-112537876D01*
X118609020Y-112687761D01*
X118474943Y-112865308D01*
X118474938Y-112865316D01*
X118375775Y-113064461D01*
X118375769Y-113064476D01*
X118314885Y-113278462D01*
X118314884Y-113278464D01*
X118294357Y-113499999D01*
X115625643Y-113499999D01*
X115605115Y-113278464D01*
X115544229Y-113064472D01*
X115544224Y-113064461D01*
X115445061Y-112865316D01*
X115445056Y-112865308D01*
X115310979Y-112687761D01*
X115146562Y-112537876D01*
X115146560Y-112537874D01*
X114957404Y-112420754D01*
X114957398Y-112420752D01*
X114749940Y-112340382D01*
X114531243Y-112299500D01*
X114308757Y-112299500D01*
X114090060Y-112340382D01*
X113958864Y-112391207D01*
X113882601Y-112420752D01*
X113882595Y-112420754D01*
X113693439Y-112537874D01*
X113693437Y-112537876D01*
X113529020Y-112687761D01*
X113394943Y-112865308D01*
X113394938Y-112865316D01*
X113295775Y-113064461D01*
X113295769Y-113064476D01*
X113234885Y-113278462D01*
X113234884Y-113278464D01*
X113214357Y-113499999D01*
X77667253Y-113499999D01*
X77607912Y-113435538D01*
X77519744Y-113339762D01*
X77323509Y-113187026D01*
X77323507Y-113187025D01*
X77323506Y-113187024D01*
X77165482Y-113101506D01*
X77115892Y-113052286D01*
X77100500Y-112992451D01*
X77100500Y-110625206D01*
X77104725Y-110593113D01*
X77105272Y-110591069D01*
X77110501Y-110571557D01*
X77110501Y-110413443D01*
X77093781Y-110351043D01*
X77609499Y-110351043D01*
X77647947Y-110544329D01*
X77647950Y-110544339D01*
X77723364Y-110726407D01*
X77723371Y-110726420D01*
X77832860Y-110890281D01*
X77832863Y-110890285D01*
X77972214Y-111029636D01*
X77972218Y-111029639D01*
X78136079Y-111139128D01*
X78136092Y-111139135D01*
X78295814Y-111205293D01*
X78318165Y-111214551D01*
X78318169Y-111214551D01*
X78318170Y-111214552D01*
X78511456Y-111253000D01*
X78511459Y-111253000D01*
X78708543Y-111253000D01*
X78880313Y-111218832D01*
X78901835Y-111214551D01*
X79083914Y-111139132D01*
X79247782Y-111029639D01*
X79387139Y-110890282D01*
X79496632Y-110726414D01*
X79572051Y-110544335D01*
X79598087Y-110413445D01*
X79610500Y-110351043D01*
X80149499Y-110351043D01*
X80187947Y-110544329D01*
X80187950Y-110544339D01*
X80263364Y-110726407D01*
X80263371Y-110726420D01*
X80372860Y-110890281D01*
X80372863Y-110890285D01*
X80512214Y-111029636D01*
X80512218Y-111029639D01*
X80676079Y-111139128D01*
X80676092Y-111139135D01*
X80835814Y-111205293D01*
X80858165Y-111214551D01*
X80858169Y-111214551D01*
X80858170Y-111214552D01*
X81051456Y-111253000D01*
X81051459Y-111253000D01*
X81248543Y-111253000D01*
X81420313Y-111218832D01*
X81441835Y-111214551D01*
X81623914Y-111139132D01*
X81787782Y-111029639D01*
X81927139Y-110890282D01*
X82036632Y-110726414D01*
X82112051Y-110544335D01*
X82138087Y-110413445D01*
X82150500Y-110351043D01*
X82689499Y-110351043D01*
X82727947Y-110544329D01*
X82727950Y-110544339D01*
X82803364Y-110726407D01*
X82803371Y-110726420D01*
X82912860Y-110890281D01*
X82912863Y-110890285D01*
X83052214Y-111029636D01*
X83052218Y-111029639D01*
X83216079Y-111139128D01*
X83216092Y-111139135D01*
X83375814Y-111205293D01*
X83398165Y-111214551D01*
X83398169Y-111214551D01*
X83398170Y-111214552D01*
X83591456Y-111253000D01*
X83591459Y-111253000D01*
X83788543Y-111253000D01*
X83960313Y-111218832D01*
X83981835Y-111214551D01*
X84163914Y-111139132D01*
X84327782Y-111029639D01*
X84467139Y-110890282D01*
X84576632Y-110726414D01*
X84652051Y-110544335D01*
X84678087Y-110413445D01*
X84690500Y-110351043D01*
X85229499Y-110351043D01*
X85267947Y-110544329D01*
X85267950Y-110544339D01*
X85343364Y-110726407D01*
X85343371Y-110726420D01*
X85452860Y-110890281D01*
X85452863Y-110890285D01*
X85592214Y-111029636D01*
X85592218Y-111029639D01*
X85756079Y-111139128D01*
X85756092Y-111139135D01*
X85915814Y-111205293D01*
X85938165Y-111214551D01*
X85938169Y-111214551D01*
X85938170Y-111214552D01*
X86131456Y-111253000D01*
X86131459Y-111253000D01*
X86328543Y-111253000D01*
X86500313Y-111218832D01*
X86521835Y-111214551D01*
X86703914Y-111139132D01*
X86867782Y-111029639D01*
X87007139Y-110890282D01*
X87116632Y-110726414D01*
X87192051Y-110544335D01*
X87218087Y-110413445D01*
X87230500Y-110351043D01*
X87769499Y-110351043D01*
X87807947Y-110544329D01*
X87807950Y-110544339D01*
X87883364Y-110726407D01*
X87883371Y-110726420D01*
X87992860Y-110890281D01*
X87992863Y-110890285D01*
X88132214Y-111029636D01*
X88132218Y-111029639D01*
X88296079Y-111139128D01*
X88296092Y-111139135D01*
X88455814Y-111205293D01*
X88478165Y-111214551D01*
X88478169Y-111214551D01*
X88478170Y-111214552D01*
X88671456Y-111253000D01*
X88671459Y-111253000D01*
X88868543Y-111253000D01*
X89040313Y-111218832D01*
X89061835Y-111214551D01*
X89243914Y-111139132D01*
X89407782Y-111029639D01*
X89547139Y-110890282D01*
X89656632Y-110726414D01*
X89732051Y-110544335D01*
X89758087Y-110413445D01*
X89770500Y-110351043D01*
X90309499Y-110351043D01*
X90347947Y-110544329D01*
X90347950Y-110544339D01*
X90423364Y-110726407D01*
X90423371Y-110726420D01*
X90532860Y-110890281D01*
X90532863Y-110890285D01*
X90672214Y-111029636D01*
X90672218Y-111029639D01*
X90836079Y-111139128D01*
X90836092Y-111139135D01*
X90995814Y-111205293D01*
X91018165Y-111214551D01*
X91018169Y-111214551D01*
X91018170Y-111214552D01*
X91211456Y-111253000D01*
X91211459Y-111253000D01*
X91408543Y-111253000D01*
X91580313Y-111218832D01*
X91601835Y-111214551D01*
X91783914Y-111139132D01*
X91947782Y-111029639D01*
X92087139Y-110890282D01*
X92196632Y-110726414D01*
X92272051Y-110544335D01*
X92298087Y-110413445D01*
X92310500Y-110351043D01*
X92849499Y-110351043D01*
X92887947Y-110544329D01*
X92887950Y-110544339D01*
X92963364Y-110726407D01*
X92963371Y-110726420D01*
X93072860Y-110890281D01*
X93072863Y-110890285D01*
X93212214Y-111029636D01*
X93212218Y-111029639D01*
X93376079Y-111139128D01*
X93376092Y-111139135D01*
X93535814Y-111205293D01*
X93558165Y-111214551D01*
X93558169Y-111214551D01*
X93558170Y-111214552D01*
X93751456Y-111253000D01*
X93751459Y-111253000D01*
X93948543Y-111253000D01*
X94120313Y-111218832D01*
X94141835Y-111214551D01*
X94323914Y-111139132D01*
X94487782Y-111029639D01*
X94627139Y-110890282D01*
X94736632Y-110726414D01*
X94812051Y-110544335D01*
X94838087Y-110413445D01*
X94850500Y-110351043D01*
X95389499Y-110351043D01*
X95427947Y-110544329D01*
X95427950Y-110544339D01*
X95503364Y-110726407D01*
X95503371Y-110726420D01*
X95612860Y-110890281D01*
X95612863Y-110890285D01*
X95752214Y-111029636D01*
X95752218Y-111029639D01*
X95916079Y-111139128D01*
X95916092Y-111139135D01*
X96075814Y-111205293D01*
X96098165Y-111214551D01*
X96098169Y-111214551D01*
X96098170Y-111214552D01*
X96291456Y-111253000D01*
X96291459Y-111253000D01*
X96488543Y-111253000D01*
X96660313Y-111218832D01*
X96681835Y-111214551D01*
X96863914Y-111139132D01*
X97027782Y-111029639D01*
X97167139Y-110890282D01*
X97276632Y-110726414D01*
X97352051Y-110544335D01*
X97378087Y-110413445D01*
X97390500Y-110351043D01*
X97929499Y-110351043D01*
X97967947Y-110544329D01*
X97967950Y-110544339D01*
X98043364Y-110726407D01*
X98043371Y-110726420D01*
X98152860Y-110890281D01*
X98152863Y-110890285D01*
X98292214Y-111029636D01*
X98292218Y-111029639D01*
X98456079Y-111139128D01*
X98456092Y-111139135D01*
X98615814Y-111205293D01*
X98638165Y-111214551D01*
X98638169Y-111214551D01*
X98638170Y-111214552D01*
X98831456Y-111253000D01*
X98831459Y-111253000D01*
X99028543Y-111253000D01*
X99200313Y-111218832D01*
X99221835Y-111214551D01*
X99403914Y-111139132D01*
X99567782Y-111029639D01*
X99707139Y-110890282D01*
X99816632Y-110726414D01*
X99892051Y-110544335D01*
X99918087Y-110413445D01*
X99930500Y-110351043D01*
X100469499Y-110351043D01*
X100507947Y-110544329D01*
X100507950Y-110544339D01*
X100583364Y-110726407D01*
X100583371Y-110726420D01*
X100692860Y-110890281D01*
X100692863Y-110890285D01*
X100832214Y-111029636D01*
X100832218Y-111029639D01*
X100996079Y-111139128D01*
X100996092Y-111139135D01*
X101155814Y-111205293D01*
X101178165Y-111214551D01*
X101178169Y-111214551D01*
X101178170Y-111214552D01*
X101371456Y-111253000D01*
X101371459Y-111253000D01*
X101568543Y-111253000D01*
X101740313Y-111218832D01*
X101761835Y-111214551D01*
X101943914Y-111139132D01*
X102107782Y-111029639D01*
X102247139Y-110890282D01*
X102356632Y-110726414D01*
X102432051Y-110544335D01*
X102458087Y-110413445D01*
X102470500Y-110351043D01*
X103009499Y-110351043D01*
X103047947Y-110544329D01*
X103047950Y-110544339D01*
X103123364Y-110726407D01*
X103123371Y-110726420D01*
X103232860Y-110890281D01*
X103232863Y-110890285D01*
X103372214Y-111029636D01*
X103372218Y-111029639D01*
X103536079Y-111139128D01*
X103536092Y-111139135D01*
X103695814Y-111205293D01*
X103718165Y-111214551D01*
X103718169Y-111214551D01*
X103718170Y-111214552D01*
X103911456Y-111253000D01*
X103911459Y-111253000D01*
X104108543Y-111253000D01*
X104280313Y-111218832D01*
X104301835Y-111214551D01*
X104483914Y-111139132D01*
X104647782Y-111029639D01*
X104787139Y-110890282D01*
X104896632Y-110726414D01*
X104972051Y-110544335D01*
X104998087Y-110413445D01*
X105010500Y-110351043D01*
X105549499Y-110351043D01*
X105587947Y-110544329D01*
X105587950Y-110544339D01*
X105663364Y-110726407D01*
X105663371Y-110726420D01*
X105772860Y-110890281D01*
X105772863Y-110890285D01*
X105912214Y-111029636D01*
X105912218Y-111029639D01*
X106076079Y-111139128D01*
X106076092Y-111139135D01*
X106235814Y-111205293D01*
X106258165Y-111214551D01*
X106258169Y-111214551D01*
X106258170Y-111214552D01*
X106451456Y-111253000D01*
X106451459Y-111253000D01*
X106648543Y-111253000D01*
X106820313Y-111218832D01*
X106841835Y-111214551D01*
X107023914Y-111139132D01*
X107187782Y-111029639D01*
X107327139Y-110890282D01*
X107436632Y-110726414D01*
X107512051Y-110544335D01*
X107538087Y-110413445D01*
X107550500Y-110351043D01*
X107550500Y-109153956D01*
X107512052Y-108960670D01*
X107512051Y-108960669D01*
X107512051Y-108960665D01*
X107512049Y-108960660D01*
X107436635Y-108778592D01*
X107436628Y-108778579D01*
X107327139Y-108614718D01*
X107327136Y-108614714D01*
X107187785Y-108475363D01*
X107187781Y-108475360D01*
X107023920Y-108365871D01*
X107023907Y-108365864D01*
X106841839Y-108290450D01*
X106841829Y-108290447D01*
X106648543Y-108252000D01*
X106648541Y-108252000D01*
X106451459Y-108252000D01*
X106451457Y-108252000D01*
X106258170Y-108290447D01*
X106258160Y-108290450D01*
X106076092Y-108365864D01*
X106076079Y-108365871D01*
X105912218Y-108475360D01*
X105912214Y-108475363D01*
X105772863Y-108614714D01*
X105772860Y-108614718D01*
X105663371Y-108778579D01*
X105663364Y-108778592D01*
X105587950Y-108960660D01*
X105587947Y-108960670D01*
X105549500Y-109153956D01*
X105549500Y-109153959D01*
X105549500Y-110351041D01*
X105549500Y-110351043D01*
X105549499Y-110351043D01*
X105010500Y-110351043D01*
X105010500Y-109153956D01*
X104972052Y-108960670D01*
X104972051Y-108960669D01*
X104972051Y-108960665D01*
X104972049Y-108960660D01*
X104896635Y-108778592D01*
X104896628Y-108778579D01*
X104787139Y-108614718D01*
X104787136Y-108614714D01*
X104647785Y-108475363D01*
X104647781Y-108475360D01*
X104483920Y-108365871D01*
X104483907Y-108365864D01*
X104301839Y-108290450D01*
X104301829Y-108290447D01*
X104108543Y-108252000D01*
X104108541Y-108252000D01*
X103911459Y-108252000D01*
X103911457Y-108252000D01*
X103718170Y-108290447D01*
X103718160Y-108290450D01*
X103536092Y-108365864D01*
X103536079Y-108365871D01*
X103372218Y-108475360D01*
X103372214Y-108475363D01*
X103232863Y-108614714D01*
X103232860Y-108614718D01*
X103123371Y-108778579D01*
X103123364Y-108778592D01*
X103047950Y-108960660D01*
X103047947Y-108960670D01*
X103009500Y-109153956D01*
X103009500Y-109153959D01*
X103009500Y-110351041D01*
X103009500Y-110351043D01*
X103009499Y-110351043D01*
X102470500Y-110351043D01*
X102470500Y-109153956D01*
X102432052Y-108960670D01*
X102432051Y-108960669D01*
X102432051Y-108960665D01*
X102432049Y-108960660D01*
X102356635Y-108778592D01*
X102356628Y-108778579D01*
X102247139Y-108614718D01*
X102247136Y-108614714D01*
X102107785Y-108475363D01*
X102107781Y-108475360D01*
X101943920Y-108365871D01*
X101943907Y-108365864D01*
X101761839Y-108290450D01*
X101761829Y-108290447D01*
X101568543Y-108252000D01*
X101568541Y-108252000D01*
X101371459Y-108252000D01*
X101371457Y-108252000D01*
X101178170Y-108290447D01*
X101178160Y-108290450D01*
X100996092Y-108365864D01*
X100996079Y-108365871D01*
X100832218Y-108475360D01*
X100832214Y-108475363D01*
X100692863Y-108614714D01*
X100692860Y-108614718D01*
X100583371Y-108778579D01*
X100583364Y-108778592D01*
X100507950Y-108960660D01*
X100507947Y-108960670D01*
X100469500Y-109153956D01*
X100469500Y-109153959D01*
X100469500Y-110351041D01*
X100469500Y-110351043D01*
X100469499Y-110351043D01*
X99930500Y-110351043D01*
X99930500Y-109153956D01*
X99892052Y-108960670D01*
X99892051Y-108960669D01*
X99892051Y-108960665D01*
X99892049Y-108960660D01*
X99816635Y-108778592D01*
X99816628Y-108778579D01*
X99707139Y-108614718D01*
X99707136Y-108614714D01*
X99567785Y-108475363D01*
X99567781Y-108475360D01*
X99403920Y-108365871D01*
X99403907Y-108365864D01*
X99221839Y-108290450D01*
X99221829Y-108290447D01*
X99028543Y-108252000D01*
X99028541Y-108252000D01*
X98831459Y-108252000D01*
X98831457Y-108252000D01*
X98638170Y-108290447D01*
X98638160Y-108290450D01*
X98456092Y-108365864D01*
X98456079Y-108365871D01*
X98292218Y-108475360D01*
X98292214Y-108475363D01*
X98152863Y-108614714D01*
X98152860Y-108614718D01*
X98043371Y-108778579D01*
X98043364Y-108778592D01*
X97967950Y-108960660D01*
X97967947Y-108960670D01*
X97929500Y-109153956D01*
X97929500Y-109153959D01*
X97929500Y-110351041D01*
X97929500Y-110351043D01*
X97929499Y-110351043D01*
X97390500Y-110351043D01*
X97390500Y-109153956D01*
X97352052Y-108960670D01*
X97352051Y-108960669D01*
X97352051Y-108960665D01*
X97352049Y-108960660D01*
X97276635Y-108778592D01*
X97276628Y-108778579D01*
X97167139Y-108614718D01*
X97167136Y-108614714D01*
X97027785Y-108475363D01*
X97027781Y-108475360D01*
X96863920Y-108365871D01*
X96863907Y-108365864D01*
X96681839Y-108290450D01*
X96681829Y-108290447D01*
X96488543Y-108252000D01*
X96488541Y-108252000D01*
X96291459Y-108252000D01*
X96291457Y-108252000D01*
X96098170Y-108290447D01*
X96098160Y-108290450D01*
X95916092Y-108365864D01*
X95916079Y-108365871D01*
X95752218Y-108475360D01*
X95752214Y-108475363D01*
X95612863Y-108614714D01*
X95612860Y-108614718D01*
X95503371Y-108778579D01*
X95503364Y-108778592D01*
X95427950Y-108960660D01*
X95427947Y-108960670D01*
X95389500Y-109153956D01*
X95389500Y-109153959D01*
X95389500Y-110351041D01*
X95389500Y-110351043D01*
X95389499Y-110351043D01*
X94850500Y-110351043D01*
X94850500Y-109153956D01*
X94812052Y-108960670D01*
X94812051Y-108960669D01*
X94812051Y-108960665D01*
X94812049Y-108960660D01*
X94736635Y-108778592D01*
X94736628Y-108778579D01*
X94627139Y-108614718D01*
X94627136Y-108614714D01*
X94487785Y-108475363D01*
X94487781Y-108475360D01*
X94323920Y-108365871D01*
X94323907Y-108365864D01*
X94141839Y-108290450D01*
X94141829Y-108290447D01*
X93948543Y-108252000D01*
X93948541Y-108252000D01*
X93751459Y-108252000D01*
X93751457Y-108252000D01*
X93558170Y-108290447D01*
X93558160Y-108290450D01*
X93376092Y-108365864D01*
X93376079Y-108365871D01*
X93212218Y-108475360D01*
X93212214Y-108475363D01*
X93072863Y-108614714D01*
X93072860Y-108614718D01*
X92963371Y-108778579D01*
X92963364Y-108778592D01*
X92887950Y-108960660D01*
X92887947Y-108960670D01*
X92849500Y-109153956D01*
X92849500Y-109153959D01*
X92849500Y-110351041D01*
X92849500Y-110351043D01*
X92849499Y-110351043D01*
X92310500Y-110351043D01*
X92310500Y-109153956D01*
X92272052Y-108960670D01*
X92272051Y-108960669D01*
X92272051Y-108960665D01*
X92272049Y-108960660D01*
X92196635Y-108778592D01*
X92196628Y-108778579D01*
X92087139Y-108614718D01*
X92087136Y-108614714D01*
X91947785Y-108475363D01*
X91947781Y-108475360D01*
X91783920Y-108365871D01*
X91783907Y-108365864D01*
X91601839Y-108290450D01*
X91601829Y-108290447D01*
X91408543Y-108252000D01*
X91408541Y-108252000D01*
X91211459Y-108252000D01*
X91211457Y-108252000D01*
X91018170Y-108290447D01*
X91018160Y-108290450D01*
X90836092Y-108365864D01*
X90836079Y-108365871D01*
X90672218Y-108475360D01*
X90672214Y-108475363D01*
X90532863Y-108614714D01*
X90532860Y-108614718D01*
X90423371Y-108778579D01*
X90423364Y-108778592D01*
X90347950Y-108960660D01*
X90347947Y-108960670D01*
X90309500Y-109153956D01*
X90309500Y-109153959D01*
X90309500Y-110351041D01*
X90309500Y-110351043D01*
X90309499Y-110351043D01*
X89770500Y-110351043D01*
X89770500Y-109153956D01*
X89732052Y-108960670D01*
X89732051Y-108960669D01*
X89732051Y-108960665D01*
X89732049Y-108960660D01*
X89656635Y-108778592D01*
X89656628Y-108778579D01*
X89547139Y-108614718D01*
X89547136Y-108614714D01*
X89407785Y-108475363D01*
X89407781Y-108475360D01*
X89243920Y-108365871D01*
X89243907Y-108365864D01*
X89061839Y-108290450D01*
X89061829Y-108290447D01*
X88868543Y-108252000D01*
X88868541Y-108252000D01*
X88671459Y-108252000D01*
X88671457Y-108252000D01*
X88478170Y-108290447D01*
X88478160Y-108290450D01*
X88296092Y-108365864D01*
X88296079Y-108365871D01*
X88132218Y-108475360D01*
X88132214Y-108475363D01*
X87992863Y-108614714D01*
X87992860Y-108614718D01*
X87883371Y-108778579D01*
X87883364Y-108778592D01*
X87807950Y-108960660D01*
X87807947Y-108960670D01*
X87769500Y-109153956D01*
X87769500Y-109153959D01*
X87769500Y-110351041D01*
X87769500Y-110351043D01*
X87769499Y-110351043D01*
X87230500Y-110351043D01*
X87230500Y-109153956D01*
X87192052Y-108960670D01*
X87192051Y-108960669D01*
X87192051Y-108960665D01*
X87192049Y-108960660D01*
X87116635Y-108778592D01*
X87116628Y-108778579D01*
X87007139Y-108614718D01*
X87007136Y-108614714D01*
X86867785Y-108475363D01*
X86867781Y-108475360D01*
X86703920Y-108365871D01*
X86703907Y-108365864D01*
X86521839Y-108290450D01*
X86521829Y-108290447D01*
X86328543Y-108252000D01*
X86328541Y-108252000D01*
X86131459Y-108252000D01*
X86131457Y-108252000D01*
X85938170Y-108290447D01*
X85938160Y-108290450D01*
X85756092Y-108365864D01*
X85756079Y-108365871D01*
X85592218Y-108475360D01*
X85592214Y-108475363D01*
X85452863Y-108614714D01*
X85452860Y-108614718D01*
X85343371Y-108778579D01*
X85343364Y-108778592D01*
X85267950Y-108960660D01*
X85267947Y-108960670D01*
X85229500Y-109153956D01*
X85229500Y-109153959D01*
X85229500Y-110351041D01*
X85229500Y-110351043D01*
X85229499Y-110351043D01*
X84690500Y-110351043D01*
X84690500Y-109153956D01*
X84652052Y-108960670D01*
X84652051Y-108960669D01*
X84652051Y-108960665D01*
X84652049Y-108960660D01*
X84576635Y-108778592D01*
X84576628Y-108778579D01*
X84467139Y-108614718D01*
X84467136Y-108614714D01*
X84327785Y-108475363D01*
X84327781Y-108475360D01*
X84163920Y-108365871D01*
X84163907Y-108365864D01*
X83981839Y-108290450D01*
X83981829Y-108290447D01*
X83788543Y-108252000D01*
X83788541Y-108252000D01*
X83591459Y-108252000D01*
X83591457Y-108252000D01*
X83398170Y-108290447D01*
X83398160Y-108290450D01*
X83216092Y-108365864D01*
X83216079Y-108365871D01*
X83052218Y-108475360D01*
X83052214Y-108475363D01*
X82912863Y-108614714D01*
X82912860Y-108614718D01*
X82803371Y-108778579D01*
X82803364Y-108778592D01*
X82727950Y-108960660D01*
X82727947Y-108960670D01*
X82689500Y-109153956D01*
X82689500Y-109153959D01*
X82689500Y-110351041D01*
X82689500Y-110351043D01*
X82689499Y-110351043D01*
X82150500Y-110351043D01*
X82150500Y-109153956D01*
X82112052Y-108960670D01*
X82112051Y-108960669D01*
X82112051Y-108960665D01*
X82112049Y-108960660D01*
X82036635Y-108778592D01*
X82036628Y-108778579D01*
X81927139Y-108614718D01*
X81927136Y-108614714D01*
X81787785Y-108475363D01*
X81787781Y-108475360D01*
X81623920Y-108365871D01*
X81623907Y-108365864D01*
X81441839Y-108290450D01*
X81441829Y-108290447D01*
X81248543Y-108252000D01*
X81248541Y-108252000D01*
X81051459Y-108252000D01*
X81051457Y-108252000D01*
X80858170Y-108290447D01*
X80858160Y-108290450D01*
X80676092Y-108365864D01*
X80676079Y-108365871D01*
X80512218Y-108475360D01*
X80512214Y-108475363D01*
X80372863Y-108614714D01*
X80372860Y-108614718D01*
X80263371Y-108778579D01*
X80263364Y-108778592D01*
X80187950Y-108960660D01*
X80187947Y-108960670D01*
X80149500Y-109153956D01*
X80149500Y-109153959D01*
X80149500Y-110351041D01*
X80149500Y-110351043D01*
X80149499Y-110351043D01*
X79610500Y-110351043D01*
X79610500Y-109153956D01*
X79572052Y-108960670D01*
X79572051Y-108960669D01*
X79572051Y-108960665D01*
X79572049Y-108960660D01*
X79496635Y-108778592D01*
X79496628Y-108778579D01*
X79387139Y-108614718D01*
X79387136Y-108614714D01*
X79247785Y-108475363D01*
X79247781Y-108475360D01*
X79083920Y-108365871D01*
X79083907Y-108365864D01*
X78901839Y-108290450D01*
X78901829Y-108290447D01*
X78708543Y-108252000D01*
X78708541Y-108252000D01*
X78511459Y-108252000D01*
X78511457Y-108252000D01*
X78318170Y-108290447D01*
X78318160Y-108290450D01*
X78136092Y-108365864D01*
X78136079Y-108365871D01*
X77972218Y-108475360D01*
X77972214Y-108475363D01*
X77832863Y-108614714D01*
X77832860Y-108614718D01*
X77723371Y-108778579D01*
X77723364Y-108778592D01*
X77647950Y-108960660D01*
X77647947Y-108960670D01*
X77609500Y-109153956D01*
X77609500Y-109153959D01*
X77609500Y-110351041D01*
X77609500Y-110351043D01*
X77609499Y-110351043D01*
X77093781Y-110351043D01*
X77074725Y-110279925D01*
X77070500Y-110247832D01*
X77070500Y-109153956D01*
X77032052Y-108960670D01*
X77032051Y-108960669D01*
X77032051Y-108960665D01*
X77032049Y-108960660D01*
X76956635Y-108778592D01*
X76956628Y-108778579D01*
X76847139Y-108614718D01*
X76847136Y-108614714D01*
X76707785Y-108475363D01*
X76707781Y-108475360D01*
X76543920Y-108365871D01*
X76543907Y-108365864D01*
X76361839Y-108290450D01*
X76361829Y-108290447D01*
X76168543Y-108252000D01*
X76168541Y-108252000D01*
X75971459Y-108252000D01*
X75971457Y-108252000D01*
X75778170Y-108290447D01*
X75778160Y-108290450D01*
X75596092Y-108365864D01*
X75596079Y-108365871D01*
X75432218Y-108475360D01*
X75432214Y-108475363D01*
X75292863Y-108614714D01*
X75292860Y-108614718D01*
X75183371Y-108778579D01*
X75183364Y-108778592D01*
X75107950Y-108960660D01*
X75107947Y-108960670D01*
X75069500Y-109153956D01*
X75069500Y-109153959D01*
X75069500Y-110351041D01*
X75069500Y-110351043D01*
X75069499Y-110351043D01*
X75107947Y-110544329D01*
X75107950Y-110544339D01*
X75183364Y-110726407D01*
X75183371Y-110726420D01*
X75292860Y-110890281D01*
X75292863Y-110890285D01*
X75432214Y-111029636D01*
X75432218Y-111029639D01*
X75596079Y-111139128D01*
X75596092Y-111139135D01*
X75681250Y-111174408D01*
X75778165Y-111214551D01*
X75799691Y-111218832D01*
X75861601Y-111251217D01*
X75896176Y-111311932D01*
X75899500Y-111340450D01*
X75899500Y-112992451D01*
X75879815Y-113059490D01*
X75834518Y-113101506D01*
X75676493Y-113187024D01*
X75480257Y-113339761D01*
X75311833Y-113522717D01*
X75175826Y-113730893D01*
X75075936Y-113958618D01*
X75014892Y-114199675D01*
X75014890Y-114199687D01*
X74994357Y-114447494D01*
X74994357Y-114447505D01*
X75014890Y-114695312D01*
X75014892Y-114695324D01*
X75075936Y-114936381D01*
X75175826Y-115164106D01*
X75311833Y-115372282D01*
X75311836Y-115372285D01*
X75480256Y-115555238D01*
X75676491Y-115707974D01*
X75895190Y-115826328D01*
X76026509Y-115871410D01*
X76108105Y-115899422D01*
X76155523Y-115929022D01*
X76925961Y-116699461D01*
X76925965Y-116699464D01*
X77035118Y-116772398D01*
X77079923Y-116826010D01*
X77088630Y-116895335D01*
X77058476Y-116958362D01*
X76999033Y-116995082D01*
X76966227Y-116999500D01*
X70485883Y-116999500D01*
X70418844Y-116979815D01*
X70398202Y-116963181D01*
X67935015Y-114499994D01*
X69614357Y-114499994D01*
X69614357Y-114500005D01*
X69634890Y-114747812D01*
X69634892Y-114747824D01*
X69695936Y-114988881D01*
X69795826Y-115216606D01*
X69931833Y-115424782D01*
X69931836Y-115424785D01*
X70100256Y-115607738D01*
X70296491Y-115760474D01*
X70296493Y-115760475D01*
X70501484Y-115871411D01*
X70515190Y-115878828D01*
X70750386Y-115959571D01*
X70995665Y-116000500D01*
X71244335Y-116000500D01*
X71489614Y-115959571D01*
X71724810Y-115878828D01*
X71943509Y-115760474D01*
X72139744Y-115607738D01*
X72308164Y-115424785D01*
X72444173Y-115216607D01*
X72544063Y-114988881D01*
X72605108Y-114747821D01*
X72609458Y-114695324D01*
X72625643Y-114500005D01*
X72625643Y-114499994D01*
X72605109Y-114252187D01*
X72605107Y-114252175D01*
X72544063Y-114011118D01*
X72444173Y-113783393D01*
X72308166Y-113575217D01*
X72259834Y-113522715D01*
X72139744Y-113392262D01*
X71943509Y-113239526D01*
X71943507Y-113239525D01*
X71943506Y-113239524D01*
X71724811Y-113121172D01*
X71724802Y-113121169D01*
X71489616Y-113040429D01*
X71244335Y-112999500D01*
X70995665Y-112999500D01*
X70750383Y-113040429D01*
X70515197Y-113121169D01*
X70515188Y-113121172D01*
X70296493Y-113239524D01*
X70100257Y-113392261D01*
X69931833Y-113575217D01*
X69795826Y-113783393D01*
X69695936Y-114011118D01*
X69634892Y-114252175D01*
X69634890Y-114252187D01*
X69614357Y-114499994D01*
X67935015Y-114499994D01*
X67633810Y-114198789D01*
X67600325Y-114137466D01*
X67605309Y-114067774D01*
X67647181Y-114011841D01*
X67656201Y-114005688D01*
X67726562Y-113962124D01*
X67823901Y-113873388D01*
X67890979Y-113812238D01*
X67921564Y-113771738D01*
X68025058Y-113634689D01*
X68124229Y-113435528D01*
X68185115Y-113221536D01*
X68205643Y-113000000D01*
X68204943Y-112992451D01*
X68185115Y-112778464D01*
X68185114Y-112778462D01*
X68159308Y-112687764D01*
X68124229Y-112564472D01*
X68124224Y-112564461D01*
X68025061Y-112365316D01*
X68025056Y-112365308D01*
X67890979Y-112187761D01*
X67726562Y-112037876D01*
X67726560Y-112037874D01*
X67537404Y-111920754D01*
X67537398Y-111920752D01*
X67329940Y-111840382D01*
X67111243Y-111799500D01*
X66888757Y-111799500D01*
X66670060Y-111840382D01*
X66670056Y-111840383D01*
X66670054Y-111840384D01*
X66669587Y-111840564D01*
X66669280Y-111840684D01*
X66668884Y-111840717D01*
X66664549Y-111841951D01*
X66664307Y-111841102D01*
X66599657Y-111846538D01*
X66537920Y-111813821D01*
X66503672Y-111752921D01*
X66500500Y-111725052D01*
X66500500Y-108648230D01*
X67449500Y-108648230D01*
X67449500Y-110856769D01*
X67452353Y-110887199D01*
X67452353Y-110887201D01*
X67497206Y-111015380D01*
X67497207Y-111015382D01*
X67577850Y-111124650D01*
X67687118Y-111205293D01*
X67713573Y-111214550D01*
X67815299Y-111250146D01*
X67845730Y-111253000D01*
X67845734Y-111253000D01*
X69054270Y-111253000D01*
X69084699Y-111250146D01*
X69084701Y-111250146D01*
X69148790Y-111227719D01*
X69212882Y-111205293D01*
X69322150Y-111124650D01*
X69402793Y-111015382D01*
X69425219Y-110951290D01*
X69447646Y-110887201D01*
X69447646Y-110887199D01*
X69450500Y-110856769D01*
X69450500Y-110351043D01*
X69989499Y-110351043D01*
X70027947Y-110544329D01*
X70027950Y-110544339D01*
X70103364Y-110726407D01*
X70103371Y-110726420D01*
X70212860Y-110890281D01*
X70212863Y-110890285D01*
X70352214Y-111029636D01*
X70352218Y-111029639D01*
X70516079Y-111139128D01*
X70516092Y-111139135D01*
X70675814Y-111205293D01*
X70698165Y-111214551D01*
X70698169Y-111214551D01*
X70698170Y-111214552D01*
X70891456Y-111253000D01*
X70891459Y-111253000D01*
X71088543Y-111253000D01*
X71260313Y-111218832D01*
X71281835Y-111214551D01*
X71463914Y-111139132D01*
X71627782Y-111029639D01*
X71767139Y-110890282D01*
X71876632Y-110726414D01*
X71952051Y-110544335D01*
X71978087Y-110413445D01*
X71990500Y-110351043D01*
X72529499Y-110351043D01*
X72567947Y-110544329D01*
X72567950Y-110544339D01*
X72643364Y-110726407D01*
X72643371Y-110726420D01*
X72752860Y-110890281D01*
X72752863Y-110890285D01*
X72892214Y-111029636D01*
X72892218Y-111029639D01*
X73056079Y-111139128D01*
X73056092Y-111139135D01*
X73215814Y-111205293D01*
X73238165Y-111214551D01*
X73238169Y-111214551D01*
X73238170Y-111214552D01*
X73431456Y-111253000D01*
X73431459Y-111253000D01*
X73628543Y-111253000D01*
X73800313Y-111218832D01*
X73821835Y-111214551D01*
X74003914Y-111139132D01*
X74167782Y-111029639D01*
X74307139Y-110890282D01*
X74416632Y-110726414D01*
X74492051Y-110544335D01*
X74518087Y-110413445D01*
X74530500Y-110351043D01*
X74530500Y-109153956D01*
X74492052Y-108960670D01*
X74492051Y-108960669D01*
X74492051Y-108960665D01*
X74492049Y-108960660D01*
X74416635Y-108778592D01*
X74416628Y-108778579D01*
X74307139Y-108614718D01*
X74307136Y-108614714D01*
X74167785Y-108475363D01*
X74167781Y-108475360D01*
X74003920Y-108365871D01*
X74003907Y-108365864D01*
X73821839Y-108290450D01*
X73821829Y-108290447D01*
X73628543Y-108252000D01*
X73628541Y-108252000D01*
X73431459Y-108252000D01*
X73431457Y-108252000D01*
X73238170Y-108290447D01*
X73238160Y-108290450D01*
X73056092Y-108365864D01*
X73056079Y-108365871D01*
X72892218Y-108475360D01*
X72892214Y-108475363D01*
X72752863Y-108614714D01*
X72752860Y-108614718D01*
X72643371Y-108778579D01*
X72643364Y-108778592D01*
X72567950Y-108960660D01*
X72567947Y-108960670D01*
X72529500Y-109153956D01*
X72529500Y-109153959D01*
X72529500Y-110351041D01*
X72529500Y-110351043D01*
X72529499Y-110351043D01*
X71990500Y-110351043D01*
X71990500Y-109153956D01*
X71952052Y-108960670D01*
X71952051Y-108960669D01*
X71952051Y-108960665D01*
X71952049Y-108960660D01*
X71876635Y-108778592D01*
X71876628Y-108778579D01*
X71767139Y-108614718D01*
X71767136Y-108614714D01*
X71627785Y-108475363D01*
X71627781Y-108475360D01*
X71463920Y-108365871D01*
X71463907Y-108365864D01*
X71281839Y-108290450D01*
X71281829Y-108290447D01*
X71088543Y-108252000D01*
X71088541Y-108252000D01*
X70891459Y-108252000D01*
X70891457Y-108252000D01*
X70698170Y-108290447D01*
X70698160Y-108290450D01*
X70516092Y-108365864D01*
X70516079Y-108365871D01*
X70352218Y-108475360D01*
X70352214Y-108475363D01*
X70212863Y-108614714D01*
X70212860Y-108614718D01*
X70103371Y-108778579D01*
X70103364Y-108778592D01*
X70027950Y-108960660D01*
X70027947Y-108960670D01*
X69989500Y-109153956D01*
X69989500Y-109153959D01*
X69989500Y-110351041D01*
X69989500Y-110351043D01*
X69989499Y-110351043D01*
X69450500Y-110351043D01*
X69450500Y-108648230D01*
X69447646Y-108617800D01*
X69447646Y-108617798D01*
X69402793Y-108489619D01*
X69402792Y-108489617D01*
X69392270Y-108475360D01*
X69322150Y-108380350D01*
X69212882Y-108299707D01*
X69212880Y-108299706D01*
X69084700Y-108254853D01*
X69054270Y-108252000D01*
X69054266Y-108252000D01*
X67845734Y-108252000D01*
X67845730Y-108252000D01*
X67815300Y-108254853D01*
X67815298Y-108254853D01*
X67687119Y-108299706D01*
X67687117Y-108299707D01*
X67577850Y-108380350D01*
X67497207Y-108489617D01*
X67497206Y-108489619D01*
X67452353Y-108617798D01*
X67452353Y-108617800D01*
X67449500Y-108648230D01*
X66500500Y-108648230D01*
X66500500Y-93079999D01*
X128794357Y-93079999D01*
X128794357Y-93080000D01*
X128814884Y-93301535D01*
X128814885Y-93301537D01*
X128875769Y-93515523D01*
X128875775Y-93515538D01*
X128974938Y-93714683D01*
X128974942Y-93714689D01*
X129109020Y-93892238D01*
X129273437Y-94042123D01*
X129273439Y-94042125D01*
X129462595Y-94159245D01*
X129462596Y-94159245D01*
X129462599Y-94159247D01*
X129670060Y-94239618D01*
X129888757Y-94280500D01*
X129888759Y-94280500D01*
X130111241Y-94280500D01*
X130111243Y-94280500D01*
X130329940Y-94239618D01*
X130537401Y-94159247D01*
X130726562Y-94042124D01*
X130890981Y-93892236D01*
X131025058Y-93714689D01*
X131124229Y-93515528D01*
X131185115Y-93301536D01*
X131205643Y-93080000D01*
X131185115Y-92858464D01*
X131124229Y-92644472D01*
X131092126Y-92580000D01*
X131092126Y-92579999D01*
X134794357Y-92579999D01*
X134794357Y-92580000D01*
X134814884Y-92801535D01*
X134814885Y-92801537D01*
X134875769Y-93015523D01*
X134875775Y-93015538D01*
X134974938Y-93214683D01*
X134974943Y-93214691D01*
X135109020Y-93392238D01*
X135273437Y-93542123D01*
X135273439Y-93542125D01*
X135462595Y-93659245D01*
X135462596Y-93659245D01*
X135462599Y-93659247D01*
X135670060Y-93739618D01*
X135888757Y-93780500D01*
X135888759Y-93780500D01*
X136111241Y-93780500D01*
X136111243Y-93780500D01*
X136329940Y-93739618D01*
X136537401Y-93659247D01*
X136726562Y-93542124D01*
X136890981Y-93392236D01*
X137025058Y-93214689D01*
X137124229Y-93015528D01*
X137185115Y-92801536D01*
X137205643Y-92580000D01*
X137201936Y-92539999D01*
X138794357Y-92539999D01*
X138794357Y-92540000D01*
X138814884Y-92761535D01*
X138814885Y-92761537D01*
X138875769Y-92975523D01*
X138875775Y-92975538D01*
X138974938Y-93174683D01*
X138974943Y-93174691D01*
X139109020Y-93352238D01*
X139273437Y-93502123D01*
X139273439Y-93502125D01*
X139462595Y-93619245D01*
X139462596Y-93619245D01*
X139462599Y-93619247D01*
X139670060Y-93699618D01*
X139888757Y-93740500D01*
X139888759Y-93740500D01*
X140111241Y-93740500D01*
X140111243Y-93740500D01*
X140329940Y-93699618D01*
X140537401Y-93619247D01*
X140726562Y-93502124D01*
X140890981Y-93352236D01*
X141025058Y-93174689D01*
X141124229Y-92975528D01*
X141185115Y-92761536D01*
X141205643Y-92540000D01*
X141188821Y-92358464D01*
X141185115Y-92318464D01*
X141185114Y-92318462D01*
X141170689Y-92267764D01*
X141124229Y-92104472D01*
X141124224Y-92104461D01*
X141025061Y-91905316D01*
X141025056Y-91905308D01*
X140890979Y-91727761D01*
X140726562Y-91577876D01*
X140726560Y-91577874D01*
X140537404Y-91460754D01*
X140537398Y-91460752D01*
X140329940Y-91380382D01*
X140111243Y-91339500D01*
X139888757Y-91339500D01*
X139670060Y-91380382D01*
X139538864Y-91431207D01*
X139462601Y-91460752D01*
X139462595Y-91460754D01*
X139273439Y-91577874D01*
X139273437Y-91577876D01*
X139109020Y-91727761D01*
X138974943Y-91905308D01*
X138974938Y-91905316D01*
X138875775Y-92104461D01*
X138875769Y-92104476D01*
X138814885Y-92318462D01*
X138814884Y-92318464D01*
X138794357Y-92539999D01*
X137201936Y-92539999D01*
X137185115Y-92358464D01*
X137124229Y-92144472D01*
X137110985Y-92117874D01*
X137025061Y-91945316D01*
X137025056Y-91945308D01*
X136890979Y-91767761D01*
X136726562Y-91617876D01*
X136726560Y-91617874D01*
X136537404Y-91500754D01*
X136537398Y-91500752D01*
X136521394Y-91494552D01*
X136329940Y-91420382D01*
X136111243Y-91379500D01*
X135888757Y-91379500D01*
X135670060Y-91420382D01*
X135565853Y-91460752D01*
X135462601Y-91500752D01*
X135462595Y-91500754D01*
X135273439Y-91617874D01*
X135273437Y-91617876D01*
X135109020Y-91767761D01*
X134974943Y-91945308D01*
X134974938Y-91945316D01*
X134875775Y-92144461D01*
X134875769Y-92144476D01*
X134814885Y-92358462D01*
X134814884Y-92358464D01*
X134794357Y-92579999D01*
X131092126Y-92579999D01*
X131025061Y-92445316D01*
X131025056Y-92445308D01*
X130890979Y-92267761D01*
X130726562Y-92117876D01*
X130726560Y-92117874D01*
X130537404Y-92000754D01*
X130537398Y-92000752D01*
X130329940Y-91920382D01*
X130111243Y-91879500D01*
X129888757Y-91879500D01*
X129670060Y-91920382D01*
X129538864Y-91971207D01*
X129462601Y-92000752D01*
X129462595Y-92000754D01*
X129273439Y-92117874D01*
X129273437Y-92117876D01*
X129109020Y-92267761D01*
X128974943Y-92445308D01*
X128974938Y-92445316D01*
X128875775Y-92644461D01*
X128875769Y-92644476D01*
X128814885Y-92858462D01*
X128814884Y-92858464D01*
X128794357Y-93079999D01*
X66500500Y-93079999D01*
X66500500Y-90631043D01*
X77609499Y-90631043D01*
X77647947Y-90824329D01*
X77647950Y-90824339D01*
X77723364Y-91006407D01*
X77723371Y-91006420D01*
X77832860Y-91170281D01*
X77832863Y-91170285D01*
X77972214Y-91309636D01*
X77972218Y-91309639D01*
X78136079Y-91419128D01*
X78136092Y-91419135D01*
X78236571Y-91460754D01*
X78318165Y-91494551D01*
X78318169Y-91494551D01*
X78318170Y-91494552D01*
X78511456Y-91533000D01*
X78511459Y-91533000D01*
X78708543Y-91533000D01*
X78838582Y-91507132D01*
X78901835Y-91494551D01*
X79083914Y-91419132D01*
X79247782Y-91309639D01*
X79387139Y-91170282D01*
X79496632Y-91006414D01*
X79572051Y-90824335D01*
X79610500Y-90631043D01*
X80149499Y-90631043D01*
X80187947Y-90824329D01*
X80187950Y-90824339D01*
X80263364Y-91006407D01*
X80263371Y-91006420D01*
X80372860Y-91170281D01*
X80372863Y-91170285D01*
X80512214Y-91309636D01*
X80512218Y-91309639D01*
X80676079Y-91419128D01*
X80676092Y-91419135D01*
X80776571Y-91460754D01*
X80858165Y-91494551D01*
X80858169Y-91494551D01*
X80858170Y-91494552D01*
X81051456Y-91533000D01*
X81051459Y-91533000D01*
X81248543Y-91533000D01*
X81378582Y-91507132D01*
X81441835Y-91494551D01*
X81623914Y-91419132D01*
X81787782Y-91309639D01*
X81927139Y-91170282D01*
X82036632Y-91006414D01*
X82112051Y-90824335D01*
X82150500Y-90631043D01*
X82689499Y-90631043D01*
X82727947Y-90824329D01*
X82727950Y-90824339D01*
X82803364Y-91006407D01*
X82803371Y-91006420D01*
X82912860Y-91170281D01*
X82912863Y-91170285D01*
X83052214Y-91309636D01*
X83052218Y-91309639D01*
X83216079Y-91419128D01*
X83216092Y-91419135D01*
X83316571Y-91460754D01*
X83398165Y-91494551D01*
X83398169Y-91494551D01*
X83398170Y-91494552D01*
X83591456Y-91533000D01*
X83591459Y-91533000D01*
X83788543Y-91533000D01*
X83918582Y-91507132D01*
X83981835Y-91494551D01*
X84163914Y-91419132D01*
X84327782Y-91309639D01*
X84467139Y-91170282D01*
X84576632Y-91006414D01*
X84652051Y-90824335D01*
X84690500Y-90631043D01*
X85229499Y-90631043D01*
X85267947Y-90824329D01*
X85267950Y-90824339D01*
X85343364Y-91006407D01*
X85343371Y-91006420D01*
X85452860Y-91170281D01*
X85452863Y-91170285D01*
X85592214Y-91309636D01*
X85592218Y-91309639D01*
X85756079Y-91419128D01*
X85756092Y-91419135D01*
X85856571Y-91460754D01*
X85938165Y-91494551D01*
X85938169Y-91494551D01*
X85938170Y-91494552D01*
X86131456Y-91533000D01*
X86131459Y-91533000D01*
X86328543Y-91533000D01*
X86458582Y-91507132D01*
X86521835Y-91494551D01*
X86703914Y-91419132D01*
X86867782Y-91309639D01*
X87007139Y-91170282D01*
X87116632Y-91006414D01*
X87192051Y-90824335D01*
X87230500Y-90631043D01*
X87769499Y-90631043D01*
X87807947Y-90824329D01*
X87807950Y-90824339D01*
X87883364Y-91006407D01*
X87883371Y-91006420D01*
X87992860Y-91170281D01*
X87992863Y-91170285D01*
X88132214Y-91309636D01*
X88132218Y-91309639D01*
X88296079Y-91419128D01*
X88296092Y-91419135D01*
X88396571Y-91460754D01*
X88478165Y-91494551D01*
X88478169Y-91494551D01*
X88478170Y-91494552D01*
X88671456Y-91533000D01*
X88671459Y-91533000D01*
X88868543Y-91533000D01*
X88998582Y-91507132D01*
X89061835Y-91494551D01*
X89243914Y-91419132D01*
X89407782Y-91309639D01*
X89547139Y-91170282D01*
X89656632Y-91006414D01*
X89732051Y-90824335D01*
X89770500Y-90631043D01*
X90309499Y-90631043D01*
X90347947Y-90824329D01*
X90347950Y-90824339D01*
X90423364Y-91006407D01*
X90423371Y-91006420D01*
X90532860Y-91170281D01*
X90532863Y-91170285D01*
X90672214Y-91309636D01*
X90672218Y-91309639D01*
X90836079Y-91419128D01*
X90836092Y-91419135D01*
X90936571Y-91460754D01*
X91018165Y-91494551D01*
X91018169Y-91494551D01*
X91018170Y-91494552D01*
X91211456Y-91533000D01*
X91211459Y-91533000D01*
X91408543Y-91533000D01*
X91538582Y-91507132D01*
X91601835Y-91494551D01*
X91783914Y-91419132D01*
X91947782Y-91309639D01*
X92087139Y-91170282D01*
X92196632Y-91006414D01*
X92272051Y-90824335D01*
X92310500Y-90631043D01*
X92849499Y-90631043D01*
X92887947Y-90824329D01*
X92887950Y-90824339D01*
X92963364Y-91006407D01*
X92963371Y-91006420D01*
X93072860Y-91170281D01*
X93072863Y-91170285D01*
X93212214Y-91309636D01*
X93212218Y-91309639D01*
X93376079Y-91419128D01*
X93376092Y-91419135D01*
X93476571Y-91460754D01*
X93558165Y-91494551D01*
X93558169Y-91494551D01*
X93558170Y-91494552D01*
X93751456Y-91533000D01*
X93751459Y-91533000D01*
X93948543Y-91533000D01*
X94078582Y-91507132D01*
X94141835Y-91494551D01*
X94323914Y-91419132D01*
X94487782Y-91309639D01*
X94627139Y-91170282D01*
X94736632Y-91006414D01*
X94812051Y-90824335D01*
X94850500Y-90631043D01*
X95389499Y-90631043D01*
X95427947Y-90824329D01*
X95427950Y-90824339D01*
X95503364Y-91006407D01*
X95503371Y-91006420D01*
X95612860Y-91170281D01*
X95612863Y-91170285D01*
X95752214Y-91309636D01*
X95752218Y-91309639D01*
X95916079Y-91419128D01*
X95916092Y-91419135D01*
X96016571Y-91460754D01*
X96098165Y-91494551D01*
X96098169Y-91494551D01*
X96098170Y-91494552D01*
X96291456Y-91533000D01*
X96291459Y-91533000D01*
X96488543Y-91533000D01*
X96618582Y-91507132D01*
X96681835Y-91494551D01*
X96863914Y-91419132D01*
X97027782Y-91309639D01*
X97167139Y-91170282D01*
X97276632Y-91006414D01*
X97352051Y-90824335D01*
X97390500Y-90631043D01*
X97929499Y-90631043D01*
X97967947Y-90824329D01*
X97967950Y-90824339D01*
X98043364Y-91006407D01*
X98043371Y-91006420D01*
X98152860Y-91170281D01*
X98152863Y-91170285D01*
X98292214Y-91309636D01*
X98292218Y-91309639D01*
X98456079Y-91419128D01*
X98456092Y-91419135D01*
X98556571Y-91460754D01*
X98638165Y-91494551D01*
X98638169Y-91494551D01*
X98638170Y-91494552D01*
X98831456Y-91533000D01*
X98831459Y-91533000D01*
X99028543Y-91533000D01*
X99158582Y-91507132D01*
X99221835Y-91494551D01*
X99403914Y-91419132D01*
X99567782Y-91309639D01*
X99707139Y-91170282D01*
X99816632Y-91006414D01*
X99892051Y-90824335D01*
X99930500Y-90631043D01*
X100469499Y-90631043D01*
X100507947Y-90824329D01*
X100507950Y-90824339D01*
X100583364Y-91006407D01*
X100583371Y-91006420D01*
X100692860Y-91170281D01*
X100692863Y-91170285D01*
X100832214Y-91309636D01*
X100832218Y-91309639D01*
X100996079Y-91419128D01*
X100996092Y-91419135D01*
X101096571Y-91460754D01*
X101178165Y-91494551D01*
X101178169Y-91494551D01*
X101178170Y-91494552D01*
X101371456Y-91533000D01*
X101371459Y-91533000D01*
X101568543Y-91533000D01*
X101698582Y-91507132D01*
X101761835Y-91494551D01*
X101943914Y-91419132D01*
X102107782Y-91309639D01*
X102247139Y-91170282D01*
X102356632Y-91006414D01*
X102432051Y-90824335D01*
X102470500Y-90631043D01*
X103009499Y-90631043D01*
X103047947Y-90824329D01*
X103047950Y-90824339D01*
X103123364Y-91006407D01*
X103123371Y-91006420D01*
X103232860Y-91170281D01*
X103232863Y-91170285D01*
X103372214Y-91309636D01*
X103372218Y-91309639D01*
X103536079Y-91419128D01*
X103536092Y-91419135D01*
X103636571Y-91460754D01*
X103718165Y-91494551D01*
X103718169Y-91494551D01*
X103718170Y-91494552D01*
X103911456Y-91533000D01*
X103911459Y-91533000D01*
X104108543Y-91533000D01*
X104238582Y-91507132D01*
X104301835Y-91494551D01*
X104483914Y-91419132D01*
X104647782Y-91309639D01*
X104787139Y-91170282D01*
X104896632Y-91006414D01*
X104972051Y-90824335D01*
X105010500Y-90631043D01*
X105549499Y-90631043D01*
X105587947Y-90824329D01*
X105587950Y-90824339D01*
X105663364Y-91006407D01*
X105663371Y-91006420D01*
X105772860Y-91170281D01*
X105772863Y-91170285D01*
X105912214Y-91309636D01*
X105912218Y-91309639D01*
X106076079Y-91419128D01*
X106076092Y-91419135D01*
X106176571Y-91460754D01*
X106258165Y-91494551D01*
X106258169Y-91494551D01*
X106258170Y-91494552D01*
X106451456Y-91533000D01*
X106451459Y-91533000D01*
X106648543Y-91533000D01*
X106778582Y-91507132D01*
X106841835Y-91494551D01*
X107023914Y-91419132D01*
X107187782Y-91309639D01*
X107327139Y-91170282D01*
X107436632Y-91006414D01*
X107512051Y-90824335D01*
X107550500Y-90631041D01*
X107550500Y-89433959D01*
X107550500Y-89433956D01*
X107512052Y-89240670D01*
X107512051Y-89240669D01*
X107512051Y-89240665D01*
X107495414Y-89200500D01*
X107436635Y-89058592D01*
X107436628Y-89058579D01*
X107327139Y-88894718D01*
X107327136Y-88894714D01*
X107187785Y-88755363D01*
X107187781Y-88755360D01*
X107023920Y-88645871D01*
X107023907Y-88645864D01*
X106841839Y-88570450D01*
X106841829Y-88570447D01*
X106648543Y-88532000D01*
X106648541Y-88532000D01*
X106451459Y-88532000D01*
X106451457Y-88532000D01*
X106258170Y-88570447D01*
X106258160Y-88570450D01*
X106076092Y-88645864D01*
X106076079Y-88645871D01*
X105912218Y-88755360D01*
X105912214Y-88755363D01*
X105772863Y-88894714D01*
X105772860Y-88894718D01*
X105663371Y-89058579D01*
X105663364Y-89058592D01*
X105587950Y-89240660D01*
X105587947Y-89240670D01*
X105549500Y-89433956D01*
X105549500Y-89433959D01*
X105549500Y-90631041D01*
X105549500Y-90631043D01*
X105549499Y-90631043D01*
X105010500Y-90631043D01*
X105010500Y-90631041D01*
X105010500Y-89433959D01*
X105010500Y-89433956D01*
X104972052Y-89240670D01*
X104972051Y-89240669D01*
X104972051Y-89240665D01*
X104955414Y-89200500D01*
X104896635Y-89058592D01*
X104896628Y-89058579D01*
X104787139Y-88894718D01*
X104787136Y-88894714D01*
X104647785Y-88755363D01*
X104647781Y-88755360D01*
X104483920Y-88645871D01*
X104483907Y-88645864D01*
X104301839Y-88570450D01*
X104301829Y-88570447D01*
X104108543Y-88532000D01*
X104108541Y-88532000D01*
X103911459Y-88532000D01*
X103911457Y-88532000D01*
X103718170Y-88570447D01*
X103718160Y-88570450D01*
X103536092Y-88645864D01*
X103536079Y-88645871D01*
X103372218Y-88755360D01*
X103372214Y-88755363D01*
X103232863Y-88894714D01*
X103232860Y-88894718D01*
X103123371Y-89058579D01*
X103123364Y-89058592D01*
X103047950Y-89240660D01*
X103047947Y-89240670D01*
X103009500Y-89433956D01*
X103009500Y-89433959D01*
X103009500Y-90631041D01*
X103009500Y-90631043D01*
X103009499Y-90631043D01*
X102470500Y-90631043D01*
X102470500Y-90631041D01*
X102470500Y-89433959D01*
X102470500Y-89433956D01*
X102432052Y-89240670D01*
X102432051Y-89240669D01*
X102432051Y-89240665D01*
X102415414Y-89200500D01*
X102356635Y-89058592D01*
X102356628Y-89058579D01*
X102247139Y-88894718D01*
X102247136Y-88894714D01*
X102107785Y-88755363D01*
X102107781Y-88755360D01*
X101943920Y-88645871D01*
X101943907Y-88645864D01*
X101761839Y-88570450D01*
X101761829Y-88570447D01*
X101568543Y-88532000D01*
X101568541Y-88532000D01*
X101371459Y-88532000D01*
X101371457Y-88532000D01*
X101178170Y-88570447D01*
X101178160Y-88570450D01*
X100996092Y-88645864D01*
X100996079Y-88645871D01*
X100832218Y-88755360D01*
X100832214Y-88755363D01*
X100692863Y-88894714D01*
X100692860Y-88894718D01*
X100583371Y-89058579D01*
X100583364Y-89058592D01*
X100507950Y-89240660D01*
X100507947Y-89240670D01*
X100469500Y-89433956D01*
X100469500Y-89433959D01*
X100469500Y-90631041D01*
X100469500Y-90631043D01*
X100469499Y-90631043D01*
X99930500Y-90631043D01*
X99930500Y-90631041D01*
X99930500Y-89433959D01*
X99930500Y-89433956D01*
X99892052Y-89240670D01*
X99892051Y-89240669D01*
X99892051Y-89240665D01*
X99875414Y-89200500D01*
X99816635Y-89058592D01*
X99816628Y-89058579D01*
X99707139Y-88894718D01*
X99707136Y-88894714D01*
X99567785Y-88755363D01*
X99567781Y-88755360D01*
X99403920Y-88645871D01*
X99403907Y-88645864D01*
X99221839Y-88570450D01*
X99221829Y-88570447D01*
X99028543Y-88532000D01*
X99028541Y-88532000D01*
X98831459Y-88532000D01*
X98831457Y-88532000D01*
X98638170Y-88570447D01*
X98638160Y-88570450D01*
X98456092Y-88645864D01*
X98456079Y-88645871D01*
X98292218Y-88755360D01*
X98292214Y-88755363D01*
X98152863Y-88894714D01*
X98152860Y-88894718D01*
X98043371Y-89058579D01*
X98043364Y-89058592D01*
X97967950Y-89240660D01*
X97967947Y-89240670D01*
X97929500Y-89433956D01*
X97929500Y-89433959D01*
X97929500Y-90631041D01*
X97929500Y-90631043D01*
X97929499Y-90631043D01*
X97390500Y-90631043D01*
X97390500Y-90631041D01*
X97390500Y-89433959D01*
X97390500Y-89433956D01*
X97352052Y-89240670D01*
X97352051Y-89240669D01*
X97352051Y-89240665D01*
X97335414Y-89200500D01*
X97276635Y-89058592D01*
X97276628Y-89058579D01*
X97167139Y-88894718D01*
X97167136Y-88894714D01*
X97027785Y-88755363D01*
X97027781Y-88755360D01*
X96863920Y-88645871D01*
X96863907Y-88645864D01*
X96681839Y-88570450D01*
X96681829Y-88570447D01*
X96488543Y-88532000D01*
X96488541Y-88532000D01*
X96291459Y-88532000D01*
X96291457Y-88532000D01*
X96098170Y-88570447D01*
X96098160Y-88570450D01*
X95916092Y-88645864D01*
X95916079Y-88645871D01*
X95752218Y-88755360D01*
X95752214Y-88755363D01*
X95612863Y-88894714D01*
X95612860Y-88894718D01*
X95503371Y-89058579D01*
X95503364Y-89058592D01*
X95427950Y-89240660D01*
X95427947Y-89240670D01*
X95389500Y-89433956D01*
X95389500Y-89433959D01*
X95389500Y-90631041D01*
X95389500Y-90631043D01*
X95389499Y-90631043D01*
X94850500Y-90631043D01*
X94850500Y-90631041D01*
X94850500Y-89433959D01*
X94850500Y-89433956D01*
X94812052Y-89240670D01*
X94812051Y-89240669D01*
X94812051Y-89240665D01*
X94795414Y-89200500D01*
X94736635Y-89058592D01*
X94736628Y-89058579D01*
X94627139Y-88894718D01*
X94627136Y-88894714D01*
X94487785Y-88755363D01*
X94487781Y-88755360D01*
X94323920Y-88645871D01*
X94323907Y-88645864D01*
X94141839Y-88570450D01*
X94141829Y-88570447D01*
X93948543Y-88532000D01*
X93948541Y-88532000D01*
X93751459Y-88532000D01*
X93751457Y-88532000D01*
X93558170Y-88570447D01*
X93558160Y-88570450D01*
X93376092Y-88645864D01*
X93376079Y-88645871D01*
X93212218Y-88755360D01*
X93212214Y-88755363D01*
X93072863Y-88894714D01*
X93072860Y-88894718D01*
X92963371Y-89058579D01*
X92963364Y-89058592D01*
X92887950Y-89240660D01*
X92887947Y-89240670D01*
X92849500Y-89433956D01*
X92849500Y-89433959D01*
X92849500Y-90631041D01*
X92849500Y-90631043D01*
X92849499Y-90631043D01*
X92310500Y-90631043D01*
X92310500Y-90631041D01*
X92310500Y-89433959D01*
X92310500Y-89433956D01*
X92272052Y-89240670D01*
X92272051Y-89240669D01*
X92272051Y-89240665D01*
X92255414Y-89200500D01*
X92196635Y-89058592D01*
X92196628Y-89058579D01*
X92087139Y-88894718D01*
X92087136Y-88894714D01*
X91947785Y-88755363D01*
X91947781Y-88755360D01*
X91783920Y-88645871D01*
X91783907Y-88645864D01*
X91601839Y-88570450D01*
X91601829Y-88570447D01*
X91408543Y-88532000D01*
X91408541Y-88532000D01*
X91211459Y-88532000D01*
X91211457Y-88532000D01*
X91018170Y-88570447D01*
X91018160Y-88570450D01*
X90836092Y-88645864D01*
X90836079Y-88645871D01*
X90672218Y-88755360D01*
X90672214Y-88755363D01*
X90532863Y-88894714D01*
X90532860Y-88894718D01*
X90423371Y-89058579D01*
X90423364Y-89058592D01*
X90347950Y-89240660D01*
X90347947Y-89240670D01*
X90309500Y-89433956D01*
X90309500Y-89433959D01*
X90309500Y-90631041D01*
X90309500Y-90631043D01*
X90309499Y-90631043D01*
X89770500Y-90631043D01*
X89770500Y-90631041D01*
X89770500Y-89433959D01*
X89770500Y-89433956D01*
X89732052Y-89240670D01*
X89732051Y-89240669D01*
X89732051Y-89240665D01*
X89715414Y-89200500D01*
X89656635Y-89058592D01*
X89656628Y-89058579D01*
X89547139Y-88894718D01*
X89547136Y-88894714D01*
X89407785Y-88755363D01*
X89407781Y-88755360D01*
X89243920Y-88645871D01*
X89243907Y-88645864D01*
X89061839Y-88570450D01*
X89061829Y-88570447D01*
X88868543Y-88532000D01*
X88868541Y-88532000D01*
X88671459Y-88532000D01*
X88671457Y-88532000D01*
X88478170Y-88570447D01*
X88478160Y-88570450D01*
X88296092Y-88645864D01*
X88296079Y-88645871D01*
X88132218Y-88755360D01*
X88132214Y-88755363D01*
X87992863Y-88894714D01*
X87992860Y-88894718D01*
X87883371Y-89058579D01*
X87883364Y-89058592D01*
X87807950Y-89240660D01*
X87807947Y-89240670D01*
X87769500Y-89433956D01*
X87769500Y-89433959D01*
X87769500Y-90631041D01*
X87769500Y-90631043D01*
X87769499Y-90631043D01*
X87230500Y-90631043D01*
X87230500Y-90631041D01*
X87230500Y-89433959D01*
X87230500Y-89433956D01*
X87192052Y-89240670D01*
X87192051Y-89240669D01*
X87192051Y-89240665D01*
X87175414Y-89200500D01*
X87116635Y-89058592D01*
X87116628Y-89058579D01*
X87007139Y-88894718D01*
X87007136Y-88894714D01*
X86867785Y-88755363D01*
X86867781Y-88755360D01*
X86703920Y-88645871D01*
X86703907Y-88645864D01*
X86521839Y-88570450D01*
X86521829Y-88570447D01*
X86328543Y-88532000D01*
X86328541Y-88532000D01*
X86131459Y-88532000D01*
X86131457Y-88532000D01*
X85938170Y-88570447D01*
X85938160Y-88570450D01*
X85756092Y-88645864D01*
X85756079Y-88645871D01*
X85592218Y-88755360D01*
X85592214Y-88755363D01*
X85452863Y-88894714D01*
X85452860Y-88894718D01*
X85343371Y-89058579D01*
X85343364Y-89058592D01*
X85267950Y-89240660D01*
X85267947Y-89240670D01*
X85229500Y-89433956D01*
X85229500Y-89433959D01*
X85229500Y-90631041D01*
X85229500Y-90631043D01*
X85229499Y-90631043D01*
X84690500Y-90631043D01*
X84690500Y-90631041D01*
X84690500Y-89433959D01*
X84690500Y-89433956D01*
X84652052Y-89240670D01*
X84652051Y-89240669D01*
X84652051Y-89240665D01*
X84635414Y-89200500D01*
X84576635Y-89058592D01*
X84576628Y-89058579D01*
X84467139Y-88894718D01*
X84467136Y-88894714D01*
X84327785Y-88755363D01*
X84327781Y-88755360D01*
X84163920Y-88645871D01*
X84163907Y-88645864D01*
X83981839Y-88570450D01*
X83981829Y-88570447D01*
X83788543Y-88532000D01*
X83788541Y-88532000D01*
X83591459Y-88532000D01*
X83591457Y-88532000D01*
X83398170Y-88570447D01*
X83398160Y-88570450D01*
X83216092Y-88645864D01*
X83216079Y-88645871D01*
X83052218Y-88755360D01*
X83052214Y-88755363D01*
X82912863Y-88894714D01*
X82912860Y-88894718D01*
X82803371Y-89058579D01*
X82803364Y-89058592D01*
X82727950Y-89240660D01*
X82727947Y-89240670D01*
X82689500Y-89433956D01*
X82689500Y-89433959D01*
X82689500Y-90631041D01*
X82689500Y-90631043D01*
X82689499Y-90631043D01*
X82150500Y-90631043D01*
X82150500Y-90631041D01*
X82150500Y-89433959D01*
X82150500Y-89433956D01*
X82112052Y-89240670D01*
X82112051Y-89240669D01*
X82112051Y-89240665D01*
X82095414Y-89200500D01*
X82036635Y-89058592D01*
X82036628Y-89058579D01*
X81927139Y-88894718D01*
X81927136Y-88894714D01*
X81787785Y-88755363D01*
X81787781Y-88755360D01*
X81623920Y-88645871D01*
X81623907Y-88645864D01*
X81441839Y-88570450D01*
X81441829Y-88570447D01*
X81248543Y-88532000D01*
X81248541Y-88532000D01*
X81051459Y-88532000D01*
X81051457Y-88532000D01*
X80858170Y-88570447D01*
X80858160Y-88570450D01*
X80676092Y-88645864D01*
X80676079Y-88645871D01*
X80512218Y-88755360D01*
X80512214Y-88755363D01*
X80372863Y-88894714D01*
X80372860Y-88894718D01*
X80263371Y-89058579D01*
X80263364Y-89058592D01*
X80187950Y-89240660D01*
X80187947Y-89240670D01*
X80149500Y-89433956D01*
X80149500Y-89433959D01*
X80149500Y-90631041D01*
X80149500Y-90631043D01*
X80149499Y-90631043D01*
X79610500Y-90631043D01*
X79610500Y-90631041D01*
X79610500Y-89433959D01*
X79610500Y-89433956D01*
X79572052Y-89240670D01*
X79572051Y-89240669D01*
X79572051Y-89240665D01*
X79555414Y-89200500D01*
X79496635Y-89058592D01*
X79496628Y-89058579D01*
X79387139Y-88894718D01*
X79387136Y-88894714D01*
X79247785Y-88755363D01*
X79247781Y-88755360D01*
X79083920Y-88645871D01*
X79083907Y-88645864D01*
X78901839Y-88570450D01*
X78901829Y-88570447D01*
X78708543Y-88532000D01*
X78708541Y-88532000D01*
X78511459Y-88532000D01*
X78511457Y-88532000D01*
X78318170Y-88570447D01*
X78318160Y-88570450D01*
X78136092Y-88645864D01*
X78136079Y-88645871D01*
X77972218Y-88755360D01*
X77972214Y-88755363D01*
X77832863Y-88894714D01*
X77832860Y-88894718D01*
X77723371Y-89058579D01*
X77723364Y-89058592D01*
X77647950Y-89240660D01*
X77647947Y-89240670D01*
X77609500Y-89433956D01*
X77609500Y-89433959D01*
X77609500Y-90631041D01*
X77609500Y-90631043D01*
X77609499Y-90631043D01*
X66500500Y-90631043D01*
X66500500Y-88124500D01*
X66520185Y-88057461D01*
X66572989Y-88011706D01*
X66624500Y-88000500D01*
X86098543Y-88000500D01*
X86101062Y-87999999D01*
X128794357Y-87999999D01*
X128794357Y-88000000D01*
X128814884Y-88221535D01*
X128814885Y-88221537D01*
X128875769Y-88435523D01*
X128875775Y-88435538D01*
X128974938Y-88634683D01*
X128974943Y-88634691D01*
X129109020Y-88812238D01*
X129273437Y-88962123D01*
X129273439Y-88962125D01*
X129462595Y-89079245D01*
X129462596Y-89079245D01*
X129462599Y-89079247D01*
X129670060Y-89159618D01*
X129888757Y-89200500D01*
X129888759Y-89200500D01*
X130111241Y-89200500D01*
X130111243Y-89200500D01*
X130329940Y-89159618D01*
X130537401Y-89079247D01*
X130726562Y-88962124D01*
X130890981Y-88812236D01*
X131025058Y-88634689D01*
X131124229Y-88435528D01*
X131185115Y-88221536D01*
X131205643Y-88000000D01*
X131202126Y-87962050D01*
X131185115Y-87778464D01*
X131185114Y-87778462D01*
X131168917Y-87721536D01*
X131124229Y-87564472D01*
X131124224Y-87564461D01*
X131092126Y-87499999D01*
X134794357Y-87499999D01*
X134794357Y-87500000D01*
X134814884Y-87721535D01*
X134814885Y-87721537D01*
X134875769Y-87935523D01*
X134875775Y-87935538D01*
X134974938Y-88134683D01*
X134974943Y-88134691D01*
X135109020Y-88312238D01*
X135273437Y-88462123D01*
X135273439Y-88462125D01*
X135462595Y-88579245D01*
X135462596Y-88579245D01*
X135462599Y-88579247D01*
X135670060Y-88659618D01*
X135888757Y-88700500D01*
X135888759Y-88700500D01*
X136111241Y-88700500D01*
X136111243Y-88700500D01*
X136329940Y-88659618D01*
X136537401Y-88579247D01*
X136726562Y-88462124D01*
X136877934Y-88324130D01*
X136890979Y-88312238D01*
X136916486Y-88278462D01*
X137025058Y-88134689D01*
X137124229Y-87935528D01*
X137185115Y-87721536D01*
X137205643Y-87500000D01*
X137201936Y-87459999D01*
X138794357Y-87459999D01*
X138794357Y-87460000D01*
X138814884Y-87681535D01*
X138814885Y-87681537D01*
X138875769Y-87895523D01*
X138875775Y-87895538D01*
X138974938Y-88094683D01*
X138974943Y-88094691D01*
X139109020Y-88272238D01*
X139273437Y-88422123D01*
X139273439Y-88422125D01*
X139462595Y-88539245D01*
X139462596Y-88539245D01*
X139462599Y-88539247D01*
X139670060Y-88619618D01*
X139888757Y-88660500D01*
X139888759Y-88660500D01*
X140111241Y-88660500D01*
X140111243Y-88660500D01*
X140329940Y-88619618D01*
X140537401Y-88539247D01*
X140726562Y-88422124D01*
X140884149Y-88278464D01*
X140890979Y-88272238D01*
X140929268Y-88221536D01*
X141025058Y-88094689D01*
X141124229Y-87895528D01*
X141185115Y-87681536D01*
X141205643Y-87460000D01*
X141188821Y-87278464D01*
X141185115Y-87238464D01*
X141185114Y-87238462D01*
X141179552Y-87218915D01*
X141124229Y-87024472D01*
X141124224Y-87024461D01*
X141025061Y-86825316D01*
X141025056Y-86825308D01*
X140890979Y-86647761D01*
X140726562Y-86497876D01*
X140726560Y-86497874D01*
X140537404Y-86380754D01*
X140537398Y-86380752D01*
X140329940Y-86300382D01*
X140111243Y-86259500D01*
X139888757Y-86259500D01*
X139670060Y-86300382D01*
X139539132Y-86351104D01*
X139462601Y-86380752D01*
X139462595Y-86380754D01*
X139273439Y-86497874D01*
X139273437Y-86497876D01*
X139109020Y-86647761D01*
X138974943Y-86825308D01*
X138974938Y-86825316D01*
X138875775Y-87024461D01*
X138875769Y-87024476D01*
X138814885Y-87238462D01*
X138814884Y-87238464D01*
X138794357Y-87459999D01*
X137201936Y-87459999D01*
X137185115Y-87278464D01*
X137124229Y-87064472D01*
X137110464Y-87036828D01*
X137025061Y-86865316D01*
X137025056Y-86865308D01*
X136890979Y-86687761D01*
X136726562Y-86537876D01*
X136726560Y-86537874D01*
X136537404Y-86420754D01*
X136537398Y-86420752D01*
X136329940Y-86340382D01*
X136111243Y-86299500D01*
X135888757Y-86299500D01*
X135670060Y-86340382D01*
X135613695Y-86362218D01*
X135462601Y-86420752D01*
X135462595Y-86420754D01*
X135273439Y-86537874D01*
X135273437Y-86537876D01*
X135109020Y-86687761D01*
X134974943Y-86865308D01*
X134974938Y-86865316D01*
X134875775Y-87064461D01*
X134875769Y-87064476D01*
X134814885Y-87278462D01*
X134814884Y-87278464D01*
X134794357Y-87499999D01*
X131092126Y-87499999D01*
X131025061Y-87365316D01*
X131025056Y-87365308D01*
X130890979Y-87187761D01*
X130726562Y-87037876D01*
X130726560Y-87037874D01*
X130537404Y-86920754D01*
X130537398Y-86920752D01*
X130329940Y-86840382D01*
X130111243Y-86799500D01*
X129888757Y-86799500D01*
X129670060Y-86840382D01*
X129538864Y-86891207D01*
X129462601Y-86920752D01*
X129462595Y-86920754D01*
X129273439Y-87037874D01*
X129273437Y-87037876D01*
X129109020Y-87187761D01*
X128974943Y-87365308D01*
X128974938Y-87365316D01*
X128875775Y-87564461D01*
X128875769Y-87564476D01*
X128814885Y-87778462D01*
X128814884Y-87778464D01*
X128794357Y-87999999D01*
X86101062Y-87999999D01*
X86194213Y-87981469D01*
X86242050Y-87971954D01*
X86291836Y-87962051D01*
X86345165Y-87939961D01*
X86473914Y-87886632D01*
X86637782Y-87777139D01*
X86777139Y-87637782D01*
X86777140Y-87637780D01*
X87032139Y-87382782D01*
X87141631Y-87218915D01*
X87141632Y-87218914D01*
X87201805Y-87073643D01*
X87217051Y-87036836D01*
X87255500Y-86843541D01*
X87255500Y-86646460D01*
X87255500Y-84761269D01*
X87275185Y-84694230D01*
X87279761Y-84687667D01*
X87280056Y-84687191D01*
X87280058Y-84687189D01*
X87379229Y-84488028D01*
X87428013Y-84316564D01*
X87459596Y-84262822D01*
X90137778Y-81584641D01*
X90137782Y-81584639D01*
X90277139Y-81445282D01*
X90386632Y-81281414D01*
X90387065Y-81280370D01*
X90462049Y-81099339D01*
X90462051Y-81099335D01*
X90500500Y-80906041D01*
X90500500Y-78984635D01*
X111899500Y-78984635D01*
X111899500Y-81280370D01*
X111899501Y-81280376D01*
X111905908Y-81339983D01*
X111956202Y-81474828D01*
X111956206Y-81474835D01*
X112042452Y-81590044D01*
X112042455Y-81590047D01*
X112157664Y-81676293D01*
X112157671Y-81676297D01*
X112292517Y-81726591D01*
X112292516Y-81726591D01*
X112299444Y-81727335D01*
X112352127Y-81733000D01*
X114647872Y-81732999D01*
X114707483Y-81726591D01*
X114842331Y-81676296D01*
X114957546Y-81590046D01*
X114987384Y-81550188D01*
X115043318Y-81508318D01*
X115086650Y-81500500D01*
X119598422Y-81500500D01*
X119792826Y-81469709D01*
X119980026Y-81408884D01*
X120155405Y-81319524D01*
X120314646Y-81203828D01*
X122203829Y-79314646D01*
X122319524Y-79155405D01*
X122408884Y-78980026D01*
X122469709Y-78792826D01*
X122470131Y-78790164D01*
X122500500Y-78598421D01*
X122500500Y-76552495D01*
X133254592Y-76552495D01*
X133254592Y-76552504D01*
X133274196Y-76814120D01*
X133274197Y-76814125D01*
X133332576Y-77069902D01*
X133332578Y-77069911D01*
X133332580Y-77069916D01*
X133428432Y-77314143D01*
X133559614Y-77541357D01*
X133654266Y-77660047D01*
X133723198Y-77746485D01*
X133858938Y-77872432D01*
X133915521Y-77924933D01*
X134132296Y-78072728D01*
X134132301Y-78072730D01*
X134132302Y-78072731D01*
X134132303Y-78072732D01*
X134204995Y-78107738D01*
X134368673Y-78186561D01*
X134368674Y-78186561D01*
X134368677Y-78186563D01*
X134619385Y-78263896D01*
X134878818Y-78303000D01*
X135141182Y-78303000D01*
X135400615Y-78263896D01*
X135651323Y-78186563D01*
X135887704Y-78072728D01*
X136104479Y-77924933D01*
X136255519Y-77784789D01*
X136296801Y-77746485D01*
X136296801Y-77746483D01*
X136296805Y-77746481D01*
X136460386Y-77541357D01*
X136591568Y-77314143D01*
X136687420Y-77069916D01*
X136745802Y-76814130D01*
X136750444Y-76752187D01*
X136765408Y-76552504D01*
X136765408Y-76552495D01*
X136745803Y-76290879D01*
X136745802Y-76290874D01*
X136745802Y-76290870D01*
X136687420Y-76035084D01*
X136591568Y-75790857D01*
X136460386Y-75563643D01*
X136296805Y-75358519D01*
X136296804Y-75358518D01*
X136296801Y-75358514D01*
X136104479Y-75180067D01*
X135887704Y-75032272D01*
X135887700Y-75032270D01*
X135887697Y-75032268D01*
X135887696Y-75032267D01*
X135651325Y-74918438D01*
X135651327Y-74918438D01*
X135400623Y-74841106D01*
X135400619Y-74841105D01*
X135400615Y-74841104D01*
X135275823Y-74822294D01*
X135141187Y-74802000D01*
X135141182Y-74802000D01*
X134878818Y-74802000D01*
X134878812Y-74802000D01*
X134717247Y-74826353D01*
X134619385Y-74841104D01*
X134619382Y-74841105D01*
X134619376Y-74841106D01*
X134368673Y-74918438D01*
X134132303Y-75032267D01*
X134132302Y-75032268D01*
X133915520Y-75180067D01*
X133723198Y-75358514D01*
X133559614Y-75563643D01*
X133428432Y-75790856D01*
X133332582Y-76035078D01*
X133332576Y-76035097D01*
X133274197Y-76290874D01*
X133274196Y-76290879D01*
X133254592Y-76552495D01*
X122500500Y-76552495D01*
X122500500Y-61651577D01*
X122474638Y-61488294D01*
X122469709Y-61457174D01*
X122434670Y-61349336D01*
X122408884Y-61269974D01*
X122408884Y-61269973D01*
X122319523Y-61094594D01*
X122203828Y-60935354D01*
X117820969Y-56552495D01*
X121164592Y-56552495D01*
X121164592Y-56552504D01*
X121184196Y-56814120D01*
X121184197Y-56814125D01*
X121184197Y-56814129D01*
X121184198Y-56814130D01*
X121187773Y-56829794D01*
X121242576Y-57069902D01*
X121242578Y-57069911D01*
X121242580Y-57069916D01*
X121338432Y-57314143D01*
X121469614Y-57541357D01*
X121522398Y-57607546D01*
X121633198Y-57746485D01*
X121752827Y-57857483D01*
X121825521Y-57924933D01*
X122042296Y-58072728D01*
X122042301Y-58072730D01*
X122042302Y-58072731D01*
X122042303Y-58072732D01*
X122114592Y-58107544D01*
X122278673Y-58186561D01*
X122278674Y-58186561D01*
X122278677Y-58186563D01*
X122529385Y-58263896D01*
X122788818Y-58303000D01*
X123051182Y-58303000D01*
X123310615Y-58263896D01*
X123561323Y-58186563D01*
X123797704Y-58072728D01*
X124014479Y-57924933D01*
X124181260Y-57770183D01*
X124206801Y-57746485D01*
X124206801Y-57746483D01*
X124206805Y-57746481D01*
X124370386Y-57541357D01*
X124501568Y-57314143D01*
X124597420Y-57069916D01*
X124655802Y-56814130D01*
X124655803Y-56814120D01*
X124675408Y-56552504D01*
X124675408Y-56552495D01*
X124655803Y-56290879D01*
X124655802Y-56290874D01*
X124655802Y-56290870D01*
X124597420Y-56035084D01*
X124501568Y-55790857D01*
X124370386Y-55563643D01*
X124206805Y-55358519D01*
X124206804Y-55358518D01*
X124206801Y-55358514D01*
X124014479Y-55180067D01*
X124010812Y-55177567D01*
X123797704Y-55032272D01*
X123797700Y-55032270D01*
X123797697Y-55032268D01*
X123797696Y-55032267D01*
X123561325Y-54918438D01*
X123561327Y-54918438D01*
X123310623Y-54841106D01*
X123310619Y-54841105D01*
X123310615Y-54841104D01*
X123185823Y-54822294D01*
X123051187Y-54802000D01*
X123051182Y-54802000D01*
X122788818Y-54802000D01*
X122788812Y-54802000D01*
X122627780Y-54826273D01*
X122529385Y-54841104D01*
X122529382Y-54841105D01*
X122529376Y-54841106D01*
X122278673Y-54918438D01*
X122042303Y-55032267D01*
X122042302Y-55032268D01*
X121825520Y-55180067D01*
X121633198Y-55358514D01*
X121469614Y-55563643D01*
X121338432Y-55790856D01*
X121242582Y-56035078D01*
X121242576Y-56035097D01*
X121184197Y-56290874D01*
X121184196Y-56290879D01*
X121164592Y-56552495D01*
X117820969Y-56552495D01*
X117786883Y-56518409D01*
X117753398Y-56457086D01*
X117750911Y-56439994D01*
X117735803Y-56238378D01*
X117735802Y-56238374D01*
X117735802Y-56238370D01*
X117677420Y-55982584D01*
X117581568Y-55738357D01*
X117450386Y-55511143D01*
X117286805Y-55306019D01*
X117286804Y-55306018D01*
X117286801Y-55306014D01*
X117094479Y-55127567D01*
X117055314Y-55100865D01*
X116877704Y-54979772D01*
X116877700Y-54979770D01*
X116877697Y-54979768D01*
X116877696Y-54979767D01*
X116641325Y-54865938D01*
X116641327Y-54865938D01*
X116390623Y-54788606D01*
X116390619Y-54788605D01*
X116390615Y-54788604D01*
X116265823Y-54769794D01*
X116131187Y-54749500D01*
X116131182Y-54749500D01*
X115868818Y-54749500D01*
X115868812Y-54749500D01*
X115707247Y-54773853D01*
X115609385Y-54788604D01*
X115609382Y-54788605D01*
X115609376Y-54788606D01*
X115358673Y-54865938D01*
X115122303Y-54979767D01*
X115122302Y-54979768D01*
X114905520Y-55127567D01*
X114713198Y-55306014D01*
X114549614Y-55511143D01*
X114418432Y-55738356D01*
X114322582Y-55982578D01*
X114322576Y-55982597D01*
X114264197Y-56238374D01*
X114264196Y-56238379D01*
X114244592Y-56499995D01*
X114244592Y-56500004D01*
X114264196Y-56761620D01*
X114264197Y-56761625D01*
X114322576Y-57017402D01*
X114322578Y-57017411D01*
X114322580Y-57017416D01*
X114418432Y-57261643D01*
X114549614Y-57488857D01*
X114644266Y-57607547D01*
X114713198Y-57693985D01*
X114879055Y-57847876D01*
X114905521Y-57872433D01*
X115122296Y-58020228D01*
X115122301Y-58020230D01*
X115122302Y-58020231D01*
X115122303Y-58020232D01*
X115226122Y-58070228D01*
X115358673Y-58134061D01*
X115358674Y-58134061D01*
X115358677Y-58134063D01*
X115609385Y-58211396D01*
X115868818Y-58250500D01*
X115930664Y-58250500D01*
X115997703Y-58270185D01*
X116018345Y-58286819D01*
X119963181Y-62231655D01*
X119996666Y-62292978D01*
X119999500Y-62319336D01*
X119999500Y-77930663D01*
X119979815Y-77997702D01*
X119963181Y-78018344D01*
X119018345Y-78963181D01*
X118957022Y-78996666D01*
X118930664Y-78999500D01*
X115207967Y-78999500D01*
X115140928Y-78979815D01*
X115095173Y-78927011D01*
X115091785Y-78918833D01*
X115043797Y-78790171D01*
X115043793Y-78790164D01*
X114957547Y-78674955D01*
X114957544Y-78674952D01*
X114842335Y-78588706D01*
X114842328Y-78588702D01*
X114707482Y-78538408D01*
X114707483Y-78538408D01*
X114647883Y-78532001D01*
X114647881Y-78532000D01*
X114647873Y-78532000D01*
X114647864Y-78532000D01*
X112352129Y-78532000D01*
X112352123Y-78532001D01*
X112292516Y-78538408D01*
X112157671Y-78588702D01*
X112157664Y-78588706D01*
X112042455Y-78674952D01*
X112042452Y-78674955D01*
X111956206Y-78790164D01*
X111956202Y-78790171D01*
X111905908Y-78925017D01*
X111899501Y-78984616D01*
X111899500Y-78984635D01*
X90500500Y-78984635D01*
X90500500Y-74754635D01*
X92759500Y-74754635D01*
X92759500Y-77350370D01*
X92759501Y-77350376D01*
X92765908Y-77409983D01*
X92816202Y-77544828D01*
X92816206Y-77544835D01*
X92902452Y-77660044D01*
X92902455Y-77660047D01*
X93017664Y-77746293D01*
X93017671Y-77746297D01*
X93152517Y-77796591D01*
X93152516Y-77796591D01*
X93159444Y-77797335D01*
X93212127Y-77803000D01*
X95807872Y-77802999D01*
X95867483Y-77796591D01*
X96002331Y-77746296D01*
X96117546Y-77660046D01*
X96203796Y-77544831D01*
X96254091Y-77409983D01*
X96260500Y-77350373D01*
X96260499Y-74754628D01*
X96254091Y-74695017D01*
X96203796Y-74560169D01*
X96203795Y-74560168D01*
X96203793Y-74560164D01*
X96117547Y-74444955D01*
X96117544Y-74444952D01*
X96002335Y-74358706D01*
X96002328Y-74358702D01*
X95867482Y-74308408D01*
X95867483Y-74308408D01*
X95807883Y-74302001D01*
X95807881Y-74302000D01*
X95807873Y-74302000D01*
X95807864Y-74302000D01*
X93212129Y-74302000D01*
X93212123Y-74302001D01*
X93152516Y-74308408D01*
X93017671Y-74358702D01*
X93017664Y-74358706D01*
X92902455Y-74444952D01*
X92902452Y-74444955D01*
X92816206Y-74560164D01*
X92816202Y-74560171D01*
X92765908Y-74695017D01*
X92760051Y-74749500D01*
X92759501Y-74754623D01*
X92759500Y-74754635D01*
X90500500Y-74754635D01*
X90500500Y-73948959D01*
X90500500Y-73948956D01*
X90462052Y-73755670D01*
X90462051Y-73755669D01*
X90462051Y-73755665D01*
X90435087Y-73690568D01*
X90386635Y-73573592D01*
X90386628Y-73573579D01*
X90277140Y-73409719D01*
X90277139Y-73409718D01*
X90137782Y-73270361D01*
X90137781Y-73270360D01*
X87919915Y-71052495D01*
X92754592Y-71052495D01*
X92754592Y-71052504D01*
X92774196Y-71314120D01*
X92774197Y-71314125D01*
X92774197Y-71314129D01*
X92774198Y-71314130D01*
X92776106Y-71322488D01*
X92832576Y-71569902D01*
X92832578Y-71569911D01*
X92832580Y-71569916D01*
X92928432Y-71814143D01*
X93059614Y-72041357D01*
X93143774Y-72146890D01*
X93223198Y-72246485D01*
X93391882Y-72402999D01*
X93415521Y-72424933D01*
X93632296Y-72572728D01*
X93632301Y-72572730D01*
X93632302Y-72572731D01*
X93632303Y-72572732D01*
X93719412Y-72614681D01*
X93868673Y-72686561D01*
X93868674Y-72686561D01*
X93868677Y-72686563D01*
X94119385Y-72763896D01*
X94378818Y-72803000D01*
X94641182Y-72803000D01*
X94900615Y-72763896D01*
X95151323Y-72686563D01*
X95387704Y-72572728D01*
X95604479Y-72424933D01*
X95796805Y-72246481D01*
X95960386Y-72041357D01*
X96091568Y-71814143D01*
X96187420Y-71569916D01*
X96245802Y-71314130D01*
X96265408Y-71052500D01*
X96261474Y-70999999D01*
X101714357Y-70999999D01*
X101714357Y-71000000D01*
X101734884Y-71221535D01*
X101734885Y-71221537D01*
X101795769Y-71435523D01*
X101795775Y-71435538D01*
X101894938Y-71634683D01*
X101894943Y-71634691D01*
X102029020Y-71812238D01*
X102193437Y-71962123D01*
X102193439Y-71962125D01*
X102382595Y-72079245D01*
X102382596Y-72079245D01*
X102382599Y-72079247D01*
X102590060Y-72159618D01*
X102808757Y-72200500D01*
X102808759Y-72200500D01*
X103031241Y-72200500D01*
X103031243Y-72200500D01*
X103249940Y-72159618D01*
X103457401Y-72079247D01*
X103646562Y-71962124D01*
X103808889Y-71814143D01*
X103810979Y-71812238D01*
X103877608Y-71724008D01*
X103945058Y-71634689D01*
X104044229Y-71435528D01*
X104105115Y-71221536D01*
X104125643Y-71000000D01*
X104125643Y-70999999D01*
X106794357Y-70999999D01*
X106794357Y-71000000D01*
X106814884Y-71221535D01*
X106814885Y-71221537D01*
X106875769Y-71435523D01*
X106875775Y-71435538D01*
X106974938Y-71634683D01*
X106974943Y-71634691D01*
X107109020Y-71812238D01*
X107273437Y-71962123D01*
X107273439Y-71962125D01*
X107462595Y-72079245D01*
X107462596Y-72079245D01*
X107462599Y-72079247D01*
X107670060Y-72159618D01*
X107888757Y-72200500D01*
X107888759Y-72200500D01*
X108111241Y-72200500D01*
X108111243Y-72200500D01*
X108329940Y-72159618D01*
X108537401Y-72079247D01*
X108726562Y-71962124D01*
X108888889Y-71814143D01*
X108890979Y-71812238D01*
X108957608Y-71724008D01*
X109025058Y-71634689D01*
X109124229Y-71435528D01*
X109185115Y-71221536D01*
X109205643Y-71000000D01*
X109185115Y-70778464D01*
X109124229Y-70564472D01*
X109124224Y-70564461D01*
X109025061Y-70365316D01*
X109025056Y-70365308D01*
X108890979Y-70187761D01*
X108726562Y-70037876D01*
X108726560Y-70037874D01*
X108620977Y-69972500D01*
X111894551Y-69972500D01*
X111914317Y-70223651D01*
X111973126Y-70468610D01*
X112069533Y-70701359D01*
X112201160Y-70916153D01*
X112201161Y-70916156D01*
X112201164Y-70916159D01*
X112364776Y-71107724D01*
X112467579Y-71195526D01*
X112556343Y-71271338D01*
X112556346Y-71271339D01*
X112771140Y-71402966D01*
X113003889Y-71499373D01*
X113248852Y-71558183D01*
X113500000Y-71577949D01*
X113751148Y-71558183D01*
X113996111Y-71499373D01*
X114228859Y-71402966D01*
X114443659Y-71271336D01*
X114635224Y-71107724D01*
X114798836Y-70916159D01*
X114930466Y-70701359D01*
X115026873Y-70468611D01*
X115085683Y-70223648D01*
X115105449Y-69972500D01*
X115085683Y-69721352D01*
X115026873Y-69476389D01*
X114970837Y-69341105D01*
X114930466Y-69243640D01*
X114798839Y-69028846D01*
X114798838Y-69028843D01*
X114732664Y-68951364D01*
X114635224Y-68837276D01*
X114495683Y-68718097D01*
X114443656Y-68673661D01*
X114443653Y-68673660D01*
X114228859Y-68542033D01*
X113996110Y-68445626D01*
X113751151Y-68386817D01*
X113500000Y-68367051D01*
X113248848Y-68386817D01*
X113003889Y-68445626D01*
X112771140Y-68542033D01*
X112556346Y-68673660D01*
X112556343Y-68673661D01*
X112364776Y-68837276D01*
X112201161Y-69028843D01*
X112201160Y-69028846D01*
X112069533Y-69243640D01*
X111973126Y-69476389D01*
X111914317Y-69721348D01*
X111894551Y-69972500D01*
X108620977Y-69972500D01*
X108537404Y-69920754D01*
X108537398Y-69920752D01*
X108531425Y-69918438D01*
X108329940Y-69840382D01*
X108111243Y-69799500D01*
X107888757Y-69799500D01*
X107670060Y-69840382D01*
X107559165Y-69883343D01*
X107462601Y-69920752D01*
X107462595Y-69920754D01*
X107273439Y-70037874D01*
X107273437Y-70037876D01*
X107109020Y-70187761D01*
X106974943Y-70365308D01*
X106974938Y-70365316D01*
X106875775Y-70564461D01*
X106875769Y-70564476D01*
X106814885Y-70778462D01*
X106814884Y-70778464D01*
X106794357Y-70999999D01*
X104125643Y-70999999D01*
X104105115Y-70778464D01*
X104044229Y-70564472D01*
X104044224Y-70564461D01*
X103945061Y-70365316D01*
X103945056Y-70365308D01*
X103810979Y-70187761D01*
X103646562Y-70037876D01*
X103646560Y-70037874D01*
X103457404Y-69920754D01*
X103457398Y-69920752D01*
X103451425Y-69918438D01*
X103249940Y-69840382D01*
X103031243Y-69799500D01*
X102808757Y-69799500D01*
X102590060Y-69840382D01*
X102479165Y-69883343D01*
X102382601Y-69920752D01*
X102382595Y-69920754D01*
X102193439Y-70037874D01*
X102193437Y-70037876D01*
X102029020Y-70187761D01*
X101894943Y-70365308D01*
X101894938Y-70365316D01*
X101795775Y-70564461D01*
X101795769Y-70564476D01*
X101734885Y-70778462D01*
X101734884Y-70778464D01*
X101714357Y-70999999D01*
X96261474Y-70999999D01*
X96255190Y-70916153D01*
X96245803Y-70790879D01*
X96245802Y-70790874D01*
X96245802Y-70790870D01*
X96187420Y-70535084D01*
X96091568Y-70290857D01*
X95960386Y-70063643D01*
X95796805Y-69858519D01*
X95796804Y-69858518D01*
X95796801Y-69858514D01*
X95604479Y-69680067D01*
X95387704Y-69532272D01*
X95387700Y-69532270D01*
X95387697Y-69532268D01*
X95387696Y-69532267D01*
X95151325Y-69418438D01*
X95151327Y-69418438D01*
X94900623Y-69341106D01*
X94900619Y-69341105D01*
X94900615Y-69341104D01*
X94775823Y-69322294D01*
X94641187Y-69302000D01*
X94641182Y-69302000D01*
X94378818Y-69302000D01*
X94378812Y-69302000D01*
X94217247Y-69326353D01*
X94119385Y-69341104D01*
X94119382Y-69341105D01*
X94119376Y-69341106D01*
X93868673Y-69418438D01*
X93632303Y-69532267D01*
X93632302Y-69532268D01*
X93415520Y-69680067D01*
X93223198Y-69858514D01*
X93059614Y-70063643D01*
X92928432Y-70290856D01*
X92832582Y-70535078D01*
X92832576Y-70535097D01*
X92774197Y-70790874D01*
X92774196Y-70790879D01*
X92754592Y-71052495D01*
X87919915Y-71052495D01*
X87544341Y-70676921D01*
X87510857Y-70615599D01*
X87508447Y-70578999D01*
X87510643Y-70552502D01*
X87510643Y-70552495D01*
X87508447Y-70525998D01*
X87522527Y-70457562D01*
X87544339Y-70428080D01*
X89305889Y-68666532D01*
X89305889Y-68666530D01*
X89316093Y-68656327D01*
X89316096Y-68656322D01*
X90883102Y-67089319D01*
X90944425Y-67055834D01*
X90970783Y-67053000D01*
X93009184Y-67053000D01*
X93076223Y-67072685D01*
X93106131Y-67099687D01*
X93223198Y-67246485D01*
X93365048Y-67378101D01*
X93415521Y-67424933D01*
X93632296Y-67572728D01*
X93632301Y-67572730D01*
X93632302Y-67572731D01*
X93632303Y-67572732D01*
X93695312Y-67603075D01*
X93868673Y-67686561D01*
X93868674Y-67686561D01*
X93868677Y-67686563D01*
X94119385Y-67763896D01*
X94378818Y-67803000D01*
X94641182Y-67803000D01*
X94900615Y-67763896D01*
X95151323Y-67686563D01*
X95387704Y-67572728D01*
X95604479Y-67424933D01*
X95791276Y-67251611D01*
X95796801Y-67246485D01*
X95796801Y-67246483D01*
X95796805Y-67246481D01*
X95960386Y-67041357D01*
X96091568Y-66814143D01*
X96187420Y-66569916D01*
X96245802Y-66314130D01*
X96253494Y-66211485D01*
X96265408Y-66052504D01*
X96265408Y-66052495D01*
X96245803Y-65790879D01*
X96245802Y-65790874D01*
X96245802Y-65790870D01*
X96187420Y-65535084D01*
X96091568Y-65290857D01*
X95960386Y-65063643D01*
X95796805Y-64858519D01*
X95796804Y-64858518D01*
X95796801Y-64858514D01*
X95632329Y-64705908D01*
X95604479Y-64680067D01*
X95603064Y-64679102D01*
X95564646Y-64652908D01*
X95520345Y-64598878D01*
X95510500Y-64550456D01*
X95510500Y-60958956D01*
X95478119Y-60796174D01*
X95478119Y-60796169D01*
X95474333Y-60777139D01*
X95472051Y-60765664D01*
X95436765Y-60680476D01*
X95419081Y-60637782D01*
X95396635Y-60583592D01*
X95396628Y-60583579D01*
X95287139Y-60419718D01*
X95287136Y-60419714D01*
X95144686Y-60277264D01*
X95144655Y-60277235D01*
X91791818Y-56924398D01*
X91758333Y-56863075D01*
X91755499Y-56836717D01*
X91755499Y-55254629D01*
X91755498Y-55254623D01*
X91755497Y-55254616D01*
X91749091Y-55195017D01*
X91748158Y-55192516D01*
X91698797Y-55060171D01*
X91698793Y-55060164D01*
X91612547Y-54944955D01*
X91612544Y-54944952D01*
X91497335Y-54858706D01*
X91497328Y-54858702D01*
X91362482Y-54808408D01*
X91362483Y-54808408D01*
X91302883Y-54802001D01*
X91302881Y-54802000D01*
X91302873Y-54802000D01*
X91302864Y-54802000D01*
X88707129Y-54802000D01*
X88707123Y-54802001D01*
X88647516Y-54808408D01*
X88512671Y-54858702D01*
X88512664Y-54858706D01*
X88397455Y-54944952D01*
X88397452Y-54944955D01*
X88311206Y-55060164D01*
X88311202Y-55060171D01*
X88260908Y-55195017D01*
X88254768Y-55252135D01*
X88254501Y-55254623D01*
X88254500Y-55254635D01*
X88254500Y-57850370D01*
X88254501Y-57850376D01*
X88260908Y-57909983D01*
X88311202Y-58044828D01*
X88311206Y-58044835D01*
X88397452Y-58160044D01*
X88397455Y-58160047D01*
X88512664Y-58246293D01*
X88512671Y-58246297D01*
X88647517Y-58296591D01*
X88647516Y-58296591D01*
X88654444Y-58297335D01*
X88707127Y-58303000D01*
X90289217Y-58302999D01*
X90356256Y-58322684D01*
X90376898Y-58339318D01*
X93473181Y-61435601D01*
X93506666Y-61496924D01*
X93509500Y-61523282D01*
X93509500Y-64550456D01*
X93489815Y-64617495D01*
X93455354Y-64652908D01*
X93415523Y-64680065D01*
X93223198Y-64858514D01*
X93106131Y-65005313D01*
X93048943Y-65045453D01*
X93009184Y-65052000D01*
X90609675Y-65052000D01*
X90609655Y-65051999D01*
X90603541Y-65051999D01*
X90406460Y-65051999D01*
X90406457Y-65051999D01*
X90213172Y-65090446D01*
X90213164Y-65090448D01*
X90031088Y-65165866D01*
X90031079Y-65165871D01*
X89867219Y-65275359D01*
X89867215Y-65275362D01*
X88374580Y-66767999D01*
X87890970Y-67251609D01*
X87890968Y-67251611D01*
X87001538Y-68141042D01*
X86126899Y-69015681D01*
X86065576Y-69049166D01*
X86039218Y-69052000D01*
X85880665Y-69052000D01*
X85635383Y-69092929D01*
X85400197Y-69173669D01*
X85400188Y-69173672D01*
X85181493Y-69292024D01*
X84985257Y-69444761D01*
X84816833Y-69627717D01*
X84680826Y-69835893D01*
X84580936Y-70063618D01*
X84519892Y-70304675D01*
X84519890Y-70304687D01*
X84499357Y-70552494D01*
X84499357Y-70552505D01*
X84519890Y-70800312D01*
X84519892Y-70800324D01*
X84580936Y-71041381D01*
X84680826Y-71269106D01*
X84816833Y-71477282D01*
X84816836Y-71477285D01*
X84985256Y-71660238D01*
X85181491Y-71812974D01*
X85400190Y-71931328D01*
X85635386Y-72012071D01*
X85880665Y-72053000D01*
X86039218Y-72053000D01*
X86106257Y-72072685D01*
X86126899Y-72089319D01*
X88463181Y-74425601D01*
X88496666Y-74486924D01*
X88499500Y-74513282D01*
X88499500Y-80341717D01*
X88479815Y-80408756D01*
X88463181Y-80429398D01*
X86044009Y-82848569D01*
X85982686Y-82882054D01*
X85979115Y-82882776D01*
X85925068Y-82892880D01*
X85925060Y-82892882D01*
X85717601Y-82973251D01*
X85717595Y-82973254D01*
X85528439Y-83090374D01*
X85528437Y-83090376D01*
X85364020Y-83240261D01*
X85229943Y-83417808D01*
X85229938Y-83417816D01*
X85130775Y-83616961D01*
X85130769Y-83616976D01*
X85104266Y-83710127D01*
X85066987Y-83769221D01*
X85003677Y-83798778D01*
X84934438Y-83789416D01*
X84881251Y-83744106D01*
X84865734Y-83710127D01*
X84839230Y-83616976D01*
X84839229Y-83616972D01*
X84839224Y-83616961D01*
X84740061Y-83417816D01*
X84740056Y-83417808D01*
X84605979Y-83240261D01*
X84441562Y-83090376D01*
X84441560Y-83090374D01*
X84252404Y-82973254D01*
X84252398Y-82973252D01*
X84044940Y-82892882D01*
X83826243Y-82852000D01*
X83603757Y-82852000D01*
X83385060Y-82892882D01*
X83269932Y-82937483D01*
X83177601Y-82973252D01*
X83177595Y-82973254D01*
X82988439Y-83090374D01*
X82988437Y-83090376D01*
X82824020Y-83240261D01*
X82689943Y-83417808D01*
X82689938Y-83417816D01*
X82590775Y-83616961D01*
X82590769Y-83616976D01*
X82529885Y-83830962D01*
X82529884Y-83830964D01*
X82509357Y-84052499D01*
X82509357Y-84052500D01*
X82529884Y-84274035D01*
X82529885Y-84274037D01*
X82590769Y-84488023D01*
X82590775Y-84488038D01*
X82689938Y-84687183D01*
X82689943Y-84687191D01*
X82824020Y-84864738D01*
X82988437Y-85014623D01*
X82988439Y-85014625D01*
X83177595Y-85131745D01*
X83177596Y-85131745D01*
X83177599Y-85131747D01*
X83385060Y-85212118D01*
X83603757Y-85253000D01*
X83603759Y-85253000D01*
X83826241Y-85253000D01*
X83826243Y-85253000D01*
X84044940Y-85212118D01*
X84252401Y-85131747D01*
X84441562Y-85014624D01*
X84605981Y-84864736D01*
X84740058Y-84687189D01*
X84839229Y-84488028D01*
X84865734Y-84394871D01*
X84903013Y-84335778D01*
X84966323Y-84306221D01*
X85035562Y-84315583D01*
X85088749Y-84360893D01*
X85104266Y-84394872D01*
X85130769Y-84488023D01*
X85130775Y-84488038D01*
X85229938Y-84687183D01*
X85232959Y-84692061D01*
X85231805Y-84692775D01*
X85254145Y-84751889D01*
X85254500Y-84761269D01*
X85254500Y-85875500D01*
X85234815Y-85942539D01*
X85182011Y-85988294D01*
X85130500Y-85999500D01*
X65401457Y-85999500D01*
X65208170Y-86037947D01*
X65208160Y-86037950D01*
X65026092Y-86113364D01*
X65026079Y-86113371D01*
X64862218Y-86222860D01*
X64862214Y-86222863D01*
X64722863Y-86362214D01*
X64722860Y-86362218D01*
X64613371Y-86526079D01*
X64613364Y-86526092D01*
X64537950Y-86708160D01*
X64537947Y-86708170D01*
X64499500Y-86901456D01*
X64499500Y-86901459D01*
X64499500Y-113578440D01*
X64499500Y-113578442D01*
X64499499Y-113578442D01*
X64537947Y-113771728D01*
X64537950Y-113771738D01*
X64613364Y-113953806D01*
X64613371Y-113953819D01*
X64722860Y-114117680D01*
X64722863Y-114117684D01*
X64866537Y-114261358D01*
X64866559Y-114261378D01*
X69239836Y-118634655D01*
X69239865Y-118634686D01*
X69382315Y-118777136D01*
X69382319Y-118777139D01*
X69546180Y-118886628D01*
X69546193Y-118886635D01*
X69674934Y-118939961D01*
X69713478Y-118955926D01*
X69728265Y-118962051D01*
X69824913Y-118981275D01*
X69873236Y-118990887D01*
X69921559Y-119000500D01*
X69921560Y-119000500D01*
X144098542Y-119000500D01*
X144117870Y-118996655D01*
X144195188Y-118981275D01*
X144291836Y-118962051D01*
X144345165Y-118939961D01*
X144473914Y-118886632D01*
X144637782Y-118777139D01*
X144777139Y-118637782D01*
X144781459Y-118633462D01*
X144781468Y-118633451D01*
X146914919Y-116500000D01*
X165373388Y-116500000D01*
X165392538Y-116816597D01*
X165392538Y-116816602D01*
X165392539Y-116816603D01*
X165449713Y-117128589D01*
X165544075Y-117431409D01*
X165674251Y-117720647D01*
X165838340Y-117992084D01*
X165838345Y-117992092D01*
X166033955Y-118241769D01*
X166258230Y-118466044D01*
X166507907Y-118661654D01*
X166507910Y-118661655D01*
X166507914Y-118661659D01*
X166779353Y-118825749D01*
X167068591Y-118955925D01*
X167371411Y-119050287D01*
X167683397Y-119107461D01*
X168000000Y-119126612D01*
X168316603Y-119107461D01*
X168628589Y-119050287D01*
X168931409Y-118955925D01*
X169220647Y-118825749D01*
X169492086Y-118661659D01*
X169741766Y-118466047D01*
X169966047Y-118241766D01*
X170161659Y-117992086D01*
X170325749Y-117720647D01*
X170455925Y-117431409D01*
X170550287Y-117128589D01*
X170607461Y-116816603D01*
X170626612Y-116500000D01*
X170607461Y-116183397D01*
X170550287Y-115871411D01*
X170455925Y-115568591D01*
X170325749Y-115279353D01*
X170161659Y-115007914D01*
X170161611Y-115007853D01*
X169966044Y-114758230D01*
X169741769Y-114533955D01*
X169492092Y-114338345D01*
X169492084Y-114338340D01*
X169448906Y-114312238D01*
X169220647Y-114174251D01*
X168931409Y-114044075D01*
X168808194Y-114005680D01*
X168628589Y-113949713D01*
X168551239Y-113935538D01*
X168316603Y-113892539D01*
X168316602Y-113892538D01*
X168316597Y-113892538D01*
X168000000Y-113873388D01*
X167683402Y-113892538D01*
X167371410Y-113949713D01*
X167068596Y-114044073D01*
X167068592Y-114044074D01*
X167068591Y-114044075D01*
X166976091Y-114085706D01*
X166799035Y-114165393D01*
X166779353Y-114174251D01*
X166737290Y-114199679D01*
X166507915Y-114338340D01*
X166507907Y-114338345D01*
X166258230Y-114533955D01*
X166033955Y-114758230D01*
X165838345Y-115007907D01*
X165838340Y-115007915D01*
X165754463Y-115146666D01*
X165680824Y-115268481D01*
X165674250Y-115279355D01*
X165674249Y-115279357D01*
X165544073Y-115568596D01*
X165449713Y-115871410D01*
X165392538Y-116183402D01*
X165373388Y-116500000D01*
X146914919Y-116500000D01*
X169277139Y-94137782D01*
X169279629Y-94134054D01*
X169284670Y-94126512D01*
X169284672Y-94126507D01*
X169284680Y-94126496D01*
X169386632Y-93973914D01*
X169462051Y-93791835D01*
X169462051Y-93791832D01*
X169462053Y-93791828D01*
X169477397Y-93714689D01*
X169488425Y-93659245D01*
X169500500Y-93598540D01*
X169500500Y-93401460D01*
X169500500Y-64401459D01*
X169500500Y-64401456D01*
X169462052Y-64208170D01*
X169462051Y-64208169D01*
X169462051Y-64208165D01*
X169439290Y-64153215D01*
X169386635Y-64026092D01*
X169386628Y-64026079D01*
X169299263Y-63895329D01*
X169277138Y-63862216D01*
X169277135Y-63862213D01*
X158914920Y-53500000D01*
X165373388Y-53500000D01*
X165392538Y-53816597D01*
X165449713Y-54128589D01*
X165531936Y-54392455D01*
X165544075Y-54431409D01*
X165674251Y-54720647D01*
X165830894Y-54979767D01*
X165838340Y-54992084D01*
X165838345Y-54992092D01*
X166033955Y-55241769D01*
X166258230Y-55466044D01*
X166507907Y-55661654D01*
X166507910Y-55661655D01*
X166507914Y-55661659D01*
X166779353Y-55825749D01*
X167068591Y-55955925D01*
X167371411Y-56050287D01*
X167683397Y-56107461D01*
X168000000Y-56126612D01*
X168316603Y-56107461D01*
X168628589Y-56050287D01*
X168931409Y-55955925D01*
X169220647Y-55825749D01*
X169492086Y-55661659D01*
X169741766Y-55466047D01*
X169966047Y-55241766D01*
X170161659Y-54992086D01*
X170325749Y-54720647D01*
X170455925Y-54431409D01*
X170550287Y-54128589D01*
X170607461Y-53816603D01*
X170626612Y-53500000D01*
X170607461Y-53183397D01*
X170550287Y-52871411D01*
X170455925Y-52568591D01*
X170325749Y-52279353D01*
X170161659Y-52007914D01*
X170160063Y-52005877D01*
X169966044Y-51758230D01*
X169741769Y-51533955D01*
X169492092Y-51338345D01*
X169492084Y-51338340D01*
X169220647Y-51174251D01*
X168931409Y-51044075D01*
X168628589Y-50949713D01*
X168316603Y-50892539D01*
X168316602Y-50892538D01*
X168316597Y-50892538D01*
X168000000Y-50873388D01*
X167683402Y-50892538D01*
X167371410Y-50949713D01*
X167068596Y-51044073D01*
X167068592Y-51044074D01*
X167068591Y-51044075D01*
X166907721Y-51116477D01*
X166779357Y-51174249D01*
X166779355Y-51174250D01*
X166507915Y-51338340D01*
X166507907Y-51338345D01*
X166258230Y-51533955D01*
X166033955Y-51758230D01*
X165838345Y-52007907D01*
X165838341Y-52007914D01*
X165708402Y-52222861D01*
X165674250Y-52279355D01*
X165674249Y-52279357D01*
X165544073Y-52568596D01*
X165449713Y-52871410D01*
X165392538Y-53183402D01*
X165373388Y-53500000D01*
X158914920Y-53500000D01*
X158834209Y-53419289D01*
X158834206Y-53419285D01*
X158834206Y-53419286D01*
X158827139Y-53412219D01*
X158827139Y-53412218D01*
X158687782Y-53272861D01*
X158687781Y-53272860D01*
X158687780Y-53272859D01*
X158523920Y-53163371D01*
X158523907Y-53163364D01*
X158367408Y-53098541D01*
X158367407Y-53098541D01*
X158341836Y-53087949D01*
X158341828Y-53087947D01*
X158245188Y-53068724D01*
X158148544Y-53049500D01*
X158148541Y-53049500D01*
X140968540Y-53049500D01*
X140771459Y-53049500D01*
X140771456Y-53049500D01*
X140578171Y-53087947D01*
X140578163Y-53087949D01*
X140552593Y-53098541D01*
X140552592Y-53098541D01*
X140396092Y-53163364D01*
X140396079Y-53163371D01*
X140271748Y-53246448D01*
X140271747Y-53246449D01*
X140232215Y-53272862D01*
X140232214Y-53272863D01*
X139291897Y-54213181D01*
X139230574Y-54246666D01*
X139204216Y-54249500D01*
X137622129Y-54249500D01*
X137622123Y-54249501D01*
X137562516Y-54255908D01*
X137427671Y-54306202D01*
X137427664Y-54306206D01*
X137312455Y-54392452D01*
X137312452Y-54392455D01*
X137226206Y-54507664D01*
X137226202Y-54507671D01*
X137175908Y-54642517D01*
X137169501Y-54702116D01*
X137169500Y-54702135D01*
X137169500Y-57297870D01*
X137169501Y-57297876D01*
X137175908Y-57357483D01*
X137226202Y-57492328D01*
X137226206Y-57492335D01*
X137312452Y-57607544D01*
X137312455Y-57607547D01*
X137427664Y-57693793D01*
X137427671Y-57693797D01*
X137472618Y-57710561D01*
X137562517Y-57744091D01*
X137622127Y-57750500D01*
X137795500Y-57750499D01*
X137862539Y-57770183D01*
X137908294Y-57822987D01*
X137919500Y-57874499D01*
X137919500Y-62176717D01*
X137899815Y-62243756D01*
X137883181Y-62264398D01*
X135381897Y-64765681D01*
X135320574Y-64799166D01*
X135294216Y-64802000D01*
X133712129Y-64802000D01*
X133712123Y-64802001D01*
X133652516Y-64808408D01*
X133517671Y-64858702D01*
X133517664Y-64858706D01*
X133402455Y-64944952D01*
X133402452Y-64944955D01*
X133316206Y-65060164D01*
X133316202Y-65060171D01*
X133265908Y-65195017D01*
X133259501Y-65254616D01*
X133259500Y-65254635D01*
X133259500Y-67850370D01*
X133259501Y-67850376D01*
X133265908Y-67909983D01*
X133316202Y-68044828D01*
X133316206Y-68044835D01*
X133402452Y-68160044D01*
X133402455Y-68160047D01*
X133517664Y-68246293D01*
X133517671Y-68246297D01*
X133652517Y-68296591D01*
X133652516Y-68296591D01*
X133659444Y-68297335D01*
X133712127Y-68303000D01*
X136307872Y-68302999D01*
X136367483Y-68296591D01*
X136502331Y-68246296D01*
X136617546Y-68160046D01*
X136703796Y-68044831D01*
X136754091Y-67909983D01*
X136760500Y-67850373D01*
X136760499Y-66268280D01*
X136780184Y-66201242D01*
X136796813Y-66180605D01*
X139557778Y-63419641D01*
X139557782Y-63419639D01*
X139697139Y-63280282D01*
X139806632Y-63116414D01*
X139882051Y-62934335D01*
X139920500Y-62741041D01*
X139920500Y-57874499D01*
X139940185Y-57807460D01*
X139992989Y-57761705D01*
X140044500Y-57750499D01*
X140217871Y-57750499D01*
X140217872Y-57750499D01*
X140277483Y-57744091D01*
X140412331Y-57693796D01*
X140527546Y-57607546D01*
X140613796Y-57492331D01*
X140664091Y-57357483D01*
X140670500Y-57297873D01*
X140670499Y-55715782D01*
X140690184Y-55648744D01*
X140706818Y-55628102D01*
X141248102Y-55086819D01*
X141309425Y-55053334D01*
X141335783Y-55050500D01*
X142312117Y-55050500D01*
X142379156Y-55070185D01*
X142424911Y-55122989D01*
X142434855Y-55192147D01*
X142420329Y-55234115D01*
X142420447Y-55234172D01*
X142419960Y-55235183D01*
X142419504Y-55236501D01*
X142418430Y-55238359D01*
X142322582Y-55482578D01*
X142322576Y-55482597D01*
X142264197Y-55738374D01*
X142264196Y-55738379D01*
X142244592Y-55999995D01*
X142244592Y-56000004D01*
X142264196Y-56261620D01*
X142264197Y-56261625D01*
X142322576Y-56517402D01*
X142322578Y-56517411D01*
X142322580Y-56517416D01*
X142418432Y-56761643D01*
X142549614Y-56988857D01*
X142672154Y-57142517D01*
X142713198Y-57193985D01*
X142842699Y-57314143D01*
X142905521Y-57372433D01*
X143122296Y-57520228D01*
X143122301Y-57520230D01*
X143122302Y-57520231D01*
X143122303Y-57520232D01*
X143247843Y-57580688D01*
X143358673Y-57634061D01*
X143358674Y-57634061D01*
X143358677Y-57634063D01*
X143609385Y-57711396D01*
X143868818Y-57750500D01*
X144131182Y-57750500D01*
X144390615Y-57711396D01*
X144641323Y-57634063D01*
X144833831Y-57541356D01*
X144877696Y-57520232D01*
X144877696Y-57520231D01*
X144877704Y-57520228D01*
X145094479Y-57372433D01*
X145286805Y-57193981D01*
X145450386Y-56988857D01*
X145581568Y-56761643D01*
X145677420Y-56517416D01*
X145735802Y-56261630D01*
X145737226Y-56242629D01*
X145755408Y-56000004D01*
X145755408Y-55999995D01*
X145735803Y-55738379D01*
X145735802Y-55738374D01*
X145735802Y-55738370D01*
X145677420Y-55482584D01*
X145587949Y-55254616D01*
X145581569Y-55238359D01*
X145580496Y-55236501D01*
X145580314Y-55235754D01*
X145579553Y-55234172D01*
X145579891Y-55234009D01*
X145564023Y-55168601D01*
X145586875Y-55102574D01*
X145641796Y-55059383D01*
X145687883Y-55050500D01*
X157584218Y-55050500D01*
X157651257Y-55070185D01*
X157671899Y-55086819D01*
X165821423Y-63236343D01*
X165854908Y-63297666D01*
X165849924Y-63367358D01*
X165808052Y-63423291D01*
X165742588Y-63447708D01*
X165679941Y-63435744D01*
X165571325Y-63383438D01*
X165571327Y-63383438D01*
X165320623Y-63306106D01*
X165320619Y-63306105D01*
X165320615Y-63306104D01*
X165195823Y-63287294D01*
X165061187Y-63267000D01*
X165061182Y-63267000D01*
X164798818Y-63267000D01*
X164798812Y-63267000D01*
X164637247Y-63291353D01*
X164539385Y-63306104D01*
X164539382Y-63306105D01*
X164539376Y-63306106D01*
X164288673Y-63383438D01*
X164052303Y-63497267D01*
X164052302Y-63497268D01*
X164052296Y-63497271D01*
X164052296Y-63497272D01*
X164043405Y-63503334D01*
X163835520Y-63645067D01*
X163643198Y-63823514D01*
X163479612Y-64028645D01*
X163435530Y-64104999D01*
X163384964Y-64153215D01*
X163328143Y-64167000D01*
X157701151Y-64167000D01*
X157634112Y-64147315D01*
X157613470Y-64130681D01*
X152944970Y-59462181D01*
X152911485Y-59400858D01*
X152916469Y-59331166D01*
X152958341Y-59275233D01*
X153023805Y-59250816D01*
X153032651Y-59250500D01*
X153101004Y-59250500D01*
X153101005Y-59250499D01*
X153299127Y-59211091D01*
X153485756Y-59133786D01*
X153566110Y-59080094D01*
X153632786Y-59059217D01*
X153700166Y-59077701D01*
X153703865Y-59080078D01*
X153784244Y-59133786D01*
X153970873Y-59211091D01*
X154168992Y-59250499D01*
X154168996Y-59250500D01*
X154168997Y-59250500D01*
X154371004Y-59250500D01*
X154371005Y-59250499D01*
X154569127Y-59211091D01*
X154755756Y-59133786D01*
X154923718Y-59021558D01*
X155066558Y-58878718D01*
X155178786Y-58710756D01*
X155256091Y-58524127D01*
X155295500Y-58326003D01*
X155295500Y-57673997D01*
X155256091Y-57475873D01*
X155178786Y-57289244D01*
X155178784Y-57289241D01*
X155178782Y-57289237D01*
X155066558Y-57121281D01*
X154923718Y-56978441D01*
X154755762Y-56866217D01*
X154755752Y-56866212D01*
X154569127Y-56788909D01*
X154569119Y-56788907D01*
X154371007Y-56749500D01*
X154371003Y-56749500D01*
X154168997Y-56749500D01*
X154168992Y-56749500D01*
X153970880Y-56788907D01*
X153970872Y-56788909D01*
X153784244Y-56866213D01*
X153703891Y-56919904D01*
X153637213Y-56940782D01*
X153569833Y-56922297D01*
X153566109Y-56919904D01*
X153550496Y-56909472D01*
X153525024Y-56892452D01*
X153485755Y-56866213D01*
X153299127Y-56788909D01*
X153299119Y-56788907D01*
X153101007Y-56749500D01*
X153101003Y-56749500D01*
X152898997Y-56749500D01*
X152898992Y-56749500D01*
X152700880Y-56788907D01*
X152700868Y-56788910D01*
X152620198Y-56822325D01*
X152550729Y-56829794D01*
X152505342Y-56810036D01*
X152505114Y-56810454D01*
X152500447Y-56807905D01*
X152498432Y-56807028D01*
X152497331Y-56806204D01*
X152497330Y-56806203D01*
X152497328Y-56806202D01*
X152362482Y-56755908D01*
X152362483Y-56755908D01*
X152302883Y-56749501D01*
X152302881Y-56749500D01*
X152302873Y-56749500D01*
X152302864Y-56749500D01*
X151157129Y-56749500D01*
X151157123Y-56749501D01*
X151097516Y-56755908D01*
X150962671Y-56806202D01*
X150962664Y-56806206D01*
X150847455Y-56892452D01*
X150847452Y-56892455D01*
X150761206Y-57007664D01*
X150761202Y-57007671D01*
X150710908Y-57142517D01*
X150704501Y-57202116D01*
X150704500Y-57202135D01*
X150704500Y-57771349D01*
X150684815Y-57838388D01*
X150668181Y-57859030D01*
X137861530Y-70665681D01*
X137800207Y-70699166D01*
X137773849Y-70702000D01*
X136611857Y-70702000D01*
X136544818Y-70682315D01*
X136504470Y-70639999D01*
X136460867Y-70564476D01*
X136460386Y-70563643D01*
X136296805Y-70358519D01*
X136296804Y-70358518D01*
X136296801Y-70358514D01*
X136104479Y-70180067D01*
X136071444Y-70157544D01*
X135887704Y-70032272D01*
X135887700Y-70032270D01*
X135887697Y-70032268D01*
X135887696Y-70032267D01*
X135651325Y-69918438D01*
X135651327Y-69918438D01*
X135400623Y-69841106D01*
X135400619Y-69841105D01*
X135400615Y-69841104D01*
X135275823Y-69822294D01*
X135141187Y-69802000D01*
X135141182Y-69802000D01*
X134878818Y-69802000D01*
X134878812Y-69802000D01*
X134763092Y-69819443D01*
X134693867Y-69809970D01*
X134656929Y-69784509D01*
X132536819Y-67664398D01*
X132503334Y-67603075D01*
X132500500Y-67576717D01*
X132500500Y-56053956D01*
X132479723Y-55949507D01*
X132479723Y-55949506D01*
X132462052Y-55860671D01*
X132462051Y-55860664D01*
X132426717Y-55775361D01*
X132411389Y-55738356D01*
X132386635Y-55678593D01*
X132386634Y-55678592D01*
X132386632Y-55678586D01*
X132277139Y-55514718D01*
X132137782Y-55375361D01*
X132137781Y-55375360D01*
X129131708Y-52369288D01*
X129131706Y-52369285D01*
X129131706Y-52369286D01*
X129124639Y-52362219D01*
X129124639Y-52362218D01*
X128985282Y-52222861D01*
X128985281Y-52222860D01*
X128985280Y-52222859D01*
X128821416Y-52113369D01*
X128821407Y-52113364D01*
X128682527Y-52055839D01*
X128682526Y-52055839D01*
X128639336Y-52037949D01*
X128639328Y-52037947D01*
X128542688Y-52018724D01*
X128446044Y-51999500D01*
X128446041Y-51999500D01*
X114518540Y-51999500D01*
X114321459Y-51999500D01*
X114321456Y-51999500D01*
X114128171Y-52037947D01*
X114128163Y-52037949D01*
X114084974Y-52055839D01*
X113946083Y-52113369D01*
X113782222Y-52222857D01*
X113782214Y-52222863D01*
X111291897Y-54713181D01*
X111230574Y-54746666D01*
X111204216Y-54749500D01*
X109622129Y-54749500D01*
X109622123Y-54749501D01*
X109562516Y-54755908D01*
X109427671Y-54806202D01*
X109427664Y-54806206D01*
X109312455Y-54892452D01*
X109312452Y-54892455D01*
X109226206Y-55007664D01*
X109226202Y-55007671D01*
X109175908Y-55142517D01*
X109169501Y-55202116D01*
X109169500Y-55202135D01*
X109169500Y-56784216D01*
X109149815Y-56851255D01*
X109133181Y-56871897D01*
X107041899Y-58963181D01*
X106980576Y-58996666D01*
X106954218Y-58999500D01*
X101015782Y-58999500D01*
X100948743Y-58979815D01*
X100928101Y-58963181D01*
X98871894Y-56906974D01*
X98838409Y-56845651D01*
X98835922Y-56810026D01*
X98836209Y-56806204D01*
X98854140Y-56566920D01*
X98855408Y-56550003D01*
X98855408Y-56549995D01*
X98835803Y-56288379D01*
X98835802Y-56288374D01*
X98835802Y-56288370D01*
X98777420Y-56032584D01*
X98681568Y-55788357D01*
X98550386Y-55561143D01*
X98386805Y-55356019D01*
X98386804Y-55356018D01*
X98386801Y-55356014D01*
X98274845Y-55252135D01*
X100429500Y-55252135D01*
X100429500Y-57847870D01*
X100429501Y-57847876D01*
X100435908Y-57907483D01*
X100486202Y-58042328D01*
X100486206Y-58042335D01*
X100572452Y-58157544D01*
X100572455Y-58157547D01*
X100687664Y-58243793D01*
X100687671Y-58243797D01*
X100822517Y-58294091D01*
X100822516Y-58294091D01*
X100829444Y-58294835D01*
X100882127Y-58300500D01*
X103477872Y-58300499D01*
X103537483Y-58294091D01*
X103672331Y-58243796D01*
X103787546Y-58157546D01*
X103873796Y-58042331D01*
X103924091Y-57907483D01*
X103930500Y-57847873D01*
X103930499Y-55252128D01*
X103924091Y-55192517D01*
X103919447Y-55180067D01*
X103873797Y-55057671D01*
X103873793Y-55057664D01*
X103787547Y-54942455D01*
X103787544Y-54942452D01*
X103672335Y-54856206D01*
X103672328Y-54856202D01*
X103537482Y-54805908D01*
X103537483Y-54805908D01*
X103477883Y-54799501D01*
X103477881Y-54799500D01*
X103477873Y-54799500D01*
X103477864Y-54799500D01*
X100882129Y-54799500D01*
X100882123Y-54799501D01*
X100822516Y-54805908D01*
X100687671Y-54856202D01*
X100687664Y-54856206D01*
X100572455Y-54942452D01*
X100572452Y-54942455D01*
X100486206Y-55057664D01*
X100486202Y-55057671D01*
X100435908Y-55192517D01*
X100429501Y-55252116D01*
X100429501Y-55252123D01*
X100429500Y-55252135D01*
X98274845Y-55252135D01*
X98194479Y-55177567D01*
X98143070Y-55142517D01*
X97977704Y-55029772D01*
X97977700Y-55029770D01*
X97977697Y-55029768D01*
X97977696Y-55029767D01*
X97741325Y-54915938D01*
X97741327Y-54915938D01*
X97490623Y-54838606D01*
X97490619Y-54838605D01*
X97490615Y-54838604D01*
X97353873Y-54817993D01*
X97231187Y-54799500D01*
X97231182Y-54799500D01*
X96968818Y-54799500D01*
X96968812Y-54799500D01*
X96853092Y-54816943D01*
X96783867Y-54807470D01*
X96746929Y-54782009D01*
X94331479Y-52366559D01*
X94331459Y-52366537D01*
X94187785Y-52222863D01*
X94187781Y-52222860D01*
X94023916Y-52113369D01*
X94023907Y-52113364D01*
X93885027Y-52055839D01*
X93885026Y-52055839D01*
X93841836Y-52037949D01*
X93841828Y-52037947D01*
X93745188Y-52018724D01*
X93648544Y-51999500D01*
X93648541Y-51999500D01*
X88378959Y-51999500D01*
X88378954Y-51999500D01*
X88346891Y-52005876D01*
X88346892Y-52005877D01*
X88185670Y-52037946D01*
X88185664Y-52037948D01*
X88003588Y-52113366D01*
X88003579Y-52113371D01*
X87839719Y-52222859D01*
X87839715Y-52222862D01*
X85278070Y-54784508D01*
X85216747Y-54817993D01*
X85171908Y-54819442D01*
X85056190Y-54802000D01*
X85056182Y-54802000D01*
X84793818Y-54802000D01*
X84793812Y-54802000D01*
X84632780Y-54826273D01*
X84534385Y-54841104D01*
X84534382Y-54841105D01*
X84534376Y-54841106D01*
X84283673Y-54918438D01*
X84047303Y-55032267D01*
X84047302Y-55032268D01*
X83830520Y-55180067D01*
X83638198Y-55358514D01*
X83474614Y-55563643D01*
X83343432Y-55790856D01*
X83247582Y-56035078D01*
X83247576Y-56035097D01*
X83189197Y-56290874D01*
X83189196Y-56290879D01*
X83169592Y-56552495D01*
X83169592Y-56552504D01*
X83189077Y-56812525D01*
X83174457Y-56880848D01*
X83153105Y-56909472D01*
X81351827Y-58710752D01*
X80867220Y-59195359D01*
X80867218Y-59195361D01*
X80862218Y-59200361D01*
X80812080Y-59250499D01*
X80722859Y-59339719D01*
X80613371Y-59503580D01*
X80613368Y-59503587D01*
X80600866Y-59533769D01*
X80600865Y-59533768D01*
X80537949Y-59685661D01*
X80537949Y-59685662D01*
X80537949Y-59685664D01*
X80533473Y-59708165D01*
X80499500Y-59878956D01*
X80499500Y-61375500D01*
X80479815Y-61442539D01*
X80427011Y-61488294D01*
X80375500Y-61499500D01*
X59901455Y-61499500D01*
X59804812Y-61518724D01*
X59708167Y-61537947D01*
X59708161Y-61537949D01*
X59654834Y-61560037D01*
X59654834Y-61560038D01*
X59609315Y-61578892D01*
X59526089Y-61613366D01*
X59526079Y-61613371D01*
X59362219Y-61722859D01*
X59292540Y-61792538D01*
X59222861Y-61862218D01*
X59222858Y-61862221D01*
X55966726Y-65118352D01*
X55905403Y-65151837D01*
X55835711Y-65146853D01*
X55806159Y-65130989D01*
X55786433Y-65116657D01*
X55575996Y-65009433D01*
X55351368Y-64936446D01*
X55118097Y-64899500D01*
X55118092Y-64899500D01*
X54881908Y-64899500D01*
X54881903Y-64899500D01*
X54648631Y-64936446D01*
X54424003Y-65009433D01*
X54213566Y-65116657D01*
X54145834Y-65165868D01*
X54022490Y-65255483D01*
X54022488Y-65255485D01*
X54022487Y-65255485D01*
X53855485Y-65422487D01*
X53855485Y-65422488D01*
X53855483Y-65422490D01*
X53795862Y-65504550D01*
X53716657Y-65613566D01*
X53609433Y-65824003D01*
X53536446Y-66048631D01*
X53499500Y-66281902D01*
X51000500Y-66281902D01*
X51000500Y-53500000D01*
X51373388Y-53500000D01*
X51392538Y-53816597D01*
X51449713Y-54128589D01*
X51531936Y-54392455D01*
X51544075Y-54431409D01*
X51674251Y-54720647D01*
X51830894Y-54979767D01*
X51838340Y-54992084D01*
X51838345Y-54992092D01*
X52033955Y-55241769D01*
X52258230Y-55466044D01*
X52507907Y-55661654D01*
X52507910Y-55661655D01*
X52507914Y-55661659D01*
X52779353Y-55825749D01*
X53068591Y-55955925D01*
X53371411Y-56050287D01*
X53683397Y-56107461D01*
X54000000Y-56126612D01*
X54316603Y-56107461D01*
X54628589Y-56050287D01*
X54931409Y-55955925D01*
X55220647Y-55825749D01*
X55492086Y-55661659D01*
X55741766Y-55466047D01*
X55953178Y-55254635D01*
X71209500Y-55254635D01*
X71209500Y-57850370D01*
X71209501Y-57850376D01*
X71215908Y-57909983D01*
X71266202Y-58044828D01*
X71266206Y-58044835D01*
X71352452Y-58160044D01*
X71352455Y-58160047D01*
X71467664Y-58246293D01*
X71467671Y-58246297D01*
X71602517Y-58296591D01*
X71602516Y-58296591D01*
X71609444Y-58297335D01*
X71662127Y-58303000D01*
X74257872Y-58302999D01*
X74317483Y-58296591D01*
X74452331Y-58246296D01*
X74567546Y-58160046D01*
X74653796Y-58044831D01*
X74704091Y-57909983D01*
X74710500Y-57850373D01*
X74710499Y-56552495D01*
X76284592Y-56552495D01*
X76284592Y-56552504D01*
X76304196Y-56814120D01*
X76304197Y-56814125D01*
X76304197Y-56814129D01*
X76304198Y-56814130D01*
X76307773Y-56829794D01*
X76362576Y-57069902D01*
X76362578Y-57069911D01*
X76362580Y-57069916D01*
X76458432Y-57314143D01*
X76589614Y-57541357D01*
X76642398Y-57607546D01*
X76753198Y-57746485D01*
X76872827Y-57857483D01*
X76945521Y-57924933D01*
X77162296Y-58072728D01*
X77162301Y-58072730D01*
X77162302Y-58072731D01*
X77162303Y-58072732D01*
X77234592Y-58107544D01*
X77398673Y-58186561D01*
X77398674Y-58186561D01*
X77398677Y-58186563D01*
X77649385Y-58263896D01*
X77908818Y-58303000D01*
X78171182Y-58303000D01*
X78430615Y-58263896D01*
X78681323Y-58186563D01*
X78917704Y-58072728D01*
X79134479Y-57924933D01*
X79301260Y-57770183D01*
X79326801Y-57746485D01*
X79326801Y-57746483D01*
X79326805Y-57746481D01*
X79490386Y-57541357D01*
X79621568Y-57314143D01*
X79717420Y-57069916D01*
X79775802Y-56814130D01*
X79775803Y-56814120D01*
X79795408Y-56552504D01*
X79795408Y-56552495D01*
X79775803Y-56290879D01*
X79775802Y-56290874D01*
X79775802Y-56290870D01*
X79717420Y-56035084D01*
X79621568Y-55790857D01*
X79490386Y-55563643D01*
X79326805Y-55358519D01*
X79326804Y-55358518D01*
X79326801Y-55358514D01*
X79134479Y-55180067D01*
X79130812Y-55177567D01*
X78917704Y-55032272D01*
X78917700Y-55032270D01*
X78917697Y-55032268D01*
X78917696Y-55032267D01*
X78681325Y-54918438D01*
X78681327Y-54918438D01*
X78430623Y-54841106D01*
X78430619Y-54841105D01*
X78430615Y-54841104D01*
X78305823Y-54822294D01*
X78171187Y-54802000D01*
X78171182Y-54802000D01*
X77908818Y-54802000D01*
X77908812Y-54802000D01*
X77747780Y-54826273D01*
X77649385Y-54841104D01*
X77649382Y-54841105D01*
X77649376Y-54841106D01*
X77398673Y-54918438D01*
X77162303Y-55032267D01*
X77162302Y-55032268D01*
X76945520Y-55180067D01*
X76753198Y-55358514D01*
X76589614Y-55563643D01*
X76458432Y-55790856D01*
X76362582Y-56035078D01*
X76362576Y-56035097D01*
X76304197Y-56290874D01*
X76304196Y-56290879D01*
X76284592Y-56552495D01*
X74710499Y-56552495D01*
X74710499Y-55254628D01*
X74704091Y-55195017D01*
X74703158Y-55192516D01*
X74653797Y-55060171D01*
X74653793Y-55060164D01*
X74567547Y-54944955D01*
X74567544Y-54944952D01*
X74452335Y-54858706D01*
X74452328Y-54858702D01*
X74317482Y-54808408D01*
X74317483Y-54808408D01*
X74257883Y-54802001D01*
X74257881Y-54802000D01*
X74257873Y-54802000D01*
X74257864Y-54802000D01*
X71662129Y-54802000D01*
X71662123Y-54802001D01*
X71602516Y-54808408D01*
X71467671Y-54858702D01*
X71467664Y-54858706D01*
X71352455Y-54944952D01*
X71352452Y-54944955D01*
X71266206Y-55060164D01*
X71266202Y-55060171D01*
X71215908Y-55195017D01*
X71209768Y-55252135D01*
X71209501Y-55254623D01*
X71209500Y-55254635D01*
X55953178Y-55254635D01*
X55966047Y-55241766D01*
X56161659Y-54992086D01*
X56325749Y-54720647D01*
X56455925Y-54431409D01*
X56550287Y-54128589D01*
X56607461Y-53816603D01*
X56626612Y-53500000D01*
X56607461Y-53183397D01*
X56550287Y-52871411D01*
X56455925Y-52568591D01*
X56325749Y-52279353D01*
X56161659Y-52007914D01*
X56160063Y-52005877D01*
X55966044Y-51758230D01*
X55741769Y-51533955D01*
X55492092Y-51338345D01*
X55492084Y-51338340D01*
X55220647Y-51174251D01*
X54931409Y-51044075D01*
X54628589Y-50949713D01*
X54316603Y-50892539D01*
X54316602Y-50892538D01*
X54316597Y-50892538D01*
X54000000Y-50873388D01*
X53683402Y-50892538D01*
X53371410Y-50949713D01*
X53068596Y-51044073D01*
X53068592Y-51044074D01*
X53068591Y-51044075D01*
X52907721Y-51116477D01*
X52779357Y-51174249D01*
X52779355Y-51174250D01*
X52507915Y-51338340D01*
X52507907Y-51338345D01*
X52258230Y-51533955D01*
X52033955Y-51758230D01*
X51838345Y-52007907D01*
X51838341Y-52007914D01*
X51708402Y-52222861D01*
X51674250Y-52279355D01*
X51674249Y-52279357D01*
X51544073Y-52568596D01*
X51449713Y-52871410D01*
X51392538Y-53183402D01*
X51373388Y-53500000D01*
X51000500Y-53500000D01*
X51000500Y-50624500D01*
X51020185Y-50557461D01*
X51072989Y-50511706D01*
X51124500Y-50500500D01*
X170875500Y-50500500D01*
X170942539Y-50520185D01*
G37*
%TD.AperFunction*%
M02*
