%TF.GenerationSoftware,KiCad,Pcbnew,8.0.4*%
%TF.CreationDate,2024-11-21T09:43:36-08:00*%
%TF.ProjectId,ChargeGuard_Pro_Plus_ECE411,43686172-6765-4477-9561-72645f50726f,1.0.3*%
%TF.SameCoordinates,Original*%
%TF.FileFunction,Legend,Bot*%
%TF.FilePolarity,Positive*%
%FSLAX46Y46*%
G04 Gerber Fmt 4.6, Leading zero omitted, Abs format (unit mm)*
G04 Created by KiCad (PCBNEW 8.0.4) date 2024-11-21 09:43:36*
%MOMM*%
%LPD*%
G01*
G04 APERTURE LIST*
G04 Aperture macros list*
%AMRoundRect*
0 Rectangle with rounded corners*
0 $1 Rounding radius*
0 $2 $3 $4 $5 $6 $7 $8 $9 X,Y pos of 4 corners*
0 Add a 4 corners polygon primitive as box body*
4,1,4,$2,$3,$4,$5,$6,$7,$8,$9,$2,$3,0*
0 Add four circle primitives for the rounded corners*
1,1,$1+$1,$2,$3*
1,1,$1+$1,$4,$5*
1,1,$1+$1,$6,$7*
1,1,$1+$1,$8,$9*
0 Add four rect primitives between the rounded corners*
20,1,$1+$1,$2,$3,$4,$5,0*
20,1,$1+$1,$4,$5,$6,$7,0*
20,1,$1+$1,$6,$7,$8,$9,0*
20,1,$1+$1,$8,$9,$2,$3,0*%
G04 Aperture macros list end*
%ADD10C,2.000000*%
%ADD11R,2.500000X2.500000*%
%ADD12C,2.500000*%
%ADD13C,1.400000*%
%ADD14O,1.400000X1.400000*%
%ADD15R,1.050000X1.500000*%
%ADD16O,1.050000X1.500000*%
%ADD17R,2.200000X2.200000*%
%ADD18O,2.200000X2.200000*%
%ADD19RoundRect,0.250000X0.550000X-1.050000X0.550000X1.050000X-0.550000X1.050000X-0.550000X-1.050000X0*%
%ADD20O,1.600000X2.600000*%
%ADD21R,2.000000X4.600000*%
%ADD22O,2.000000X4.200000*%
%ADD23O,4.200000X2.000000*%
G04 APERTURE END LIST*
%LPC*%
D10*
%TO.C,TP9*%
X128750000Y-97250000D03*
%TD*%
D11*
%TO.C,J10*%
X138920000Y-56000000D03*
D12*
X144000000Y-56000000D03*
%TD*%
D11*
%TO.C,J12*%
X165010000Y-81597500D03*
D12*
X165010000Y-76517500D03*
%TD*%
D13*
%TO.C,R9*%
X144420000Y-69000000D03*
D14*
X149500000Y-69000000D03*
%TD*%
D10*
%TO.C,TP6*%
X71120000Y-114500000D03*
%TD*%
D15*
%TO.C,Q1*%
X151730000Y-58000000D03*
D16*
X153000000Y-58000000D03*
X154270000Y-58000000D03*
%TD*%
D10*
%TO.C,TP5*%
X76500000Y-114447500D03*
%TD*%
D13*
%TO.C,R8*%
X140000000Y-92540000D03*
D14*
X140000000Y-87460000D03*
%TD*%
D11*
%TO.C,J6*%
X127850000Y-113552500D03*
D12*
X132930000Y-113552500D03*
%TD*%
D10*
%TO.C,TP8*%
X81505000Y-77552500D03*
%TD*%
D11*
%TO.C,J7*%
X128000000Y-56552500D03*
D12*
X122920000Y-56552500D03*
%TD*%
D13*
%TO.C,R6*%
X108000000Y-71000000D03*
D14*
X102920000Y-71000000D03*
%TD*%
D10*
%TO.C,TP1*%
X81505000Y-70552500D03*
%TD*%
D11*
%TO.C,J11*%
X164930000Y-70097500D03*
D12*
X164930000Y-65017500D03*
%TD*%
D11*
%TO.C,J8*%
X94510000Y-76052500D03*
D12*
X94510000Y-71052500D03*
X94510000Y-66052500D03*
%TD*%
D13*
%TO.C,R10*%
X136000000Y-92580000D03*
D14*
X136000000Y-87500000D03*
%TD*%
D11*
%TO.C,J4*%
X72960000Y-56552500D03*
D12*
X78040000Y-56552500D03*
%TD*%
D11*
%TO.C,J14*%
X149000000Y-81580000D03*
D12*
X149000000Y-76500000D03*
%TD*%
D10*
%TO.C,TP7*%
X86005000Y-77552500D03*
%TD*%
D11*
%TO.C,J3*%
X90005000Y-56552500D03*
D12*
X84925000Y-56552500D03*
%TD*%
D10*
%TO.C,TP2*%
X86005000Y-70552500D03*
%TD*%
D13*
%TO.C,R14*%
X152420000Y-88500000D03*
D14*
X157500000Y-88500000D03*
%TD*%
D13*
%TO.C,R13*%
X130000000Y-93080000D03*
D14*
X130000000Y-88000000D03*
%TD*%
D10*
%TO.C,TP3*%
X156925000Y-84000000D03*
%TD*%
D13*
%TO.C,R12*%
X67000000Y-113000000D03*
D14*
X61920000Y-113000000D03*
%TD*%
D17*
%TO.C,D1*%
X113500000Y-80132500D03*
D18*
X113500000Y-69972500D03*
%TD*%
D11*
%TO.C,J9*%
X135010000Y-66552500D03*
D12*
X135010000Y-71552500D03*
X135010000Y-76552500D03*
%TD*%
D15*
%TO.C,Q3*%
X140890000Y-98052500D03*
D16*
X142160000Y-98052500D03*
X143430000Y-98052500D03*
%TD*%
D19*
%TO.C,A1*%
X68450000Y-109752500D03*
D20*
X70990000Y-109752500D03*
X73530000Y-109752500D03*
X76070000Y-109752500D03*
X78610000Y-109752500D03*
X81150000Y-109752500D03*
X83690000Y-109752500D03*
X86230000Y-109752500D03*
X88770000Y-109752500D03*
X91310000Y-109752500D03*
X93850000Y-109752500D03*
X96390000Y-109752500D03*
X98930000Y-109752500D03*
X101470000Y-109752500D03*
X104010000Y-109752500D03*
X106550000Y-109752500D03*
X106550000Y-90032500D03*
X104010000Y-90032500D03*
X101470000Y-90032500D03*
X98930000Y-90032500D03*
X96390000Y-90032500D03*
X93850000Y-90032500D03*
X91310000Y-90032500D03*
X88770000Y-90032500D03*
X86230000Y-90032500D03*
X83690000Y-90032500D03*
X81150000Y-90032500D03*
X78610000Y-90032500D03*
%TD*%
D10*
%TO.C,TP4*%
X157000000Y-77000000D03*
%TD*%
D11*
%TO.C,J13*%
X165010000Y-93142500D03*
D12*
X165010000Y-88062500D03*
%TD*%
D11*
%TO.C,J15*%
X110920000Y-56500000D03*
D12*
X116000000Y-56500000D03*
%TD*%
D21*
%TO.C,J1*%
X61300000Y-67500000D03*
D22*
X55000000Y-67500000D03*
D23*
X58400000Y-72300000D03*
%TD*%
D13*
%TO.C,JP1*%
X86255000Y-84052500D03*
X83715000Y-84052500D03*
%TD*%
%TO.C,R11*%
X114420000Y-113500000D03*
D14*
X119500000Y-113500000D03*
%TD*%
D11*
%TO.C,J5*%
X56505000Y-83552500D03*
D12*
X56505000Y-78472500D03*
%TD*%
D11*
%TO.C,J2*%
X102180000Y-56550000D03*
D12*
X97100000Y-56550000D03*
%TD*%
%LPD*%
M02*
